<svg width="52" height="33" viewBox="0 0 52 33" fill="none" xmlns="http://www.w3.org/2000/svg">
<path d="M33.0309 3.43561H18.9698V28.7029H33.0309V3.43561Z" fill="#FF5F00"/>
<path d="M19.8627 16.0693C19.8605 13.6359 20.4119 11.2338 21.4753 9.04501C22.5387 6.8562 24.0861 4.938 26.0004 3.43562C23.6298 1.57231 20.7827 0.413552 17.7847 0.0917768C14.7866 -0.229998 11.7585 0.298185 9.04644 1.61598C6.33438 2.93377 4.0478 4.98801 2.44807 7.54386C0.848338 10.0997 0 13.0541 0 16.0693C0 19.0845 0.848338 22.0388 2.44807 24.5947C4.0478 27.1505 6.33438 29.2048 9.04644 30.5226C11.7585 31.8404 14.7866 32.3686 17.7847 32.0468C20.7827 31.725 23.6298 30.5662 26.0004 28.7029C24.0861 27.2005 22.5387 25.2823 21.4753 23.0935C20.4119 20.9047 19.8605 18.5027 19.8627 16.0693Z" fill="#EB001B"/>
<path d="M52 16.0693C52.0001 19.0844 51.1519 22.0388 49.5522 24.5946C47.9526 27.1505 45.6661 29.2047 42.9541 30.5225C40.2421 31.8403 37.214 32.3685 34.216 32.0468C31.2179 31.725 28.371 30.5662 26.0004 28.7029C27.913 27.199 29.4592 25.2805 30.5224 23.0921C31.5856 20.9036 32.1381 18.5023 32.1381 16.0693C32.1381 13.6362 31.5856 11.2349 30.5224 9.04649C29.4592 6.85802 27.913 4.93952 26.0004 3.43562C28.371 1.57231 31.2179 0.413543 34.216 0.0917719C37.214 -0.229999 40.2421 0.298207 42.9541 1.61602C45.6661 2.93382 47.9526 4.98806 49.5522 7.54391C51.1519 10.0998 52.0001 13.0541 52 16.0693Z" fill="#F79E1B"/>
<path d="M50.4669 26.0267V25.5094H50.6754V25.404H50.1442V25.5094H50.3529V26.0267H50.4669ZM51.4982 26.0267V25.403H51.3354L51.1481 25.832L50.9607 25.403H50.7978V26.0267H50.9128V25.5563L51.0884 25.9619H51.2077L51.3833 25.5552V26.0267H51.4982Z" fill="#F79E1B"/>
</svg>
