<svg width="73" height="73" viewBox="0 0 73 73" fill="none" xmlns="http://www.w3.org/2000/svg">
<g clip-path="url(#clip0_32_8750)">
<path d="M11.8776 27.7055C9.39409 27.7587 7.23785 29.5871 7.25266 32.5066C7.26122 34.2017 8.57045 35.5417 9.85142 36.9553C11.8287 39.137 12.4091 38.7521 12.318 40.9636C12.2846 41.7729 10.9418 43.0372 9.49904 43.0338C7.36146 43.0299 5.86735 40.9779 6.45981 38.4969H5.84316L4.21342 44.3992H4.83008C5.0103 43.7933 6.22844 43.8477 6.72409 43.8266C7.6577 43.7872 8.19052 44.5386 10.1157 44.5314C12.7498 44.5215 15.3383 42.7987 15.3132 39.5981C15.3003 37.9373 14.2812 36.809 12.9347 35.5018C10.8634 33.4917 10.056 32.5307 10.424 30.9209C10.7285 29.5889 11.6801 29.2156 12.6264 29.2031C14.399 29.1804 15.1619 31.0492 15.4013 32.9911H15.9739L17.4275 28.0578H16.8108C16.6756 28.6406 15.9629 28.6699 15.4013 28.6305C15.1483 28.6124 15.0056 28.6632 14.3882 28.4543C13.7302 28.2311 12.6925 27.6883 11.8776 27.7055ZM18.0882 28.3662L17.912 29.3352C18.8851 29.3395 19.2362 29.3177 19.2334 31.1411V44.3992C19.2334 44.3992 19.49 44.9811 19.85 44.3992C20.2103 43.8169 26.0606 34.1363 26.0606 34.1363V34.4446L26.0166 44.3992C26.0166 44.3992 26.389 44.9811 26.7654 44.3992C27.1417 43.8169 35.2224 30.4804 35.2224 30.4804C35.5908 29.8187 35.8708 29.3579 36.8081 29.3352L37.0283 28.3662H32.051L31.8748 29.3352C32.9644 29.3373 33.69 29.1657 33.7248 29.8197C33.7394 30.094 33.6898 30.3142 33.5046 30.6566L29.4082 37.3517L29.3201 37.2196V31.1411C29.324 30.8678 29.3255 30.5983 29.3201 30.3923C29.2931 29.3602 29.5767 29.3373 30.3772 29.3352L30.5534 28.3662H25.0035L24.8273 29.3352C25.6631 29.3579 26.0284 29.6003 26.0166 30.3483V31.7137L22.4488 37.4839L22.3167 37.572V31.0971C22.3169 30.8692 22.3188 30.5117 22.3167 30.2602C22.3132 29.9075 22.2362 29.3373 23.2416 29.3352L23.5059 28.3662H18.0882ZM37.7771 28.3662L37.6009 29.3352C38.0558 29.3116 38.5201 29.4835 38.5699 29.9959C38.5914 30.2191 38.4596 30.5465 38.3497 30.9649L35.3105 42.285C35.1311 43.0369 34.2266 43.4396 33.02 43.4302L32.8439 44.3992H39.3187L39.539 43.4302C38.3953 43.407 38.4673 43.0903 38.4818 42.6814C38.4909 42.4256 38.6145 42.1907 38.7021 41.8885L41.7854 30.5245C42.1025 29.4615 42.8671 29.3588 44.0317 29.3352L44.252 28.3662H37.7771ZM45.1329 28.3662L44.9127 29.3352C45.8774 29.4082 47.2467 29.3976 46.8948 30.5245C46.818 30.7708 46.9024 30.6578 46.8067 31.053L43.8556 42.0647C43.626 43.0869 42.9109 43.407 42.0496 43.4302L41.7854 44.3992H48.6567L48.9209 43.4302C47.4181 43.4263 46.8103 43.2251 47.115 42.0647C47.1798 41.8175 47.3029 41.3797 47.3793 41.0076L48.7888 36.1625H49.0971C50.4403 36.1573 50.8195 36.3246 50.859 37.0434C50.8839 37.5052 50.8713 37.8798 50.903 38.1446H51.6518L52.7971 33.4316L52.1804 33.3435C51.5452 34.967 50.1905 34.9899 49.7138 34.9732H49.0971L50.0662 31.0971C50.4875 29.665 50.6243 29.7445 51.6959 29.7316C53.5627 29.7093 54.6707 30.0153 54.5149 32.6387H55.1315L56.2768 28.3662H45.1329ZM57.1577 28.3662L55.9684 32.6387H56.6732C57.0174 31.4453 57.0265 31.2447 57.7303 30.6126C58.453 29.9808 59.2296 29.7316 60.4612 29.7316L57.2458 41.4921C57.023 43.413 55.9178 43.4065 54.5149 43.4302L54.2947 44.3992H61.5624L61.7386 43.5183C60.8086 43.6045 60.236 42.9931 60.4172 42.285C60.4867 42.0125 60.6147 41.608 60.7255 41.1398L63.7207 29.7316C66.002 29.7303 66.4593 30.6462 66.3194 32.6387H66.9801L68.1254 28.3662H57.1577ZM29.6284 42.5933C29.2467 42.592 28.8453 43.0685 28.7475 43.6504C28.6494 44.2324 28.8943 44.7063 29.2761 44.7075C29.6573 44.7092 30.0589 44.2324 30.157 43.6504C30.2551 43.0689 30.0097 42.595 29.6284 42.5933ZM40.9044 42.5933C40.5229 42.592 40.1213 43.0685 40.0235 43.6504C39.9252 44.2324 40.1705 44.7063 40.552 44.7075C40.9335 44.7092 41.3351 44.2324 41.433 43.6504C41.5312 43.0689 41.2859 42.595 40.9044 42.5933ZM50.5947 42.5933C50.2132 42.592 49.8116 43.0685 49.7138 43.6504C49.6155 44.2324 49.8167 44.7063 50.1983 44.7075C50.5798 44.7092 50.9814 44.2324 51.0792 43.6504C51.1775 43.0689 50.9762 42.595 50.5947 42.5933ZM15.8858 42.6373C15.5046 42.6356 15.1468 43.1126 15.0489 43.6945C14.9509 44.2764 15.1522 44.7499 15.5335 44.7516C15.915 44.7533 16.3166 44.2764 16.4144 43.6945C16.5125 43.1126 16.2674 42.639 15.8858 42.6373ZM63.5445 42.6373C63.163 42.6361 62.7614 43.1125 62.6635 43.6945C62.5653 44.2764 62.8106 44.7503 63.1921 44.7516C63.5736 44.7533 63.9752 44.2764 64.073 43.6945C64.1713 43.113 63.926 42.6391 63.5445 42.6373Z" fill="#D9D9D9" stroke="#D9D9D9" stroke-width="0.219723"/>
<path d="M2.9921 24.8531H70.0624M2.9921 48.1438H70.0624M10.1331 60.2285H62.8664M10.1331 12.7683H62.8664M36.4449 24.8531V1.01316M36.4449 48.1438V71.9288M37.4202 1.05386C37.4202 1.05386 51.867 8.85403 54.7234 24.784M35.5463 1.06636C35.5463 1.06636 20.821 8.76264 17.844 24.6707M35.4877 71.8194C35.4877 71.8194 20.9311 64.0994 18.0747 48.1695M37.5399 71.8211C37.5399 71.8211 52.0459 64.2046 55.0225 48.2965M36.4999 0.988684C16.904 0.988684 1.01784 16.8748 1.01784 36.471C1.01784 56.0667 16.904 71.9528 36.4999 71.9528C56.0958 71.9528 71.9824 56.0667 71.9824 36.471C71.9824 16.8748 56.0958 0.988684 36.4999 0.988684Z" stroke="#D9D9D9" stroke-width="1.97751"/>
</g>
<defs>
<clipPath id="clip0_32_8750">
<rect width="73" height="73" fill="white"/>
</clipPath>
</defs>
</svg>
