<svg width="128" height="56" viewBox="0 0 128 56" fill="none" xmlns="http://www.w3.org/2000/svg">
<path d="M1.76234 52.3809V47.9392H5.05549V48.6909H2.65929V49.6755H4.88908V50.4239H2.65929V51.6325H5.14072V52.3809H1.76234Z" fill="#D9D9D9"/>
<path d="M5.93823 47.9392H6.78973V48.7266H5.93823V47.9392ZM5.93823 49.1633H6.78973V52.3809H5.93823V49.1633Z" fill="#D9D9D9"/>
<path d="M10.6321 52.3809H9.78065V50.7388C9.78065 50.3914 9.76279 50.1665 9.72626 50.0643C9.68974 49.9628 9.63129 49.8841 9.54931 49.8272C9.46732 49.7704 9.36911 49.742 9.25384 49.742C9.10611 49.742 8.9738 49.7826 8.85691 49.8638C8.74002 49.9441 8.65885 50.0513 8.61583 50.1844C8.572 50.3175 8.55089 50.5643 8.55089 50.9231V52.3809H7.6994V49.1632H8.49002V49.6357C8.77087 49.2728 9.12478 49.091 9.55093 49.091C9.73844 49.091 9.90971 49.1243 10.0656 49.1925C10.2214 49.2598 10.3383 49.3467 10.4187 49.4514C10.4982 49.5561 10.5542 49.6754 10.5851 49.8086C10.6167 49.9417 10.6321 50.1333 10.6321 50.3816V52.3809Z" fill="#D9D9D9"/>
<path d="M12.3873 47.9395V49.5726C12.6617 49.2512 12.9904 49.0905 13.3719 49.0905C13.5676 49.0905 13.7445 49.127 13.902 49.2C14.0595 49.2723 14.178 49.3656 14.2583 49.4785C14.3379 49.5913 14.3923 49.7171 14.4215 49.8543C14.4507 49.9915 14.4653 50.205 14.4653 50.4939V52.3812H13.6146V50.6814C13.6146 50.3438 13.5984 50.1303 13.5659 50.0386C13.5335 49.9485 13.4766 49.8762 13.3947 49.8226C13.3127 49.7691 13.2104 49.7423 13.087 49.7423C12.9458 49.7423 12.8192 49.7764 12.7088 49.8446C12.5976 49.9136 12.5164 50.0175 12.4644 50.1554C12.4133 50.2942 12.3873 50.4988 12.3873 50.7691V52.3812H11.5358V47.9395H12.3873Z" fill="#D9D9D9"/>
<path d="M17.2357 51.3568L18.084 51.4997C17.9752 51.8106 17.8023 52.0468 17.5677 52.2099C17.3323 52.3723 17.0377 52.4535 16.6846 52.4535C16.1245 52.4535 15.7105 52.2708 15.4418 51.9047C15.23 51.6125 15.1236 51.2432 15.1236 50.7967C15.1236 50.2634 15.2633 49.8454 15.5425 49.5435C15.8209 49.2415 16.1732 49.0905 16.5993 49.0905C17.0783 49.0905 17.4557 49.2488 17.7325 49.5646C18.0093 49.8811 18.1416 50.3649 18.1294 51.0175H15.9962C16.0027 51.27 16.0709 51.4664 16.2024 51.6068C16.3339 51.7473 16.4979 51.8171 16.6935 51.8171C16.8266 51.8171 16.9386 51.7814 17.0296 51.7083C17.1205 51.6353 17.1895 51.5184 17.2357 51.3568ZM17.2844 50.4964C17.2779 50.2497 17.2146 50.063 17.0937 49.9347C16.9719 49.8064 16.825 49.7423 16.6513 49.7423C16.4654 49.7423 16.312 49.8097 16.1902 49.9453C16.0693 50.08 16.01 50.2643 16.0117 50.4964H17.2844Z" fill="#D9D9D9"/>
<path d="M18.8665 47.9392H19.718V48.7266H18.8665V47.9392ZM18.8665 49.1633H19.718V52.3809H18.8665V49.1633Z" fill="#D9D9D9"/>
<path d="M22.1094 49.1633V49.8419H21.5274V51.139C21.5274 51.4012 21.533 51.5546 21.5444 51.5977L21.6199 51.7056L21.7644 51.7478C21.8431 51.7478 21.9568 51.7202 22.1061 51.6659L22.1792 52.3266C21.9811 52.411 21.7571 52.4532 21.5063 52.4532C21.3528 52.4532 21.2148 52.4281 21.0915 52.3761C20.9681 52.325 20.878 52.2584 20.8204 52.1764C20.7627 52.0944 20.7229 51.984 20.7002 51.8444C20.6824 51.7462 20.6734 51.5457 20.6734 51.2446V49.8419H20.2822V49.1633H20.6734V48.5237L21.5274 48.0269V49.1633H22.1094Z" fill="#D9D9D9"/>
<path d="M22.7432 47.9392H23.5947V52.3809H22.7432V47.9392Z" fill="#D9D9D9"/>
<path d="M24.5112 47.9392H25.3626V48.7266H24.5112V47.9392ZM24.5112 49.1633H25.3626V52.3809H24.5112V49.1633Z" fill="#D9D9D9"/>
<path d="M29.0836 50.1147L28.2443 50.2665C28.2158 50.0985 28.1517 49.9727 28.0519 49.8874C27.952 49.803 27.8222 49.76 27.6631 49.76C27.4504 49.76 27.2816 49.8339 27.1549 49.98C27.0291 50.1261 26.9658 50.3712 26.9658 50.7146C26.9658 51.0961 27.0299 51.3664 27.1582 51.5239C27.2864 51.6813 27.4585 51.7593 27.6744 51.7593C27.8368 51.7593 27.9683 51.7138 28.0714 51.6221C28.1744 51.5304 28.2475 51.3721 28.2897 51.148L29.1258 51.2901C29.0389 51.674 28.8725 51.9638 28.6258 52.1594C28.3798 52.3559 28.0494 52.4533 27.6355 52.4533C27.1647 52.4533 26.7897 52.3047 26.5096 52.0085C26.2304 51.7114 26.09 51.3006 26.09 50.7755C26.09 50.2438 26.2304 49.8306 26.5112 49.5343C26.7921 49.2389 27.172 49.0903 27.6509 49.0903C28.0421 49.0903 28.3538 49.1748 28.5852 49.3436C28.8165 49.5124 28.9829 49.7689 29.0836 50.1147Z" fill="#D9D9D9"/>
<path d="M30.6207 47.9395V49.5726C30.8951 49.2512 31.2238 49.0905 31.6053 49.0905C31.801 49.0905 31.9779 49.127 32.1354 49.2C32.2929 49.2723 32.4114 49.3656 32.4917 49.4785C32.5713 49.5913 32.6257 49.7171 32.6549 49.8543C32.6841 49.9915 32.6987 50.205 32.6987 50.4939V52.3812H31.848V50.6814C31.848 50.3438 31.8318 50.1303 31.7993 50.0386C31.7669 49.9485 31.71 49.8762 31.6281 49.8226C31.5461 49.7691 31.4438 49.7423 31.3204 49.7423C31.1792 49.7423 31.0526 49.7764 30.9422 49.8446C30.831 49.9136 30.749 50.0175 30.6978 50.1554C30.6467 50.2942 30.6207 50.4988 30.6207 50.7691V52.3812H29.7692V47.9395H30.6207Z" fill="#D9D9D9"/>
<path d="M35.4691 51.3568L36.3174 51.4997C36.2086 51.8106 36.0357 52.0468 35.8011 52.2099C35.5657 52.3723 35.2711 52.4535 34.918 52.4535C34.3579 52.4535 33.9439 52.2708 33.6752 51.9047C33.4634 51.6125 33.3578 51.2432 33.3578 50.7967C33.3578 50.2634 33.4966 49.8454 33.7759 49.5435C34.0543 49.2415 34.4066 49.0905 34.8327 49.0905C35.3116 49.0905 35.6891 49.2488 35.9659 49.5646C36.2427 49.8811 36.375 50.3649 36.3628 51.0175H34.2296C34.2361 51.27 34.3043 51.4664 34.4358 51.6068C34.5673 51.7473 34.7313 51.8171 34.9269 51.8171C35.06 51.8171 35.172 51.7814 35.2629 51.7083C35.3539 51.6353 35.4228 51.5184 35.4691 51.3568ZM35.5178 50.4964C35.5113 50.2497 35.448 50.063 35.3271 49.9347C35.2053 49.8064 35.0584 49.7423 34.8847 49.7423C34.6988 49.7423 34.5454 49.8097 34.4236 49.9453C34.3027 50.08 34.2434 50.2643 34.245 50.4964H35.5178Z" fill="#D9D9D9"/>
<path d="M37.915 52.3809H37.0635V49.1632H37.8541V49.6211C37.9897 49.4051 38.1114 49.2623 38.2194 49.1941C38.3273 49.1251 38.4499 49.091 38.5879 49.091C38.7819 49.091 38.9686 49.1446 39.148 49.2509L38.8842 49.9936C38.7413 49.9003 38.6074 49.854 38.4848 49.854C38.3655 49.854 38.264 49.8873 38.1812 49.953C38.0984 50.018 38.0335 50.1373 37.9864 50.3086C37.9385 50.4807 37.915 50.8394 37.915 51.3874V52.3809Z" fill="#D9D9D9"/>
<path d="M41.3317 52.3809V47.9392H44.6248V48.6909H42.2286V49.6755H44.4584V50.4239H42.2286V51.6325H44.7101V52.3809H41.3317Z" fill="#D9D9D9"/>
<path d="M47.6252 52.3809V51.8996C47.5083 52.0708 47.3541 52.2064 47.1633 52.3046C46.9726 52.4037 46.7713 52.454 46.5586 52.454C46.3427 52.454 46.1487 52.4061 45.9774 52.3111C45.8053 52.2161 45.6811 52.083 45.6048 51.9117C45.5277 51.7397 45.4896 51.5026 45.4896 51.1991V49.1633H46.3411V50.6422C46.3411 51.0943 46.3565 51.3711 46.3873 51.4734C46.419 51.5757 46.4758 51.6561 46.5586 51.7161C46.6414 51.7754 46.7469 51.8054 46.8735 51.8054C47.0197 51.8054 47.1495 51.7656 47.2648 51.6861C47.3801 51.6057 47.4588 51.5067 47.501 51.389C47.5432 51.2705 47.5643 50.9815 47.5643 50.5205V49.1633H48.4158V52.3809H47.6252Z" fill="#D9D9D9"/>
<path d="M50.1559 52.3809H49.3044V49.1632H50.0951V49.6211C50.2306 49.4051 50.3524 49.2623 50.4603 49.1941C50.5683 49.1251 50.6909 49.091 50.8289 49.091C51.0229 49.091 51.2096 49.1446 51.3889 49.2509L51.1251 49.9936C50.9823 49.9003 50.8491 49.854 50.7258 49.854C50.6064 49.854 50.505 49.8873 50.4222 49.953C50.3394 50.018 50.2745 50.1373 50.2274 50.3086C50.1795 50.4807 50.1559 50.8394 50.1559 51.3874V52.3809Z" fill="#D9D9D9"/>
<path d="M51.6021 50.7266C51.6021 50.4441 51.6719 50.1706 51.8116 49.9052C51.9504 49.6414 52.1476 49.4392 52.4033 49.2996C52.659 49.1608 52.9439 49.091 53.2597 49.091C53.7459 49.091 54.1452 49.2485 54.4561 49.565C54.767 49.8808 54.9229 50.2802 54.9229 50.7631C54.9229 51.2494 54.7654 51.6536 54.4513 51.9734C54.1371 52.2932 53.7418 52.4531 53.2653 52.4531C52.9707 52.4531 52.689 52.3866 52.422 52.2535C52.1541 52.1203 51.9504 51.9247 51.8116 51.6674C51.6719 51.4101 51.6021 51.096 51.6021 50.7266ZM52.4747 50.7721C52.4747 51.0911 52.5502 51.3354 52.702 51.5051C52.8538 51.6747 53.0405 51.7599 53.2621 51.7599C53.4845 51.7599 53.6704 51.6747 53.8214 51.5051C53.9715 51.3354 54.047 51.0895 54.047 50.7656C54.047 50.4506 53.9715 50.2087 53.8214 50.0391C53.6704 49.8694 53.4845 49.7842 53.2621 49.7842C53.0405 49.7842 52.8538 49.8694 52.702 50.0391C52.5502 50.2087 52.4747 50.4531 52.4747 50.7721Z" fill="#D9D9D9"/>
<path d="M55.5359 50.3452H57.208V51.1967H55.5359V50.3452Z" fill="#D9D9D9"/>
<path d="M57.3634 52.3809V51.5725L59.6963 48.6909H57.6272V47.9392H60.8781V48.6365L58.4454 51.6325H60.9715V52.3809H57.3634Z" fill="#D9D9D9"/>
<path d="M62.2119 50.145L61.4391 50.0054C61.526 49.6945 61.6754 49.464 61.888 49.3146C62.0999 49.1653 62.4148 49.0906 62.8329 49.0906C63.2127 49.0906 63.4952 49.1352 63.6811 49.2253C63.867 49.3154 63.9977 49.4299 64.0732 49.5679C64.1495 49.7067 64.1868 49.9607 64.1868 50.3293L64.1779 51.3236C64.1779 51.6069 64.1917 51.8147 64.2193 51.9486C64.2461 52.0834 64.2972 52.2271 64.3719 52.3813H63.5301C63.5074 52.3245 63.4806 52.2409 63.4481 52.1297L63.4173 52.0298C63.272 52.171 63.117 52.2774 62.9514 52.348C62.7858 52.4178 62.6088 52.4535 62.4213 52.4535C62.0893 52.4535 61.8288 52.3642 61.638 52.184C61.4473 52.0046 61.3515 51.7774 61.3515 51.5022C61.3515 51.3204 61.3945 51.1588 61.4813 51.016C61.5682 50.8739 61.69 50.7643 61.8466 50.6889C62.0033 50.6134 62.2289 50.5468 62.5236 50.4908C62.9221 50.4153 63.1973 50.3463 63.3507 50.2814V50.1961C63.3507 50.033 63.311 49.9161 63.2298 49.8463C63.1486 49.7773 62.9968 49.7424 62.772 49.7424C62.621 49.7424 62.5025 49.7716 62.4181 49.8317C62.3328 49.8909 62.2647 49.9956 62.2119 50.145ZM63.3507 50.8358C63.242 50.8723 63.0691 50.9161 62.8329 50.9665C62.5966 51.0168 62.4424 51.0663 62.3694 51.1142C62.2582 51.1929 62.203 51.2936 62.203 51.4145C62.203 51.5338 62.2476 51.6369 62.3361 51.723C62.4254 51.8106 62.5382 51.8537 62.6754 51.8537C62.8288 51.8537 62.9757 51.8033 63.1145 51.7019C63.2176 51.6256 63.2858 51.5314 63.3175 51.4202C63.3402 51.3472 63.3507 51.2092 63.3507 51.0054V50.8358Z" fill="#D9D9D9"/>
<path d="M65.9184 47.9395V49.5726C66.1928 49.2512 66.5207 49.0905 66.903 49.0905C67.0987 49.0905 67.2756 49.127 67.4331 49.2C67.5906 49.2723 67.7091 49.3656 67.7894 49.4785C67.869 49.5913 67.9234 49.7171 67.9526 49.8543C67.9818 49.9915 67.9964 50.205 67.9964 50.4939V52.3812H67.1449V50.6814C67.1449 50.3438 67.1287 50.1303 67.097 50.0386C67.0646 49.9485 67.0078 49.8762 66.9258 49.8226C66.8438 49.7691 66.7415 49.7423 66.6181 49.7423C66.4769 49.7423 66.3503 49.7764 66.2391 49.8446C66.1287 49.9136 66.0467 50.0175 65.9955 50.1554C65.9436 50.2942 65.9184 50.4988 65.9184 50.7691V52.3812H65.0669V47.9395H65.9184Z" fill="#D9D9D9"/>
<path d="M68.9033 47.9392H69.7548V52.3809H68.9033V47.9392Z" fill="#D9D9D9"/>
<path d="M72.7884 52.3809V51.8996C72.6715 52.0708 72.5173 52.2064 72.3265 52.3046C72.1358 52.4037 71.9337 52.454 71.7218 52.454C71.5059 52.454 71.3119 52.4061 71.1406 52.3111C70.9685 52.2161 70.8443 52.083 70.7672 51.9117C70.6909 51.7397 70.6528 51.5026 70.6528 51.1991V49.1633H71.5035V50.6422C71.5035 51.0943 71.5197 51.3711 71.5505 51.4734C71.5814 51.5757 71.639 51.6561 71.7218 51.7161C71.8046 51.7754 71.9101 51.8054 72.0368 51.8054C72.182 51.8054 72.3127 51.7656 72.428 51.6861C72.5433 51.6057 72.6212 51.5067 72.6642 51.389C72.7064 51.2705 72.7275 50.9815 72.7275 50.5205V49.1633H73.579V52.3809H72.7884Z" fill="#D9D9D9"/>
<path d="M77.431 52.3809H76.5795V50.7388C76.5795 50.3914 76.5617 50.1665 76.5252 50.0643C76.4886 49.9628 76.4294 49.8841 76.3474 49.8272C76.2662 49.7704 76.1672 49.742 76.0527 49.742C75.905 49.742 75.7727 49.7826 75.655 49.8638C75.5381 49.9441 75.4586 50.0513 75.4147 50.1844C75.3709 50.3175 75.3498 50.5643 75.3498 50.9231V52.3809H74.4983V49.1632H75.2889V49.6357C75.5698 49.2728 75.9229 49.091 76.349 49.091C76.5373 49.091 76.7086 49.1243 76.8644 49.1925C77.0195 49.2598 77.1372 49.3467 77.2175 49.4514C77.2971 49.5561 77.3523 49.6754 77.3839 49.8086C77.4148 49.9417 77.431 50.1333 77.431 50.3816V52.3809Z" fill="#D9D9D9"/>
<path d="M78.2591 52.5929L79.2315 52.7114C79.2478 52.8242 79.2851 52.9022 79.3435 52.9444C79.4239 53.0052 79.5513 53.0353 79.725 53.0353C79.9475 53.0353 80.1139 53.002 80.2251 52.9346C80.2997 52.8908 80.3566 52.8194 80.3947 52.7203C80.4207 52.6497 80.4337 52.519 80.4337 52.3291V51.8599C80.1796 52.2073 79.859 52.381 79.471 52.381C79.0383 52.381 78.6958 52.1984 78.4433 51.8323C78.2461 51.5442 78.1471 51.1846 78.1471 50.7535C78.1471 50.2146 78.2761 49.803 78.5359 49.5173C78.7956 49.2332 79.1179 49.0903 79.5043 49.0903C79.902 49.0903 80.2307 49.2657 80.4889 49.6147V49.1634H81.2852V52.0507C81.2852 52.4297 81.2543 52.7138 81.1918 52.9022C81.1285 53.0897 81.0408 53.2374 80.928 53.3445C80.8152 53.4517 80.6634 53.5353 80.4751 53.5962C80.2859 53.6563 80.0473 53.6863 79.7583 53.6863C79.2129 53.6863 78.8265 53.5929 78.5984 53.4062C78.3695 53.2195 78.2558 52.9825 78.2558 52.696L78.2591 52.5929ZM79.0197 50.7048C79.0197 51.0466 79.0854 51.2966 79.2177 51.4557C79.35 51.614 79.5132 51.6935 79.7072 51.6935C79.915 51.6935 80.0903 51.6115 80.234 51.4492C80.3777 51.2868 80.4491 51.0458 80.4491 50.7268C80.4491 50.3931 80.3809 50.1464 80.2429 49.9848C80.1057 49.8233 79.932 49.7421 79.7218 49.7421C79.5181 49.7421 79.35 49.8217 79.2177 49.98C79.0854 50.1383 79.0197 50.3802 79.0197 50.7048Z" fill="#D9D9D9"/>
<path d="M81.8712 51.4631L82.726 51.3324C82.7617 51.498 82.8355 51.6238 82.9467 51.7099C83.0579 51.7959 83.213 51.8389 83.4135 51.8389C83.6335 51.8389 83.799 51.7983 83.9103 51.718C83.9849 51.6612 84.0223 51.5849 84.0223 51.4899L83.9614 51.33C83.9192 51.2894 83.8242 51.2521 83.6765 51.2172C82.9906 51.0662 82.5547 50.9282 82.3712 50.8024C82.1172 50.6287 81.9889 50.3876 81.9889 50.0783C81.9889 49.7999 82.0993 49.5653 82.3193 49.3754C82.5401 49.1854 82.881 49.0905 83.3437 49.0905C83.7836 49.0905 84.1116 49.1627 84.325 49.3064C84.5393 49.4492 84.6871 49.6611 84.7674 49.9419L83.9646 50.0905C83.9305 49.9655 83.8648 49.8689 83.769 49.8031C83.6732 49.7358 83.5361 49.7025 83.3583 49.7025C83.1351 49.7025 82.9743 49.7341 82.8769 49.7967L82.7803 49.9695L82.8648 50.1238C82.9419 50.1806 83.2065 50.2601 83.6602 50.3632C84.1132 50.4663 84.4306 50.5929 84.61 50.7415C84.7877 50.8933 84.877 51.1043 84.877 51.3746C84.877 51.6701 84.7536 51.9234 84.5069 52.1352C84.2609 52.3479 83.8956 52.4534 83.4135 52.4534C82.9752 52.4534 82.6285 52.3649 82.3729 52.1872C82.1172 52.0094 81.95 51.7683 81.8712 51.4631Z" fill="#D9D9D9"/>
<path d="M86.5498 52.3809L85.2535 49.1633H86.1472L86.7528 50.8054L86.9289 51.3541C86.9752 51.2145 87.0044 51.1228 87.0166 51.0781C87.045 50.9872 87.075 50.8963 87.1075 50.8054L87.7195 49.1633H88.5954L87.3169 52.3809H86.5498Z" fill="#D9D9D9"/>
<path d="M91.0228 51.3568L91.8711 51.4997C91.7623 51.8106 91.5894 52.0468 91.3548 52.2099C91.1194 52.3723 90.8248 52.4535 90.4717 52.4535C89.9116 52.4535 89.4976 52.2708 89.2289 51.9047C89.0171 51.6125 88.9116 51.2432 88.9116 50.7967C88.9116 50.2634 89.0504 49.8454 89.3288 49.5435C89.608 49.2415 89.9603 49.0905 90.3864 49.0905C90.8654 49.0905 91.2428 49.2488 91.5196 49.5646C91.7964 49.8811 91.9287 50.3649 91.9165 51.0175H89.7842C89.7898 51.27 89.858 51.4664 89.9895 51.6068C90.121 51.7473 90.285 51.8171 90.4806 51.8171C90.6137 51.8171 90.7257 51.7814 90.8167 51.7083C90.9076 51.6353 90.9766 51.5184 91.0228 51.3568ZM91.0715 50.4964C91.065 50.2497 91.0017 50.063 90.88 49.9347C90.759 49.8064 90.6121 49.7423 90.4384 49.7423C90.2525 49.7423 90.0991 49.8097 89.9781 49.9453C89.8564 50.08 89.7971 50.2643 89.7988 50.4964H91.0715Z" fill="#D9D9D9"/>
<path d="M93.4688 52.3809H92.6173V49.1632H93.4079V49.6211C93.5435 49.4051 93.6652 49.2623 93.7732 49.1941C93.8812 49.1251 94.0037 49.091 94.1409 49.091C94.3349 49.091 94.5224 49.1446 94.7018 49.2509L94.438 49.9936C94.2951 49.9003 94.1612 49.854 94.0386 49.854C93.9193 49.854 93.8178 49.8873 93.735 49.953C93.6523 50.018 93.5873 50.1373 93.5402 50.3086C93.4923 50.4807 93.4688 50.8394 93.4688 51.3874V52.3809Z" fill="#D9D9D9"/>
<path d="M95.0812 52.3809V47.9392H95.9327V50.2964L96.9295 49.1633H97.9775L96.8784 50.3386L98.057 52.3809H97.1389L96.3297 50.9353L95.9327 51.3509V52.3809H95.0812Z" fill="#D9D9D9"/>
<path d="M100.469 51.3568L101.317 51.4997C101.209 51.8106 101.037 52.0468 100.801 52.2099C100.565 52.3723 100.271 52.4535 99.918 52.4535C99.3579 52.4535 98.944 52.2708 98.6753 51.9047C98.4634 51.6125 98.3571 51.2432 98.3571 50.7967C98.3571 50.2634 98.4967 49.8454 98.7759 49.5435C99.0544 49.2415 99.4066 49.0905 99.8328 49.0905C100.312 49.0905 100.689 49.2488 100.966 49.5646C101.243 49.8811 101.375 50.3649 101.363 51.0175H99.2297C99.2362 51.27 99.3052 51.4664 99.4359 51.6068C99.5674 51.7473 99.7305 51.8171 99.9269 51.8171C100.06 51.8171 100.172 51.7814 100.263 51.7083C100.354 51.6353 100.423 51.5184 100.469 51.3568ZM100.518 50.4964C100.511 50.2497 100.448 50.063 100.327 49.9347C100.206 49.8064 100.058 49.7423 99.8839 49.7423C99.6981 49.7423 99.5446 49.8097 99.4237 49.9453C99.3027 50.08 99.2435 50.2643 99.2451 50.4964H100.518Z" fill="#D9D9D9"/>
<path d="M102.949 47.9395V49.5726C103.223 49.2512 103.551 49.0905 103.933 49.0905C104.129 49.0905 104.306 49.127 104.463 49.2C104.621 49.2723 104.739 49.3656 104.82 49.4785C104.899 49.5913 104.954 49.7171 104.983 49.8543C105.012 49.9915 105.027 50.205 105.027 50.4939V52.3812H104.175V50.6814C104.175 50.3438 104.159 50.1303 104.127 50.0386C104.095 49.9485 104.038 49.8762 103.956 49.8226C103.874 49.7691 103.772 49.7423 103.648 49.7423C103.507 49.7423 103.38 49.7764 103.269 49.8446C103.159 49.9136 103.077 50.0175 103.026 50.1554C102.974 50.2942 102.949 50.4988 102.949 50.7691V52.3812H102.097V47.9395H102.949Z" fill="#D9D9D9"/>
<path d="M106.749 52.3809H105.897V49.1632H106.688V49.6211C106.823 49.4051 106.945 49.2623 107.053 49.1941C107.161 49.1251 107.284 49.091 107.422 49.091C107.615 49.091 107.801 49.1446 107.982 49.2509L107.718 49.9936C107.575 49.9003 107.441 49.854 107.318 49.854C107.199 49.854 107.098 49.8873 107.015 49.953C106.932 50.018 106.867 50.1373 106.82 50.3086C106.772 50.4807 106.749 50.8394 106.749 51.3874V52.3809Z" fill="#D9D9D9"/>
<path d="M108.092 51.4631L108.946 51.3324C108.982 51.498 109.056 51.6238 109.167 51.7099C109.279 51.7959 109.434 51.8389 109.634 51.8389C109.854 51.8389 110.02 51.7983 110.131 51.718C110.206 51.6612 110.243 51.5849 110.243 51.4899L110.182 51.33C110.14 51.2894 110.045 51.2521 109.897 51.2172C109.21 51.0662 108.775 50.9282 108.592 50.8024C108.338 50.6287 108.21 50.3876 108.21 50.0783C108.21 49.7999 108.32 49.5653 108.54 49.3754C108.761 49.1854 109.102 49.0905 109.564 49.0905C110.004 49.0905 110.331 49.1627 110.546 49.3064C110.76 49.4492 110.908 49.6611 110.988 49.9419L110.185 50.0905C110.151 49.9655 110.085 49.8689 109.99 49.8031C109.894 49.7358 109.757 49.7025 109.579 49.7025C109.356 49.7025 109.195 49.7341 109.098 49.7967L109.001 49.9695L109.085 50.1238C109.162 50.1806 109.427 50.2601 109.881 50.3632C110.334 50.4663 110.651 50.5929 110.831 50.7415C111.008 50.8933 111.098 51.1043 111.098 51.3746C111.098 51.6701 110.974 51.9234 110.727 52.1352C110.482 52.3479 110.116 52.4534 109.634 52.4534C109.195 52.4534 108.849 52.3649 108.593 52.1872C108.338 52.0094 108.171 51.7683 108.092 51.4631Z" fill="#D9D9D9"/>
<path d="M112.701 52.3809H111.849V49.1632H112.64V49.6211C112.776 49.4051 112.897 49.2623 113.005 49.1941C113.113 49.1251 113.236 49.091 113.374 49.091C113.568 49.091 113.754 49.1446 113.934 49.2509L113.67 49.9936C113.527 49.9003 113.394 49.854 113.271 49.854C113.151 49.854 113.051 49.8873 112.967 49.953C112.885 50.018 112.819 50.1373 112.772 50.3086C112.724 50.4807 112.701 50.8394 112.701 51.3874V52.3809Z" fill="#D9D9D9"/>
<path d="M114.98 50.145L114.207 50.0054C114.295 49.6945 114.444 49.464 114.656 49.3146C114.868 49.1653 115.183 49.0906 115.601 49.0906C115.981 49.0906 116.264 49.1352 116.449 49.2253C116.635 49.3154 116.767 49.4299 116.842 49.5679C116.918 49.7067 116.955 49.9607 116.955 50.3293L116.946 51.3236C116.946 51.6069 116.96 51.8147 116.987 51.9486C117.015 52.0834 117.065 52.2271 117.14 52.3813H116.298C116.275 52.3245 116.249 52.2409 116.216 52.1297L116.186 52.0298C116.041 52.171 115.885 52.2774 115.719 52.348C115.554 52.4178 115.377 52.4535 115.189 52.4535C114.858 52.4535 114.597 52.3642 114.406 52.184C114.215 52.0046 114.12 51.7774 114.12 51.5022C114.12 51.3204 114.163 51.1588 114.25 51.016C114.337 50.8739 114.458 50.7643 114.616 50.6889C114.771 50.6134 114.997 50.5468 115.292 50.4908C115.69 50.4153 115.965 50.3463 116.119 50.2814V50.1961C116.119 50.033 116.079 49.9161 115.998 49.8463C115.918 49.7773 115.765 49.7424 115.541 49.7424C115.389 49.7424 115.271 49.7716 115.186 49.8317C115.101 49.8909 115.033 49.9956 114.98 50.145ZM116.119 50.8358C116.01 50.8723 115.837 50.9161 115.601 50.9665C115.365 51.0168 115.211 51.0663 115.137 51.1142C115.027 51.1929 114.971 51.2936 114.971 51.4145C114.971 51.5338 115.016 51.6369 115.104 51.723C115.193 51.8106 115.306 51.8537 115.443 51.8537C115.597 51.8537 115.744 51.8033 115.883 51.7019C115.986 51.6256 116.054 51.5314 116.086 51.4202C116.108 51.3472 116.119 51.2092 116.119 51.0054V50.8358Z" fill="#D9D9D9"/>
<path d="M119.956 52.3809V51.8996C119.839 52.0708 119.685 52.2064 119.494 52.3046C119.303 52.4037 119.102 52.454 118.889 52.454C118.673 52.454 118.479 52.4061 118.308 52.3111C118.136 52.2161 118.012 52.083 117.935 51.9117C117.858 51.7397 117.819 51.5026 117.819 51.1991V49.1633H118.671V50.6422C118.671 51.0943 118.686 51.3711 118.718 51.4734C118.75 51.5757 118.806 51.6561 118.889 51.7161C118.972 51.7754 119.078 51.8054 119.204 51.8054C119.35 51.8054 119.48 51.7656 119.595 51.6861C119.71 51.6057 119.789 51.5067 119.832 51.389C119.874 51.2705 119.895 50.9815 119.895 50.5205V49.1633H120.746V52.3809H119.956Z" fill="#D9D9D9"/>
<path d="M121.608 49.1634H122.392V49.6025C122.674 49.2616 123.007 49.0903 123.395 49.0903C123.602 49.0903 123.78 49.1334 123.931 49.2178C124.084 49.303 124.207 49.4313 124.305 49.6025C124.446 49.4313 124.598 49.303 124.762 49.2178C124.925 49.1334 125.1 49.0903 125.286 49.0903C125.522 49.0903 125.722 49.139 125.886 49.2348C126.05 49.3306 126.171 49.4718 126.253 49.6577C126.311 49.7949 126.34 50.0173 126.34 50.3241V52.381H125.489V50.5425C125.489 50.2227 125.46 50.0173 125.401 49.924C125.322 49.803 125.201 49.7421 125.037 49.7421C124.918 49.7421 124.806 49.7787 124.701 49.8517C124.597 49.924 124.52 50.0303 124.474 50.1707C124.428 50.3112 124.404 50.5328 124.404 50.8355V52.381H123.553V50.618C123.553 50.3047 123.538 50.1025 123.507 50.0116C123.477 49.9207 123.43 49.8534 123.367 49.8087C123.303 49.7649 123.217 49.7421 123.107 49.7421C122.977 49.7421 122.858 49.777 122.753 49.8485C122.648 49.9191 122.573 50.0214 122.528 50.1545C122.482 50.2876 122.459 50.5084 122.459 50.8177V52.381H121.608V49.1634Z" fill="#D9D9D9"/>
<path d="M1.65512 42.4348L2.9352 42.3106C3.0115 42.74 3.16816 43.055 3.40356 43.2571C3.63896 43.4584 3.95715 43.559 4.35652 43.559C4.78024 43.559 5.09924 43.4689 5.31435 43.2904C5.52864 43.111 5.6366 42.9015 5.6366 42.6613C5.6366 42.5079 5.59114 42.3764 5.50104 42.2676C5.41013 42.1604 5.25266 42.0663 5.02781 41.9859C4.87359 41.9324 4.52292 41.8374 3.9742 41.7018C3.26963 41.5265 2.77448 41.3122 2.49038 41.0573C2.0902 40.6994 1.89052 40.2618 1.89052 39.7464C1.89052 39.4152 1.98468 39.1043 2.173 38.8162C2.3605 38.5264 2.63162 38.3072 2.98634 38.1554C3.33944 38.0044 3.76721 37.929 4.26804 37.929C5.08544 37.929 5.70073 38.1083 6.11389 38.4671C6.52706 38.8251 6.7446 39.304 6.76489 39.9022L5.44991 39.9599C5.39309 39.6246 5.27295 39.3844 5.08788 39.2374C4.90281 39.0913 4.62439 39.0175 4.25424 39.0175C3.87274 39.0175 3.57321 39.0962 3.35729 39.2537C3.21768 39.3535 3.14787 39.4891 3.14787 39.6579C3.14787 39.8113 3.21281 39.9436 3.3435 40.0532C3.50909 40.1928 3.91251 40.3373 4.55214 40.4883C5.19178 40.6393 5.66501 40.7959 5.97184 40.9575C6.27867 41.119 6.51813 41.3398 6.69183 41.619C6.86473 41.8999 6.95158 42.2457 6.95158 42.6572C6.95158 43.0306 6.84768 43.3796 6.6407 43.706C6.4329 44.0315 6.13987 44.2733 5.76079 44.4324C5.38172 44.5907 4.9093 44.6703 4.34353 44.6703C3.51964 44.6703 2.88731 44.4795 2.44573 44.0988C2.00416 43.7181 1.74116 43.1637 1.65512 42.4348Z" fill="#D9D9D9"/>
<path d="M8.32225 38.0404H9.57067V39.1955H8.32225V38.0404ZM8.32225 39.8351H9.57067V44.5544H8.32225V39.8351Z" fill="#D9D9D9"/>
<path d="M15.4159 44.5544H14.1674V42.146C14.1674 41.6362 14.1406 41.3067 14.0871 41.1573C14.0343 41.008 13.9475 40.8911 13.8273 40.8083C13.7072 40.7255 13.5627 40.6841 13.3939 40.6841C13.178 40.6841 12.984 40.7433 12.8119 40.8619C12.6398 40.9804 12.5221 41.137 12.4588 41.3327C12.3946 41.5283 12.363 41.8895 12.363 42.4171V44.5544H11.1146V39.835H12.2745V40.5282C12.6861 39.9949 13.2047 39.7287 13.8298 39.7287C14.1049 39.7287 14.3566 39.7782 14.5847 39.8772C14.8128 39.9771 14.9856 40.1037 15.1025 40.2571C15.2194 40.4114 15.3006 40.5867 15.3469 40.7815C15.3931 40.9771 15.4159 41.2572 15.4159 41.6216V44.5544Z" fill="#D9D9D9"/>
<path d="M16.8399 44.8654L18.266 45.0391C18.2896 45.2047 18.3448 45.3183 18.4308 45.3808C18.5493 45.4701 18.7352 45.5139 18.9909 45.5139C19.3164 45.5139 19.5607 45.4652 19.7239 45.3678C19.8335 45.3021 19.9163 45.1974 19.9723 45.0521C20.0104 44.9482 20.0299 44.7574 20.0299 44.479V43.7898C19.6573 44.2996 19.1857 44.5545 18.6175 44.5545C17.9836 44.5545 17.4811 44.2858 17.111 43.7501C16.8204 43.3264 16.6751 42.7996 16.6751 42.168C16.6751 41.3774 16.8658 40.7727 17.2465 40.3555C17.6272 39.9374 18.1005 39.7288 18.6662 39.7288C19.2499 39.7288 19.7312 39.9845 20.1103 40.4975V39.8352H21.2791V44.0699C21.2791 44.6267 21.2329 45.0431 21.1412 45.3183C21.0494 45.5943 20.9204 45.8102 20.7548 45.9677C20.5884 46.1244 20.3668 46.2469 20.09 46.3362C19.8132 46.4247 19.4625 46.4693 19.0396 46.4693C18.2393 46.4693 17.6719 46.3322 17.3374 46.0586C17.003 45.7842 16.8358 45.4368 16.8358 45.0164L16.8399 44.8654ZM17.9552 42.0974C17.9552 42.5974 18.0518 42.9643 18.2466 43.1973C18.4398 43.4294 18.6792 43.5455 18.9641 43.5455C19.2685 43.5455 19.5266 43.4262 19.7369 43.1884C19.9471 42.9497 20.0526 42.5966 20.0526 42.1283C20.0526 41.6396 19.952 41.2768 19.7507 41.0397C19.5486 40.8027 19.2937 40.6842 18.986 40.6842C18.6865 40.6842 18.4398 40.8003 18.2466 41.0324C18.0518 41.2654 17.9552 41.6201 17.9552 42.0974Z" fill="#D9D9D9"/>
<path d="M22.7871 38.0404H24.0355V44.5544H22.7871V38.0404Z" fill="#D9D9D9"/>
<path d="M28.3212 43.0524L29.5656 43.261C29.4057 43.7172 29.1524 44.0646 28.8074 44.3032C28.4625 44.5419 28.0306 44.6612 27.5128 44.6612C26.6921 44.6612 26.0849 44.3925 25.6904 43.8568C25.3796 43.4274 25.2245 42.8852 25.2245 42.2301C25.2245 41.4484 25.4283 40.8356 25.8374 40.3924C26.2465 39.95 26.7627 39.7284 27.3877 39.7284C28.0899 39.7284 28.6443 39.9605 29.0501 40.424C29.456 40.8875 29.65 41.5978 29.6321 42.5548H26.5038C26.5127 42.9249 26.6134 43.2131 26.8057 43.4193C26.9981 43.6246 27.2384 43.7277 27.5257 43.7277C27.7214 43.7277 27.8861 43.6742 28.0193 43.5678C28.1524 43.4615 28.253 43.2894 28.3212 43.0524ZM28.3927 41.7902C28.3837 41.4289 28.2904 41.1538 28.1126 40.9663C27.9348 40.7779 27.7181 40.6838 27.4632 40.6838C27.1913 40.6838 26.9657 40.7836 26.7879 40.9817C26.6101 41.1797 26.5233 41.45 26.5257 41.7902H28.3927Z" fill="#D9D9D9"/>
<path d="M33.7329 44.5543V38.0403H38.5627V39.1418H35.0479V40.5866H38.3183V41.6841H35.0479V43.4569H38.6877V44.5543H33.7329Z" fill="#D9D9D9"/>
<path d="M43.1727 44.5544V43.8482C43.0006 44.0998 42.7749 44.2979 42.4949 44.4431C42.2148 44.5884 41.9194 44.6607 41.6085 44.6607C41.2911 44.6607 41.007 44.5917 40.7554 44.4521C40.5037 44.3125 40.3211 44.1176 40.2091 43.8652C40.0963 43.6136 40.0403 43.2653 40.0403 42.8213V39.835H41.2887V42.0039C41.2887 42.6671 41.3114 43.0738 41.3577 43.2239C41.4031 43.3733 41.4867 43.4918 41.6085 43.5795C41.7303 43.6663 41.8845 43.7102 42.0704 43.7102C42.2838 43.7102 42.4754 43.6517 42.6442 43.5348C42.8131 43.4179 42.9283 43.2718 42.9909 43.0989C43.0525 42.9252 43.0842 42.5015 43.0842 41.8262V39.835H44.3326V44.5544H43.1727Z" fill="#D9D9D9"/>
<path d="M47.0938 44.5544H45.8454V39.835H47.0053V40.5063C47.2034 40.1889 47.382 39.9803 47.5403 39.8797C47.6986 39.779 47.8788 39.7287 48.0801 39.7287C48.365 39.7287 48.6385 39.8074 48.9023 39.9641L48.5159 41.0526C48.3049 40.9171 48.1101 40.8489 47.9291 40.8489C47.7546 40.8489 47.606 40.8968 47.4851 40.9934C47.3633 41.0891 47.2675 41.2637 47.1985 41.5153C47.1287 41.7669 47.0938 42.2945 47.0938 43.0965V44.5544Z" fill="#D9D9D9"/>
<path d="M49.4243 42.1282C49.4243 41.7134 49.5265 41.3124 49.7311 40.9244C49.9357 40.5356 50.2246 40.2393 50.5996 40.0356C50.9738 39.831 51.3927 39.7288 51.8546 39.7288C52.5689 39.7288 53.1541 39.9609 53.6103 40.4244C54.0657 40.8879 54.2946 41.4731 54.2946 42.1818C54.2946 42.8953 54.0641 43.487 53.603 43.9562C53.1428 44.4262 52.5632 44.6608 51.8635 44.6608C51.4308 44.6608 51.0185 44.5634 50.6264 44.3677C50.2336 44.1721 49.9357 43.8856 49.7311 43.5081C49.5265 43.1299 49.4243 42.6704 49.4243 42.1282ZM50.7044 42.1948C50.7044 42.6631 50.8147 43.0211 51.0372 43.2703C51.2596 43.5187 51.5331 43.6437 51.8594 43.6437C52.1849 43.6437 52.4585 43.5187 52.6793 43.2703C52.8992 43.0211 53.0104 42.6599 53.0104 42.1858C53.0104 41.724 52.8992 41.3684 52.6793 41.1192C52.4585 40.8708 52.1849 40.7467 51.8594 40.7467C51.5331 40.7467 51.2596 40.8708 51.0372 41.1192C50.8147 41.3684 50.7044 41.7264 50.7044 42.1948Z" fill="#D9D9D9"/>
<path d="M58.355 44.5543V38.0403H60.4654C61.2658 38.0403 61.7869 38.0728 62.0296 38.1377C62.403 38.2359 62.7155 38.4486 62.9672 38.7757C63.2188 39.1028 63.3446 39.5257 63.3446 40.0444C63.3446 40.4438 63.2724 40.7798 63.1271 41.0526C62.9818 41.3253 62.7975 41.5396 62.5743 41.6955C62.3502 41.8505 62.123 41.9536 61.8916 42.0039C61.5783 42.0656 61.1229 42.0973 60.5279 42.0973H59.6699V44.5543H58.355ZM59.6699 39.1418V40.9909H60.3899C60.9086 40.9909 61.2552 40.9568 61.4298 40.8886C61.6043 40.8204 61.7415 40.7133 61.8405 40.5688C61.9403 40.4235 61.9898 40.2547 61.9898 40.0623C61.9898 39.8253 61.92 39.6296 61.7812 39.4754C61.6416 39.3212 61.4655 39.2246 61.252 39.1864C61.0953 39.1572 60.7796 39.1418 60.3055 39.1418H59.6699Z" fill="#D9D9D9"/>
<path d="M65.6219 41.2751L64.4895 41.0705C64.6162 40.6143 64.8361 40.2767 65.147 40.0575C65.4579 39.8383 65.9198 39.7288 66.5334 39.7288C67.0895 39.7288 67.5043 39.7945 67.777 39.9268C68.0497 40.0583 68.2413 40.2255 68.3525 40.4285C68.4637 40.6314 68.5189 41.004 68.5189 41.5462L68.5059 43.0032C68.5059 43.4188 68.5262 43.724 68.566 43.9213C68.6058 44.1177 68.6804 44.3296 68.7908 44.5544H67.5554C67.5221 44.4716 67.4823 44.3483 67.4345 44.1859C67.4142 44.112 67.3995 44.0625 67.3906 44.039C67.1771 44.246 66.949 44.4018 66.7063 44.5057C66.4636 44.6096 66.2047 44.6608 65.9287 44.6608C65.4425 44.6608 65.0602 44.5293 64.7801 44.2655C64.5001 44.0016 64.3605 43.6688 64.3605 43.2654C64.3605 42.9992 64.4238 42.7613 64.5512 42.5527C64.6779 42.3441 64.8564 42.1842 65.087 42.0722C65.3159 41.9618 65.647 41.8644 66.0797 41.7816C66.6633 41.672 67.0676 41.5697 67.2924 41.4748V41.3506C67.2924 41.1103 67.234 40.9398 67.1146 40.8376C66.9961 40.7353 66.7729 40.6842 66.4442 40.6842C66.2217 40.6842 66.048 40.728 65.9238 40.8157C65.7997 40.9025 65.699 41.0559 65.6219 41.2751ZM67.2924 42.2881C67.1325 42.3417 66.88 42.405 66.5334 42.4797C66.1868 42.5535 65.9596 42.6258 65.8532 42.6972C65.6901 42.8125 65.6089 42.9594 65.6089 43.1372C65.6089 43.3117 65.6738 43.4627 65.8045 43.5901C65.9344 43.7175 66.1 43.7809 66.3021 43.7809C66.527 43.7809 66.7412 43.707 66.9458 43.5593C67.0968 43.4464 67.1966 43.3084 67.2445 43.1461C67.2762 43.0389 67.2924 42.836 67.2924 42.5373V42.2881Z" fill="#D9D9D9"/>
<path d="M69.4319 39.8354H70.7607L71.8898 43.1862L72.9913 39.8354H74.2843L72.6179 44.377L72.32 45.1985C72.2104 45.4745 72.1057 45.6847 72.0075 45.83C71.9076 45.9745 71.794 46.093 71.6649 46.1831C71.5359 46.2732 71.3776 46.3438 71.1893 46.3941C71.0009 46.4445 70.7891 46.4696 70.5512 46.4696C70.3118 46.4696 70.0764 46.4445 69.8459 46.3941L69.7338 45.4168C69.9295 45.455 70.1056 45.4745 70.2631 45.4745C70.5529 45.4745 70.768 45.3892 70.9068 45.2188C71.0464 45.0483 71.1527 44.8316 71.2274 44.5678L69.4319 39.8354Z" fill="#D9D9D9"/>
<path d="M75.2638 39.8354H76.4148V40.4799C76.8264 39.9791 77.3166 39.7291 77.8856 39.7291C78.1876 39.7291 78.4498 39.7908 78.6722 39.9149C78.8938 40.04 79.0764 40.2283 79.2185 40.4799C79.4255 40.2283 79.6495 40.04 79.8898 39.9149C80.1292 39.7908 80.3857 39.7291 80.6585 39.7291C81.0051 39.7291 81.2981 39.7989 81.5376 39.9393C81.7778 40.0805 81.9572 40.2867 82.0757 40.5595C82.161 40.7616 82.2048 41.0871 82.2048 41.5376V44.5547H80.9556V41.8574C80.9556 41.389 80.9134 41.0871 80.8273 40.9507C80.7112 40.7729 80.5335 40.6845 80.294 40.6845C80.1187 40.6845 79.9547 40.7372 79.8005 40.8444C79.6463 40.9507 79.5359 41.1074 79.4677 41.3127C79.3987 41.5189 79.3654 41.8436 79.3654 42.2884V44.5547H78.1162V41.9686C78.1162 41.5092 78.0943 41.2129 78.0496 41.0798C78.0058 40.9466 77.9368 40.8468 77.8434 40.7819C77.7501 40.7169 77.6235 40.6845 77.4635 40.6845C77.2704 40.6845 77.0975 40.7356 76.9432 40.8395C76.7898 40.9434 76.6786 41.0928 76.6129 41.2884C76.5455 41.484 76.5122 41.8087 76.5122 42.2616V44.5547H75.2638V39.8354Z" fill="#D9D9D9"/>
<path d="M86.4545 43.0524L87.6989 43.261C87.539 43.7172 87.2857 44.0646 86.9407 44.3032C86.5957 44.5419 86.1639 44.6612 85.646 44.6612C84.8246 44.6612 84.2182 44.3925 83.8237 43.8568C83.5128 43.4274 83.357 42.8852 83.357 42.2301C83.357 41.4484 83.5615 40.8356 83.9706 40.3924C84.3797 39.95 84.896 39.7284 85.521 39.7284C86.2232 39.7284 86.7776 39.9605 87.1834 40.424C87.5885 40.8875 87.7833 41.5978 87.7654 42.5548H84.6371C84.646 42.9249 84.7466 43.2131 84.939 43.4193C85.1322 43.6246 85.3717 43.7277 85.659 43.7277C85.8546 43.7277 86.0194 43.6742 86.1525 43.5678C86.2857 43.4615 86.3863 43.2894 86.4545 43.0524ZM86.5259 41.7902C86.517 41.4289 86.4236 41.1538 86.2459 40.9663C86.0681 40.7779 85.8514 40.6838 85.5965 40.6838C85.3246 40.6838 85.0989 40.7836 84.9212 40.9817C84.7434 41.1797 84.6557 41.45 84.659 41.7902H86.5259Z" fill="#D9D9D9"/>
<path d="M93.3483 44.5544H92.0999V42.146C92.0999 41.6362 92.0731 41.3067 92.0195 41.1573C91.9659 41.008 91.8799 40.8911 91.7598 40.8083C91.6396 40.7255 91.4951 40.6841 91.3263 40.6841C91.1104 40.6841 90.9164 40.7433 90.7443 40.8619C90.5722 40.9804 90.4545 41.137 90.3912 41.3327C90.3279 41.5283 90.2954 41.8895 90.2954 42.4171V44.5544H89.047V39.835H90.2069V40.5282C90.6185 39.9949 91.1372 39.7287 91.7622 39.7287C92.0374 39.7287 92.289 39.7782 92.5171 39.8772C92.7452 39.9771 92.9173 40.1037 93.035 40.2571C93.1519 40.4114 93.2338 40.5867 93.2793 40.7815C93.3256 40.9771 93.3483 41.2572 93.3483 41.6216V44.5544Z" fill="#D9D9D9"/>
<path d="M97.0517 39.8354V40.8306H96.1986V42.7324C96.1986 43.1172 96.2067 43.342 96.223 43.4053L96.3342 43.5636C96.3918 43.605 96.4616 43.6253 96.5452 43.6253C96.6605 43.6253 96.8277 43.5855 97.0469 43.506L97.1532 44.4744C96.8634 44.5986 96.5347 44.6611 96.167 44.6611C95.9421 44.6611 95.7392 44.6229 95.559 44.5482C95.378 44.4719 95.2457 44.3745 95.1613 44.2544C95.0768 44.1343 95.0176 43.9719 94.9851 43.7682C94.9583 43.6229 94.9453 43.3299 94.9453 42.8883V40.8306H94.3723V39.8354H94.9453V38.8979L96.1986 38.1689V39.8354H97.0517Z" fill="#D9D9D9"/>
<path d="M97.7514 43.208L99.0047 43.0172C99.0575 43.2599 99.1654 43.4442 99.3286 43.57C99.4917 43.6958 99.7198 43.7591 100.013 43.7591C100.336 43.7591 100.579 43.6999 100.742 43.5814C100.851 43.4986 100.907 43.3874 100.907 43.2477C100.907 43.1528 100.877 43.0748 100.817 43.0123C100.756 42.9531 100.615 42.8987 100.4 42.8484C99.3919 42.626 98.7539 42.423 98.4844 42.2396C98.111 41.9847 97.9243 41.6308 97.9243 41.177C97.9243 40.7688 98.0858 40.4246 98.4089 40.1462C98.7311 39.8677 99.232 39.7289 99.9114 39.7289C100.557 39.7289 101.036 39.8337 101.351 40.0439C101.664 40.2549 101.881 40.5658 101.999 40.9774L100.821 41.1949C100.771 41.0115 100.676 40.871 100.535 40.7728C100.394 40.6754 100.194 40.6267 99.9325 40.6267C99.6037 40.6267 99.3692 40.6722 99.2263 40.7639C99.1313 40.8288 99.0842 40.9132 99.0842 41.0171C99.0842 41.1064 99.1257 41.1819 99.2093 41.2436C99.3213 41.3264 99.7101 41.4441 100.375 41.5951C101.04 41.7461 101.504 41.9311 101.769 42.1503C102.028 42.3727 102.159 42.682 102.159 43.0789C102.159 43.5116 101.979 43.8833 101.618 44.1942C101.256 44.5051 100.721 44.6609 100.013 44.6609C99.37 44.6609 98.8618 44.5303 98.4868 44.2697C98.1118 44.0091 97.8667 43.6552 97.7514 43.208Z" fill="#D9D9D9"/>
<path d="M111.872 44.5543H110.441L109.873 43.0746H107.269L106.73 44.5543H105.336L107.873 38.0403H109.264L111.872 44.5543ZM109.451 41.9771L108.553 39.5598L107.673 41.9771H109.451Z" fill="#D9D9D9"/>
<path d="M114.029 44.5544H112.781V39.835H113.941V40.5063C114.139 40.1889 114.317 39.9803 114.476 39.8797C114.634 39.779 114.814 39.7287 115.015 39.7287C115.3 39.7287 115.574 39.8074 115.838 39.9641L115.451 41.0526C115.24 40.9171 115.045 40.8489 114.864 40.8489C114.69 40.8489 114.541 40.8968 114.42 40.9934C114.299 41.0891 114.203 41.2637 114.133 41.5153C114.064 41.7669 114.029 42.2945 114.029 43.0965V44.5544Z" fill="#D9D9D9"/>
<path d="M119.381 43.0524L120.625 43.261C120.465 43.7172 120.213 44.0646 119.868 44.3032C119.522 44.5419 119.09 44.6612 118.573 44.6612C117.752 44.6612 117.145 44.3925 116.75 43.8568C116.439 43.4274 116.284 42.8852 116.284 42.2301C116.284 41.4484 116.488 40.8356 116.897 40.3924C117.305 39.95 117.823 39.7284 118.448 39.7284C119.15 39.7284 119.704 39.9605 120.11 40.424C120.516 40.8875 120.71 41.5978 120.692 42.5548H117.564C117.573 42.9249 117.673 43.2131 117.866 43.4193C118.058 43.6246 118.298 43.7277 118.586 43.7277C118.781 43.7277 118.946 43.6742 119.079 43.5678C119.212 43.4615 119.313 43.2894 119.381 43.0524ZM119.452 41.7902C119.444 41.4289 119.35 41.1538 119.172 40.9663C118.995 40.7779 118.778 40.6838 118.523 40.6838C118.251 40.6838 118.025 40.7836 117.848 40.9817C117.67 41.1797 117.583 41.45 117.586 41.7902H119.452Z" fill="#D9D9D9"/>
<path d="M122.915 41.2751L121.783 41.0705C121.909 40.6143 122.129 40.2767 122.44 40.0575C122.751 39.8383 123.213 39.7288 123.827 39.7288C124.383 39.7288 124.798 39.7945 125.071 39.9268C125.343 40.0583 125.535 40.2255 125.646 40.4285C125.757 40.6314 125.812 41.004 125.812 41.5462L125.799 43.0032C125.799 43.4188 125.819 43.724 125.859 43.9213C125.899 44.1177 125.974 44.3296 126.084 44.5544H124.849C124.815 44.4716 124.776 44.3483 124.729 44.1859C124.707 44.112 124.693 44.0625 124.684 44.039C124.47 44.246 124.242 44.4018 124 44.5057C123.757 44.6096 123.498 44.6608 123.222 44.6608C122.736 44.6608 122.353 44.5293 122.073 44.2655C121.793 44.0016 121.653 43.6688 121.653 43.2654C121.653 42.9992 121.717 42.7613 121.844 42.5527C121.972 42.3441 122.15 42.1842 122.38 42.0722C122.609 41.9618 122.94 41.8644 123.373 41.7816C123.957 41.672 124.361 41.5697 124.586 41.4748V41.3506C124.586 41.1103 124.527 40.9398 124.408 40.8376C124.289 40.7353 124.066 40.6842 123.737 40.6842C123.516 40.6842 123.342 40.728 123.217 40.8157C123.093 40.9025 122.992 41.0559 122.915 41.2751ZM124.586 42.2881C124.426 42.3417 124.173 42.405 123.827 42.4797C123.48 42.5535 123.253 42.6258 123.146 42.6972C122.983 42.8125 122.902 42.9594 122.902 43.1372C122.902 43.3117 122.967 43.4627 123.098 43.5901C123.228 43.7175 123.393 43.7809 123.595 43.7809C123.82 43.7809 124.035 43.707 124.239 43.5593C124.391 43.4464 124.49 43.3084 124.538 43.1461C124.569 43.0389 124.586 42.836 124.586 42.5373V42.2881Z" fill="#D9D9D9"/>
<path d="M29.3365 12.4397H20.7997C20.7997 11.0387 20.6349 10.0987 20.307 9.61982C19.7988 8.912 18.397 8.55728 16.1023 8.55728C13.8733 8.55728 12.396 8.76102 11.6752 9.16931C10.9544 9.57923 10.5931 10.4697 10.5931 11.8407C10.5931 13.0818 10.913 13.9 11.5534 14.2913C12.012 14.5697 12.6184 14.7328 13.3733 14.7815L15.0949 14.9033C18.785 15.1476 21.0895 15.3205 22.0083 15.4187C24.9265 15.7126 27.0418 16.4886 28.3544 17.7459C29.3869 18.7273 30.003 20.0098 30.1994 21.5927C30.3147 22.5399 30.3715 23.6122 30.3715 24.803C30.3715 27.5483 30.1093 29.5581 29.5857 30.8317C28.6352 33.1694 26.4996 34.6459 23.1772 35.2661C21.7851 35.5283 19.656 35.6589 16.7914 35.6589C12.0104 35.6589 8.67911 35.3748 6.79755 34.8026C4.48902 34.1021 2.96624 32.6824 2.23001 30.5451C1.81928 29.3551 1.61635 27.3729 1.61635 24.5985H10.1532C10.1532 24.9077 10.154 25.1448 10.154 25.3079C10.154 26.7885 10.5793 27.7398 11.4292 28.1643C12.0177 28.4566 12.728 28.61 13.5632 28.6286H16.7021C18.3037 28.6286 19.3256 28.5467 19.7664 28.3819C20.5513 28.0734 21.0667 27.5767 21.3127 26.8891C21.4434 26.4654 21.5083 25.9183 21.5083 25.2478C21.5083 23.747 20.9604 22.8338 19.8662 22.5059C19.4563 22.3768 17.5536 22.1958 14.1558 21.9677C11.4268 21.7729 9.53142 21.5854 8.4705 21.4035C5.67575 20.8808 3.81286 19.8053 2.88344 18.1729C2.06604 16.7865 1.65775 14.6882 1.65775 11.8805C1.65775 9.7432 1.87853 8.02885 2.32011 6.73984C2.76168 5.45002 3.47356 4.47109 4.45574 3.80142C5.89492 2.77297 7.73671 2.16987 9.97786 1.98966C11.8432 1.82651 13.9123 1.74371 16.1883 1.74371C19.7712 1.74371 22.3249 1.94989 23.8469 2.35818C27.5621 3.3566 29.4193 6.15216 29.4193 10.7465C29.4193 11.1231 29.3917 11.6865 29.3365 12.4397Z" fill="#D9D9D9"/>
<path d="M66.8774 35.6593V1.56384H80.2521H82.3512H83.9738C86.3189 1.56384 88.1079 1.7546 89.3376 2.13773C92.1494 3.01844 94.0359 4.82289 95.0026 7.54864C95.501 8.9797 95.751 11.134 95.751 14.0107C95.751 17.4695 95.4742 19.9541 94.9263 21.468C93.8297 24.46 91.5731 26.1841 88.1647 26.6305C87.7637 26.6979 86.0583 26.7572 83.0476 26.8059L81.5248 26.8562H76.0539V35.6593H66.8774ZM76.0539 18.9468H81.774C83.5882 18.8819 84.6914 18.7422 85.0883 18.5239C85.6305 18.226 85.995 17.6286 86.176 16.7332C86.2921 16.1374 86.3497 15.251 86.3497 14.074C86.3497 12.6316 86.2344 11.5626 86.0031 10.8645C85.6735 9.88639 84.8829 9.2914 83.6313 9.07468C83.3829 9.04221 82.7903 9.02435 81.8512 9.02435H76.0539V18.9468Z" fill="#D9D9D9"/>
<path d="M115.339 29.7668H103.07L101.421 35.6591H91.9271L102.172 1.56366H116.014L126.384 35.6591H117.09L115.339 29.7668ZM113.516 23.1245L109.217 8.34476L105.044 23.1245H113.516Z" fill="#D9D9D9"/>
<path d="M54.2119 6.36043C57.9961 6.36043 61.3745 8.10401 63.5945 10.8346L65.5727 6.5934C62.4792 3.66959 58.2689 1.86676 53.625 1.86676C46.3942 1.86676 40.2089 6.23381 37.6707 12.4159H33.8134L31.5357 17.2983H36.4978C36.4604 17.7513 36.4361 18.2042 36.4361 18.6669C36.4361 19.2262 36.4653 19.7798 36.5205 20.3261H34.0269L31.75 25.2102H37.7892C40.3997 31.2356 46.5079 35.4654 53.625 35.4654C57.212 35.4654 60.5401 34.3907 63.2958 32.5546V26.569C61.0766 29.0959 57.8305 30.6925 54.2119 30.6925C49.982 30.6925 46.2611 28.5114 44.0946 25.2102H56.7396L59.0173 20.3261H42.2342C42.1473 19.7384 42.1011 19.1377 42.1011 18.5257C42.1011 18.1117 42.1222 17.7026 42.1627 17.2983H60.4288L62.7057 12.4159H43.7415C45.839 8.7964 49.7418 6.36043 54.2119 6.36043Z" fill="#D9D9D9"/>
<path d="M54.2119 6.50672C57.8183 6.50672 61.1967 8.11879 63.4809 10.9273L63.6286 11.1092L63.7284 10.8973L65.7058 6.65607L65.7496 6.55948L65.6741 6.48643C62.4224 3.41326 58.143 1.72083 53.625 1.72083C50.0964 1.72083 46.7018 2.75171 43.8064 4.70227C40.9792 6.60656 38.8103 9.2552 37.5359 12.36L37.6707 12.2691H33.8134H33.7192L33.6802 12.3535L31.4034 17.2368L31.306 17.4454H31.5357H36.4977L36.3516 17.2863C36.3102 17.7937 36.2899 18.2442 36.2899 18.6671C36.2899 19.215 36.3183 19.7791 36.3743 20.3408L36.5204 20.1801H34.0268H33.9343L33.8954 20.2645L31.6169 25.1478L31.5203 25.3564H31.75H37.7892L37.6544 25.268C40.3769 31.5515 46.6458 35.6117 53.625 35.6117C57.1235 35.6117 60.4946 34.5979 63.377 32.6773L63.4411 32.6343V32.5548V26.5692V26.1803L63.1854 26.4726C60.9118 29.0611 57.6414 30.545 54.2119 30.545C50.1776 30.545 46.4413 28.5197 44.2164 25.1292L44.0946 25.3564H56.7395H56.8337L56.8727 25.2728L59.1504 20.3879L59.2478 20.1801H59.0172H42.2341L42.3794 20.3051C42.2926 19.7134 42.2479 19.116 42.2479 18.5258C42.2479 18.124 42.2682 17.7166 42.3088 17.3131L42.1627 17.4454H60.4288H60.523L60.5619 17.361L62.8388 12.4777L62.937 12.2691H62.7057H43.7415L43.8681 12.4891C46.0062 8.79901 49.9706 6.50672 54.2119 6.50672ZM43.7415 12.5621H62.7057L62.5726 12.3535L60.2965 17.2368L60.4288 17.1524H42.1627H42.0304L42.0158 17.2847C41.9752 17.6971 41.9549 18.1151 41.9549 18.5258C41.9549 19.1298 42.0004 19.7434 42.0888 20.3481L42.1083 20.4731H42.2341H59.0172L58.8849 20.2645L56.608 25.1478L56.7395 25.0634H44.0946H43.8227L43.972 25.2891C46.2505 28.7649 50.0794 30.8372 54.2119 30.8372C57.725 30.8372 61.0766 29.3176 63.4062 26.6658L63.1489 26.5692V32.5548L63.2138 32.4338C60.3801 34.3211 57.065 35.3187 53.625 35.3187C46.7619 35.3187 40.5993 31.3274 37.9239 25.1511L37.8849 25.0634H37.7892H31.75L31.8839 25.2728L34.16 20.3879L34.0268 20.4731H36.5204H36.682L36.6666 20.3116C36.6114 19.7596 36.5821 19.2052 36.5821 18.6671C36.5821 18.2531 36.6024 17.8091 36.6438 17.3107L36.6568 17.1524H36.4977H31.5357L31.668 17.361L33.9457 12.4777L33.8134 12.5621H37.6707H37.7689L37.8054 12.4712C39.0595 9.41998 41.1911 6.81761 43.9704 4.94497C46.8163 3.0285 50.1557 2.01467 53.625 2.01467C58.0683 2.01467 62.2747 3.67788 65.472 6.69991L65.4395 6.53107L63.463 10.7731L63.709 10.7423C61.3672 7.86472 57.9068 6.21369 54.2119 6.21369C49.8651 6.21369 45.8057 8.56199 43.6141 12.3422L43.4866 12.5621H43.7415Z" fill="#D9D9D9"/>
</svg>
