<svg width="24" height="24" viewBox="0 0 24 24" fill="none" xmlns="http://www.w3.org/2000/svg">
<path d="M19.8736 11.8425L23.2347 5.50206L0.687317 5.50153L4.04943 11.8425H19.8736Z" fill="#122B4F"/>
<path d="M15.1596 1.54101H8.76318V4.03094H15.1596V1.54101Z" fill="#9FE320"/>
<path d="M20.9655 12.9228C20.8384 13.1633 20.5883 13.3137 20.3159 13.3137H15.4183C15.0789 14.9116 13.6587 16.1143 11.9615 16.1143C10.2644 16.1143 8.84362 14.9114 8.50367 13.3137H3.60687C3.33443 13.3137 3.08468 13.1633 2.95729 12.9228L0.199402 7.72166V23.0896H22.1096C22.9981 23.0896 23.7207 22.3664 23.7207 21.4779V7.7243L20.9655 12.9228Z" fill="#122B4F"/>
<path d="M11.9615 14.6437C12.8408 14.6437 13.5938 14.0904 13.8905 13.3137H10.0315C10.3293 14.0906 11.0817 14.6437 11.9615 14.6437Z" fill="#9FE320"/>
</svg>
