<svg width="24" height="24" viewBox="0 0 24 24" fill="none" xmlns="http://www.w3.org/2000/svg">
<path d="M10.1251 14.7695C8.62365 14.4356 7.27912 13.6826 6.21811 12.6369C4.4909 13.4843 3.63745 14.7349 3.63745 16.4595V22.3126C4.46769 22.699 6.60712 23.5685 9.58233 23.8863L8.88686 23.3301C8.66743 23.155 8.56378 22.8712 8.62101 22.5961L10.1251 14.7695Z" fill="#122B4F"/>
<path d="M11.8708 13.4714C15.5058 13.4714 18.4642 10.4925 18.4642 6.83209C18.4642 3.1717 15.5058 0.193321 11.8708 0.193321C8.2378 0.193321 5.2821 3.1717 5.2821 6.83209C5.2821 10.4925 8.23753 13.4714 11.8708 13.4714Z" fill="#122B4F"/>
<path d="M11.5983 15.0272L10.1776 22.4487L11.932 23.8515L13.6829 22.4498L12.2411 15.0272H11.5983Z" fill="#9FE320"/>
<path d="M17.5319 12.6319C16.492 13.6592 15.1762 14.4013 13.7098 14.746L15.2403 22.5943C15.298 22.8704 15.1949 23.1542 14.976 23.3304L14.3177 23.8568C16.1525 23.6379 18.1408 23.1584 20.2249 22.2852V16.4595C20.2249 14.7328 19.3342 13.4806 17.5319 12.6319Z" fill="#122B4F"/>
</svg>
