<svg width="17" height="18" viewBox="0 0 17 18" fill="none" xmlns="http://www.w3.org/2000/svg">
<path d="M8.50212 0.857422H8.49788C3.81119 0.857422 0 4.66967 0 9.35742C0 11.2168 0.59925 12.9402 1.61819 14.3395L0.558875 17.4972L3.82606 16.4528C5.17013 17.3432 6.77344 17.8574 8.50212 17.8574C13.1888 17.8574 17 14.0441 17 9.35742C17 4.67073 13.1888 0.857422 8.50212 0.857422ZM13.4481 12.8605C13.243 13.4395 12.4291 13.9198 11.7799 14.06C11.3358 14.1546 10.7557 14.23 8.80281 13.4204C6.30487 12.3855 4.69625 9.84723 4.57088 9.68255C4.45081 9.51786 3.5615 8.33848 3.5615 7.11873C3.5615 5.89898 4.18094 5.30505 4.43062 5.05005C4.63569 4.84073 4.97463 4.74511 5.29975 4.74511C5.40494 4.74511 5.4995 4.75042 5.5845 4.75467C5.83419 4.7653 5.95956 4.78017 6.12425 5.17436C6.32931 5.66842 6.82869 6.88817 6.88819 7.01355C6.94875 7.13892 7.00931 7.30892 6.92431 7.47361C6.84462 7.64361 6.7745 7.71905 6.64913 7.86355C6.52375 8.00805 6.40475 8.11855 6.27938 8.27367C6.16462 8.40861 6.035 8.55311 6.1795 8.8028C6.324 9.04717 6.82337 9.86211 7.55862 10.5166C8.50744 11.3613 9.27669 11.6312 9.55188 11.7459C9.75694 11.8309 10.0013 11.8107 10.1511 11.6514C10.3413 11.4463 10.5761 11.1063 10.8152 10.7716C10.9852 10.5315 11.1998 10.5017 11.4251 10.5867C11.6546 10.6664 12.869 11.2667 13.1187 11.391C13.3684 11.5164 13.5331 11.5759 13.5936 11.6811C13.6531 11.7863 13.6531 12.2804 13.4481 12.8605Z" fill="white"/>
</svg>
