<svg width="92" height="35" viewBox="0 0 92 35" fill="none" xmlns="http://www.w3.org/2000/svg">
<path d="M62.4542 19.878L63.3689 20.1524C63.3079 20.4116 63.2164 20.625 63.0792 20.7927C62.942 20.9603 62.7896 21.0975 62.5914 21.1738C62.3933 21.2652 62.1494 21.311 61.8445 21.311C61.4786 21.311 61.189 21.2652 60.9451 21.1585C60.7164 21.0518 60.5183 20.8689 60.3506 20.5945C60.1829 20.3353 60.0914 19.9847 60.0914 19.5731C60.0914 19.0244 60.2439 18.5975 60.5335 18.2927C60.8231 17.9878 61.25 17.8506 61.7835 17.8506C62.2103 17.8506 62.5305 17.9421 62.7744 18.1097C63.0183 18.2774 63.2012 18.5366 63.3079 18.9024L62.3933 19.1006C62.3628 18.9939 62.3323 18.9177 62.2866 18.8719C62.2256 18.7957 62.1646 18.7347 62.0731 18.689C61.9817 18.6433 61.8902 18.628 61.7987 18.628C61.5701 18.628 61.3872 18.7195 61.2652 18.9177C61.1737 19.0549 61.128 19.2835 61.128 19.5731C61.128 19.939 61.189 20.1981 61.2957 20.3353C61.4024 20.4725 61.5701 20.5488 61.7683 20.5488C61.9664 20.5488 62.1189 20.4878 62.2103 20.3811C62.3323 20.2439 62.4085 20.0914 62.4542 19.878Z" fill="#225E63"/>
<path d="M63.7347 19.573C63.7347 19.0242 63.8872 18.5974 64.1921 18.2925C64.4969 17.9876 64.9238 17.8352 65.4725 17.8352C66.0366 17.8352 66.4634 17.9876 66.7683 18.2773C67.0732 18.5822 67.2256 18.9937 67.2256 19.5425C67.2256 19.9389 67.1646 20.259 67.0274 20.5029C66.8902 20.7468 66.7073 20.945 66.4482 21.0822C66.2043 21.2194 65.8841 21.2956 65.5183 21.2956C65.1372 21.2956 64.8323 21.2346 64.5732 21.1126C64.3293 20.9907 64.1311 20.8078 63.9634 20.5334C63.7957 20.259 63.7347 19.9694 63.7347 19.573ZM64.7713 19.573C64.7713 19.9084 64.8323 20.1523 64.9543 20.3047C65.0762 20.4572 65.2439 20.5334 65.4725 20.5334C65.7012 20.5334 65.8689 20.4572 65.9908 20.32C66.1128 20.1675 66.1738 19.9084 66.1738 19.5425C66.1738 19.2224 66.1128 18.9937 65.9756 18.8565C65.8536 18.7041 65.6707 18.6431 65.4573 18.6431C65.2439 18.6431 65.0762 18.7194 64.9543 18.8718C64.8323 18.9937 64.7713 19.2376 64.7713 19.573Z" fill="#225E63"/>
<path d="M67.7591 17.8962H69.1158L69.6341 19.9389L70.1524 17.8962H71.5091V21.2499H70.6555V18.6889L70 21.2499H69.2378L68.5823 18.6889V21.2499H67.7286V17.8962H67.7591Z" fill="#225E63"/>
<path d="M72.1798 17.8962H73.9024C74.2835 17.8962 74.5579 17.9877 74.7408 18.1706C74.9237 18.3536 75.0152 18.5975 75.0152 18.9328C75.0152 19.2682 74.9085 19.5426 74.7103 19.7255C74.5121 19.9237 74.192 20.0151 73.7804 20.0151H73.2164V21.2651H72.1798V17.8962ZM73.2164 19.3292H73.4755C73.6737 19.3292 73.8109 19.2987 73.9024 19.2225C73.9786 19.1462 74.0243 19.07 74.0243 18.9633C74.0243 18.8566 73.9938 18.7651 73.9176 18.6889C73.8414 18.6127 73.7194 18.5822 73.5213 18.5822H73.2316V19.3292H73.2164Z" fill="#225E63"/>
<path d="M75.564 17.8962H76.6005V20.4267H78.2164V21.2499H75.564V17.8962Z" fill="#225E63"/>
<path d="M78.7347 17.8962H79.7713V21.2499H78.7347V17.8962Z" fill="#225E63"/>
<path d="M82.5762 20.686H81.4024L81.2347 21.2348H80.1829L81.4481 17.8811H82.5762L83.8414 21.2348H82.7591L82.5762 20.686ZM82.3627 19.9695L81.9969 18.7652L81.631 19.9695H82.3627Z" fill="#225E63"/>
<path d="M84.1615 17.8962H85.1219L86.3871 19.756V17.8962H87.3627V21.2499H86.3871L85.1371 19.4054V21.2499H84.1615V17.8962Z" fill="#225E63"/>
<path d="M87.8201 17.8962H90.9755V18.7194H89.9237V21.2499H88.8871V18.7194H87.8353V17.8962H87.8201Z" fill="#225E63"/>
<path d="M49.9848 23.003L52.9878 22.0579L52.0122 19.8933C51.2957 20.7927 50.5793 21.9512 49.9848 23.003ZM48.9634 13.1098L43.0793 0L0 2.43902L11.936 35L34.9085 27.7591C33.4451 25.6555 32.9116 23.1555 34.6037 21.936C36.4939 20.564 39.3445 22.1494 41.1585 24.3902C42.9116 21.4634 47.8354 14.6494 48.9634 13.1098Z" fill="#225E63"/>
<path d="M41.7372 9.47397C43.536 9.47397 44.9994 8.10201 44.9994 6.3947C44.9994 4.68738 43.536 3.31543 41.7372 3.31543C39.9384 3.31543 38.475 4.68738 38.475 6.3947C38.475 8.08677 39.9384 9.47397 41.7372 9.47397ZM39.0695 10.8002H44.4049V24.7484H39.0695V10.8002Z" fill="#FEFEFE"/>
<path d="M36.4322 14.8703C36.478 14.8855 36.5085 14.8703 36.5085 14.8246V11.288C36.5085 11.2423 36.478 11.1965 36.4322 11.166C36.4322 11.166 35.731 10.7087 33.5969 10.5868C33.4902 10.5258 31.6152 10.5105 31.1121 10.5868C23.3377 11.2118 23.0481 16.8368 23.0481 17.0807V18.4526C23.0481 18.6203 23.0481 24.3673 31.1121 24.8703C31.9048 24.9313 33.4444 24.8703 33.5969 24.8703C35.4566 24.8703 36.7371 24.3063 36.7371 24.3063C36.7829 24.291 36.8133 24.2453 36.8133 24.1996V20.8916C36.8133 20.8459 36.7829 20.8307 36.7524 20.8612C36.7524 20.8612 36.1731 21.3185 33.6426 21.5776C32.9261 21.6538 32.5755 21.6234 32.3164 21.5776C28.7188 20.9679 28.5511 18.3459 28.5511 18.3459C28.5511 18.3002 28.5359 18.224 28.5359 18.1935V17.1874C28.5359 17.1416 28.5359 17.0654 28.5511 17.0349C28.5511 17.0349 28.795 14.2148 32.3164 13.9099H33.6426C35.1822 14.1081 36.4322 14.8703 36.4322 14.8703Z" fill="#FEFEFE"/>
<path d="M8.23108 24.7027C8.23108 24.7485 8.26157 24.7789 8.3073 24.7789H13.5055C13.5512 24.7789 13.5817 24.7485 13.5817 24.7027V20.6478C13.5817 20.6021 13.6122 20.5716 13.6579 20.5716C13.6579 20.5716 21.9658 21.1661 21.9658 15.6021C21.9658 11.1966 16.7524 10.7241 15.0451 10.8003C15.0146 10.8003 8.3073 10.8003 8.3073 10.8003C8.26157 10.8003 8.23108 10.8308 8.23108 10.8765V24.7027ZM13.4902 17.4771V13.8338H14.7707C14.7707 13.8338 16.6152 13.91 16.7677 15.1753C16.7982 15.2667 16.7982 15.8917 16.7677 15.9222C16.5238 17.4009 14.9232 17.4771 14.9232 17.4771H13.4902Z" fill="#FEFEFE"/>
<path d="M41.8902 31.4785C42.317 31.4785 42.6524 31.4785 43.2012 31.2346C45.0914 30.2438 51.4786 14.6493 58.2164 9.84742C58.2621 9.81693 58.3079 9.7712 58.3383 9.72547C58.3841 9.6645 58.3841 9.60352 58.3841 9.60352C58.3841 9.60352 58.3841 9.2834 57.3932 9.2834C51.4024 9.11572 45.1676 21.6919 41.8902 26.6614C41.8444 26.7224 41.631 26.6614 41.631 26.6614C41.631 26.6614 39.4359 24.07 37.5304 23.0791C37.4847 23.0639 37.2713 22.9877 37.0426 23.0029C36.8902 23.0029 36.006 23.1858 35.5944 23.6127C35.1066 24.131 35.1219 24.4206 35.1219 25.0456C35.1219 25.0913 35.1524 25.3047 35.2133 25.4114C35.6859 26.2346 37.8048 29.1614 39.5579 30.7773C39.817 30.9755 40.2286 31.4785 41.8902 31.4785Z" fill="#2BBC5D"/>
<path d="M59.9847 5.13721H64.9695C65.9604 5.13721 66.753 5.2744 67.3475 5.53355C67.9573 5.80794 68.4604 6.18904 68.8415 6.67684C69.2378 7.17989 69.5274 7.75916 69.6951 8.41465C69.878 9.07013 69.9695 9.77135 69.9695 10.5183C69.9695 11.6768 69.8323 12.5762 69.5732 13.2165C69.314 13.8567 68.9482 14.3903 68.4756 14.8323C68.003 15.2592 67.5 15.5488 66.9665 15.7012C66.2347 15.8994 65.564 15.9909 64.9695 15.9909H59.9847V5.13721ZM63.3384 7.59148V13.5214H64.1616C64.8628 13.5214 65.3658 13.4451 65.6555 13.2927C65.9451 13.1403 66.189 12.8659 66.3567 12.4848C66.5244 12.1037 66.6158 11.4634 66.6158 10.5945C66.6158 9.43599 66.4329 8.65855 66.0518 8.23172C65.6707 7.80489 65.061 7.59148 64.1768 7.59148H63.3384Z" fill="#225E63"/>
<path d="M70.8994 12.4085L74.1006 12.2103C74.1769 12.7286 74.3141 13.1249 74.5275 13.3993C74.8781 13.8414 75.3659 14.0548 76.0061 14.0548C76.4787 14.0548 76.8598 13.9481 77.1189 13.7195C77.3781 13.4908 77.5153 13.2317 77.5153 12.942C77.5153 12.6676 77.3933 12.4085 77.1494 12.1798C76.9055 11.9512 76.3262 11.753 75.4269 11.5548C73.9482 11.2195 72.9116 10.7774 72.2714 10.2286C71.6311 9.67982 71.3262 8.9786 71.3262 8.12494C71.3262 7.56092 71.4939 7.04263 71.814 6.53958C72.1342 6.03653 72.622 5.65543 73.2775 5.36579C73.933 5.07616 74.8171 4.93896 75.9451 4.93896C77.3323 4.93896 78.3994 5.19811 79.1159 5.7164C79.8476 6.2347 80.2744 7.05787 80.4116 8.18592L77.2409 8.36885C77.1494 7.88104 76.9817 7.53043 76.7073 7.30177C76.433 7.07311 76.0671 6.9664 75.5945 6.9664C75.1982 6.9664 74.9086 7.04262 74.7104 7.21031C74.5122 7.37799 74.4208 7.57616 74.4208 7.82006C74.4208 7.98775 74.497 8.15543 74.6647 8.29263C74.8171 8.42982 75.1982 8.56701 75.7927 8.68896C77.2561 9.00909 78.308 9.32921 78.9482 9.64933C79.5884 9.96945 80.0458 10.381 80.3354 10.8536C80.625 11.3262 80.7622 11.8749 80.7622 12.4695C80.7622 13.1707 80.564 13.8109 80.183 14.3902C79.8019 14.9847 79.2531 15.4268 78.5671 15.7316C77.8811 16.0365 76.997 16.189 75.9451 16.189C74.1006 16.189 72.8201 15.8384 72.1037 15.1219C71.4025 14.4054 71.0061 13.506 70.8994 12.4085Z" fill="#225E63"/>
<path d="M81.6158 12.4085L84.8171 12.2103C84.8933 12.7286 85.0305 13.1249 85.2439 13.3993C85.5945 13.8414 86.0823 14.0548 86.7226 14.0548C87.1951 14.0548 87.5762 13.9481 87.8354 13.7195C88.0945 13.4908 88.2317 13.2317 88.2317 12.942C88.2317 12.6676 88.1097 12.4085 87.8658 12.1798C87.6219 11.9512 87.0427 11.753 86.1433 11.5548C84.6646 11.2195 83.628 10.7774 82.9878 10.2286C82.3628 9.67982 82.0427 8.9786 82.0427 8.12494C82.0427 7.56092 82.2104 7.04263 82.5305 6.53958C82.8506 6.03653 83.3384 5.65543 83.9939 5.36579C84.6494 5.07616 85.5335 4.93896 86.6616 4.93896C88.0488 4.93896 89.1158 5.19811 89.8323 5.7164C90.564 6.2347 90.9908 7.05787 91.128 8.18592L87.9573 8.36885C87.8658 7.88104 87.6982 7.53043 87.4238 7.30177C87.1494 7.07311 86.7835 6.9664 86.311 6.9664C85.9146 6.9664 85.625 7.04262 85.4268 7.21031C85.2287 7.37799 85.1372 7.57616 85.1372 7.82006C85.1372 7.98775 85.2134 8.15543 85.3811 8.29263C85.5335 8.42982 85.9146 8.56701 86.5091 8.68896C87.9725 9.00909 89.0244 9.32921 89.6646 9.64933C90.3049 9.96945 90.7622 10.381 91.0518 10.8536C91.3414 11.3262 91.4787 11.8749 91.4787 12.4695C91.4787 13.1707 91.2805 13.8109 90.8994 14.3902C90.5183 14.9847 89.9695 15.4268 89.2835 15.7316C88.5976 16.0365 87.7134 16.189 86.6616 16.189C84.8171 16.189 83.5366 15.8384 82.8201 15.1219C82.1036 14.4054 81.7073 13.506 81.6158 12.4085Z" fill="#225E63"/>
</svg>
