<svg width="57" height="56" viewBox="0 0 57 56" fill="none" xmlns="http://www.w3.org/2000/svg">
<path d="M10.9488 20.8738C9.07768 20.9139 7.45312 22.2915 7.46427 24.4911C7.47073 25.7683 8.45713 26.7778 9.42224 27.8429C10.912 29.4867 11.3492 29.1967 11.2807 30.8628C11.2555 31.4726 10.2438 32.4251 9.15675 32.4225C7.54624 32.4196 6.42055 30.8736 6.86692 29.0044H6.40232L5.17444 33.4513H5.63904C5.77482 32.9948 6.6926 33.0358 7.06604 33.0199C7.76944 32.9902 8.17088 33.5564 9.62136 33.5509C11.6059 33.5435 13.5562 32.2454 13.5373 29.834C13.5276 28.5828 12.7597 27.7326 11.7453 26.7477C10.1847 25.2333 9.57639 24.5092 9.85366 23.2964C10.083 22.2928 10.8 22.0116 11.513 22.0022C12.8485 21.9851 13.4233 23.3931 13.6037 24.8561H14.0351L15.1302 21.1393H14.6656C14.5637 21.5784 14.0268 21.6005 13.6037 21.5707C13.4131 21.5571 13.3055 21.5954 12.8404 21.438C12.3446 21.2699 11.5628 20.8609 10.9488 20.8738ZM15.628 21.3716L15.4953 22.1017C16.2284 22.1049 16.493 22.0885 16.4909 23.4623V33.4513C16.4909 33.4513 16.6842 33.8897 16.9555 33.4513C17.2269 33.0126 21.6347 25.719 21.6347 25.719V25.9513L21.6015 33.4513C21.6015 33.4513 21.8821 33.8897 22.1656 33.4513C22.4492 33.0126 28.5374 22.9645 28.5374 22.9645C28.8149 22.466 29.0259 22.1188 29.732 22.1017L29.898 21.3716H26.148L26.0152 22.1017C26.8362 22.1033 27.3828 21.974 27.409 22.4668C27.42 22.6734 27.3826 22.8393 27.2431 23.0973L24.1568 28.1416L24.0904 28.042V23.4623C24.0934 23.2564 24.0945 23.0534 24.0904 22.8982C24.0701 22.1205 24.2837 22.1033 24.8869 22.1017L25.0196 21.3716H20.8382L20.7055 22.1017C21.3351 22.1188 21.6104 22.3014 21.6015 22.865V23.8938L18.9134 28.2411L18.8139 28.3075V23.4292C18.814 23.2575 18.8155 22.9881 18.8139 22.7986C18.8113 22.5329 18.7532 22.1033 19.5108 22.1017L19.7099 21.3716H15.628ZM30.4621 21.3716L30.3294 22.1017C30.6721 22.0839 31.022 22.2134 31.0595 22.5995C31.0757 22.7676 30.9763 23.0144 30.8936 23.3296L28.6037 31.8584C28.4686 32.4249 27.7871 32.7283 26.8781 32.7212L26.7453 33.4513H31.6236L31.7896 32.7212C30.9279 32.7038 30.9821 32.4652 30.9931 32.1571C30.9999 31.9644 31.0931 31.7873 31.159 31.5597L33.4821 22.9977C33.721 22.1969 34.297 22.1195 35.1745 22.1017L35.3405 21.3716H30.4621ZM36.0042 21.3716L35.8383 22.1017C36.5651 22.1567 37.5968 22.1487 37.3316 22.9977C37.2738 23.1833 37.3374 23.0982 37.2653 23.396L35.0418 31.6925C34.8688 32.4626 34.3301 32.7037 33.6812 32.7212L33.4821 33.4513H38.6591L38.8582 32.7212C37.7259 32.7183 37.268 32.5667 37.4976 31.6925C37.5464 31.5062 37.6391 31.1763 37.6967 30.896L38.7586 27.2455H38.9909C40.0029 27.2417 40.2886 27.3677 40.3184 27.9093C40.3371 28.2572 40.3276 28.5394 40.3516 28.7389H40.9157L41.7786 25.188L41.3139 25.1216C40.8354 26.3448 39.8147 26.3621 39.4555 26.3495H38.9909L39.721 23.4292C40.0385 22.3502 40.1415 22.4101 40.9489 22.4004C42.3554 22.3836 43.1902 22.6141 43.0728 24.5907H43.5374L44.4002 21.3716H36.0042ZM45.064 21.3716L44.1679 24.5907H44.6989C44.9582 23.6915 44.9651 23.5403 45.4954 23.0641C46.0399 22.5882 46.625 22.4004 47.5529 22.4004L45.1303 31.261C44.9625 32.7083 44.1298 32.7034 43.0728 32.7212L42.9069 33.4513H48.3826L48.5153 32.7876C47.8146 32.8526 47.3833 32.3919 47.5197 31.8584C47.5721 31.6531 47.6686 31.3483 47.752 30.9956L50.0087 22.4004C51.7275 22.3994 52.072 23.0894 51.9666 24.5907H52.4644L53.3273 21.3716H45.064ZM24.3227 32.0907C24.0351 32.0897 23.7327 32.4487 23.659 32.8872C23.5851 33.3256 23.7696 33.6826 24.0572 33.6836C24.3445 33.6849 24.6471 33.3256 24.721 32.8872C24.7948 32.449 24.61 32.092 24.3227 32.0907ZM32.8183 32.0907C32.5309 32.0897 32.2283 32.4487 32.1546 32.8872C32.0806 33.3256 32.2654 33.6826 32.5529 33.6836C32.8403 33.6849 33.1428 33.3256 33.2166 32.8872C33.2906 32.449 33.1058 32.092 32.8183 32.0907ZM40.1193 32.0907C39.8318 32.0897 39.5292 32.4487 39.4555 32.8872C39.3815 33.3256 39.5331 33.6826 39.8206 33.6836C40.108 33.6849 40.4106 33.3256 40.4843 32.8872C40.5583 32.449 40.4067 32.092 40.1193 32.0907ZM13.9687 32.1239C13.6815 32.1226 13.4119 32.4819 13.3382 32.9203C13.2643 33.3588 13.416 33.7155 13.7032 33.7168C13.9907 33.7181 14.2932 33.3588 14.3669 32.9203C14.4409 32.4819 14.2562 32.1251 13.9687 32.1239ZM49.8759 32.1239C49.5885 32.1229 49.2859 32.4819 49.2122 32.9203C49.1382 33.3588 49.323 33.7158 49.6104 33.7168C49.8979 33.7181 50.2004 33.3588 50.2742 32.9203C50.3482 32.4822 50.1633 32.1252 49.8759 32.1239Z" fill="#3C60A7" stroke="#3C60A7" stroke-width="0.165545"/>
<path d="M3.48746 18.9797H54.0198M3.48746 36.5275H54.0198M8.86767 45.6325H48.5982M8.86767 9.87477H48.5982M28.6916 18.9797V1.01813M28.6916 36.5275V54.4477M29.4264 1.0488C29.4264 1.0488 40.311 6.92564 42.4631 18.9276M28.0146 1.05822C28.0146 1.05822 16.9202 6.85678 14.6772 18.8423M27.9705 54.3653C27.9705 54.3653 17.0031 48.5489 14.851 36.5469M29.5166 54.3666C29.5166 54.3666 40.4458 48.6281 42.6884 36.6426M28.733 0.999692C13.969 0.999692 2 12.9687 2 27.7329C2 42.4968 13.969 54.4658 28.733 54.4658C43.4971 54.4658 55.4664 42.4968 55.4664 27.7329C55.4664 12.9687 43.4971 0.999692 28.733 0.999692Z" stroke="#3C60A7" stroke-width="1.4899"/>
</svg>
