<svg width="524" height="1066" viewBox="0 0 524 1066" fill="none" xmlns="http://www.w3.org/2000/svg">
<path d="M408.707 1064.42L403.19 1065.86C358.068 893.302 301.91 678.542 202.936 651.382C164.289 640.787 120.217 659.604 71.9171 707.34L67.9063 703.273C163.02 609.305 208.382 562.746 200.222 531.542C192.064 500.344 129.718 481.95 0.781112 446.568L2.28935 441.066C73.5018 460.608 122.333 456.052 151.577 427.17C218.808 360.738 169.014 170.311 125.081 2.29868L130.598 0.856034C174.531 168.869 224.325 359.295 315.468 384.306C355.118 395.189 399.929 375.259 452.449 323.346L456.458 327.406C361.344 421.374 315.983 467.933 324.14 499.13C332.3 530.335 394.646 548.73 523.583 584.111L522.075 589.614C456.591 571.631 408.937 576.814 380.434 604.952C307.427 677.099 363.585 891.859 408.707 1064.42ZM156.465 646.149C173.148 641.787 189.164 641.693 204.444 645.879C274.479 665.093 323.111 772.902 361.426 894.876C335.131 769.759 324.765 651.944 376.429 600.907C397.007 580.57 426.723 571.527 465.123 573.785C370.245 546.811 326.219 529.622 318.625 500.58C311.145 471.973 340.127 436.078 407.473 368.131C373.464 390.573 342.587 397.672 313.96 389.809C250.096 372.282 206.44 278.544 171.149 167.207C194.876 281.568 202.694 384.678 155.584 431.222C134.482 452.081 104.076 461.007 63.4367 458.092C155.416 484.378 198.258 501.491 205.739 530.099C213.333 559.141 183.361 595.695 113.827 665.645C128.465 656.253 142.694 649.75 156.465 646.149Z" fill="white"/>
</svg>
