<svg width="342" height="102" viewBox="0 0 342 102" fill="none" xmlns="http://www.w3.org/2000/svg">
<g clip-path="url(#clip0_32_11020)">
<rect width="342" height="102" rx="8" fill="#F8FAFB"/>
<g clip-path="url(#clip1_32_11020)">
<path d="M170.626 104.88L164.137 57.116L116.373 50.626L164.137 44.137L170.626 -3.62695L177.116 44.137L224.88 50.626L177.116 57.116L170.626 104.88ZM121.943 50.626L164.803 56.45L170.626 99.309L176.45 56.45L219.309 50.626L176.45 44.803L170.626 1.94405L164.803 44.803L121.943 50.626Z" fill="white"/>
<path d="M112 109.253L156.601 50.626L112 -8L170.626 36.601L229.253 -8L184.652 50.626L229.252 109.253L170.626 64.652L112 109.253ZM170.626 63.71L225.314 105.314L183.71 50.626L225.314 -4.061L170.626 37.543L115.939 -4.061L157.543 50.626L115.939 105.314L170.626 63.71Z" fill="white"/>
</g>
<path d="M206.644 53.7575C207.141 47.4433 205.945 41.1109 203.179 35.4131C198.6 39.7632 193.188 43.1409 187.269 45.3425C187.745 51.1847 187.481 57.0636 186.484 62.8398C193.687 61.0257 200.513 57.9508 206.644 53.7575ZM180.658 64.0168C181.829 58.4178 182.239 52.6864 181.875 46.9778C178.385 47.8101 174.744 48.2501 171 48.2501C167.256 48.2501 163.615 47.8101 160.125 46.9778C159.77 52.6863 160.179 58.4167 161.342 64.0168C167.743 64.998 174.257 64.998 180.658 64.0168ZM162.831 69.7698C168.258 70.4119 173.742 70.4119 179.169 69.7698C177.304 75.7742 174.55 81.4657 171 86.6548C167.45 81.4657 164.696 75.7743 162.831 69.7698ZM155.516 62.8435C154.513 57.0654 154.25 51.1834 154.731 45.3388C148.81 43.1378 143.397 39.7601 138.818 35.4095C136.052 41.1087 134.858 47.4424 135.356 53.7575C141.488 57.9508 148.313 61.0293 155.516 62.8435ZM205.305 61.0908C203.454 67.3642 199.92 73.0107 195.086 77.4172C190.252 81.8238 184.304 84.822 177.886 86.0865C181.1 80.6827 183.553 74.8614 185.175 68.7871C192.25 67.3043 199.045 64.7078 205.305 61.0945V61.0908ZM136.695 61.0908C142.862 64.6511 149.638 67.2801 156.825 68.7871C158.447 74.8614 160.9 80.6827 164.114 86.0865C157.697 84.8223 151.749 81.8246 146.915 77.4188C142.081 73.0129 138.547 67.3672 136.695 61.0945V61.0908ZM177.886 15.9101C186.971 17.6958 195.01 22.9348 200.311 30.5255C196.398 34.4795 191.726 37.6024 186.576 39.7068C185.188 31.3021 182.241 23.2311 177.886 15.9101ZM171 15.3455C176.351 23.1632 179.867 32.0888 181.285 41.4558C177.996 42.2991 174.549 42.7501 171 42.7501C167.451 42.7501 164.004 42.3028 160.715 41.4558C162.133 32.0888 165.649 23.1631 171 15.3455ZM164.114 15.9101C159.759 23.2311 156.812 31.3021 155.424 39.7068C150.274 37.6025 145.602 34.4796 141.689 30.5255C146.991 22.9359 155.029 17.6945 164.114 15.9101Z" fill="#9FE320"/>
<rect x="84" y="31" width="174" height="40" rx="8" fill="white"/>
<path d="M96.226 45.976H95.218V56H96.226V45.976ZM98.6633 56H102.541C104.445 56 105.649 54.978 105.649 53.368C105.649 52.136 105.061 51.324 103.899 50.946C104.935 50.54 105.453 49.742 105.453 48.566C105.453 46.956 104.263 45.976 102.331 45.976H98.6633V56ZM102.317 46.872C103.661 46.872 104.417 47.53 104.417 48.65C104.417 49.84 103.703 50.54 102.443 50.54H99.6713V46.872H102.317ZM102.541 51.422C103.843 51.422 104.627 52.108 104.627 53.242C104.627 54.404 103.857 55.09 102.541 55.09H99.6713V51.422H102.541ZM107.331 56L108.311 53.34H112.931L113.911 56H114.961L111.237 45.976H109.991L106.309 56H107.331ZM110.481 47.39C110.537 47.25 110.593 47.068 110.607 46.984C110.621 47.082 110.691 47.25 110.733 47.39L112.609 52.458H108.619L110.481 47.39ZM117.363 56V47.656L122.893 56H123.887V45.976H122.893V54.32L117.377 45.976H116.355V56H117.363ZM130.288 48.034C130.694 48.188 131.044 48.272 131.464 48.328C131.212 48.566 130.96 48.818 130.666 49.252L130.148 50.008L130.694 50.386L131.24 49.644C131.548 49.21 131.702 48.902 131.8 48.58C131.926 48.888 132.094 49.224 132.388 49.644L132.92 50.386L133.466 50.008L132.948 49.252C132.64 48.818 132.444 48.58 132.164 48.328C132.486 48.286 132.864 48.202 133.34 48.034L134.236 47.726L133.97 47.096L133.116 47.404C132.626 47.572 132.332 47.74 132.024 47.922C132.094 47.586 132.15 47.222 132.15 46.718V45.78H131.492V46.718C131.492 47.222 131.534 47.572 131.618 47.922C131.31 47.726 131.002 47.572 130.498 47.404L129.644 47.11L129.406 47.726L130.288 48.034ZM135.934 48.034C136.34 48.188 136.69 48.272 137.11 48.328C136.858 48.566 136.606 48.818 136.312 49.252L135.794 50.008L136.34 50.386L136.886 49.644C137.194 49.21 137.348 48.902 137.446 48.58C137.572 48.888 137.74 49.224 138.034 49.644L138.566 50.386L139.112 50.008L138.594 49.252C138.286 48.818 138.09 48.58 137.81 48.328C138.132 48.286 138.51 48.202 138.986 48.034L139.882 47.726L139.616 47.096L138.762 47.404C138.272 47.572 137.978 47.74 137.67 47.922C137.74 47.586 137.796 47.222 137.796 46.718V45.78H137.138V46.718C137.138 47.222 137.18 47.572 137.264 47.922C136.956 47.726 136.648 47.572 136.144 47.404L135.29 47.11L135.052 47.726L135.934 48.034ZM141.581 48.034C141.987 48.188 142.337 48.272 142.757 48.328C142.505 48.566 142.253 48.818 141.959 49.252L141.441 50.008L141.987 50.386L142.533 49.644C142.841 49.21 142.995 48.902 143.093 48.58C143.219 48.888 143.387 49.224 143.681 49.644L144.213 50.386L144.759 50.008L144.241 49.252C143.933 48.818 143.737 48.58 143.457 48.328C143.779 48.286 144.157 48.202 144.633 48.034L145.529 47.726L145.263 47.096L144.409 47.404C143.919 47.572 143.625 47.74 143.317 47.922C143.387 47.586 143.443 47.222 143.443 46.718V45.78H142.785V46.718C142.785 47.222 142.827 47.572 142.911 47.922C142.603 47.726 142.295 47.572 141.791 47.404L140.937 47.11L140.699 47.726L141.581 48.034ZM147.227 48.034C147.633 48.188 147.983 48.272 148.403 48.328C148.151 48.566 147.899 48.818 147.605 49.252L147.087 50.008L147.633 50.386L148.179 49.644C148.487 49.21 148.641 48.902 148.739 48.58C148.865 48.888 149.033 49.224 149.327 49.644L149.859 50.386L150.405 50.008L149.887 49.252C149.579 48.818 149.383 48.58 149.103 48.328C149.425 48.286 149.803 48.202 150.279 48.034L151.175 47.726L150.909 47.096L150.055 47.404C149.565 47.572 149.271 47.74 148.963 47.922C149.033 47.586 149.089 47.222 149.089 46.718V45.78H148.431V46.718C148.431 47.222 148.473 47.572 148.557 47.922C148.249 47.726 147.941 47.572 147.437 47.404L146.583 47.11L146.345 47.726L147.227 48.034ZM152.874 48.034C153.28 48.188 153.63 48.272 154.05 48.328C153.798 48.566 153.546 48.818 153.252 49.252L152.734 50.008L153.28 50.386L153.826 49.644C154.134 49.21 154.288 48.902 154.386 48.58C154.512 48.888 154.68 49.224 154.974 49.644L155.506 50.386L156.052 50.008L155.534 49.252C155.226 48.818 155.03 48.58 154.75 48.328C155.072 48.286 155.45 48.202 155.926 48.034L156.822 47.726L156.556 47.096L155.702 47.404C155.212 47.572 154.918 47.74 154.61 47.922C154.68 47.586 154.736 47.222 154.736 46.718V45.78H154.078V46.718C154.078 47.222 154.12 47.572 154.204 47.922C153.896 47.726 153.588 47.572 153.084 47.404L152.23 47.11L151.992 47.726L152.874 48.034ZM158.52 48.034C158.926 48.188 159.276 48.272 159.696 48.328C159.444 48.566 159.192 48.818 158.898 49.252L158.38 50.008L158.926 50.386L159.472 49.644C159.78 49.21 159.934 48.902 160.032 48.58C160.158 48.888 160.326 49.224 160.62 49.644L161.152 50.386L161.698 50.008L161.18 49.252C160.872 48.818 160.676 48.58 160.396 48.328C160.718 48.286 161.096 48.202 161.572 48.034L162.468 47.726L162.202 47.096L161.348 47.404C160.858 47.572 160.564 47.74 160.256 47.922C160.326 47.586 160.382 47.222 160.382 46.718V45.78H159.724V46.718C159.724 47.222 159.766 47.572 159.85 47.922C159.542 47.726 159.234 47.572 158.73 47.404L157.876 47.11L157.638 47.726L158.52 48.034ZM164.167 48.034C164.573 48.188 164.923 48.272 165.343 48.328C165.091 48.566 164.839 48.818 164.545 49.252L164.027 50.008L164.573 50.386L165.119 49.644C165.427 49.21 165.581 48.902 165.679 48.58C165.805 48.888 165.973 49.224 166.267 49.644L166.799 50.386L167.345 50.008L166.827 49.252C166.519 48.818 166.323 48.58 166.043 48.328C166.365 48.286 166.743 48.202 167.219 48.034L168.115 47.726L167.849 47.096L166.995 47.404C166.505 47.572 166.211 47.74 165.903 47.922C165.973 47.586 166.029 47.222 166.029 46.718V45.78H165.371V46.718C165.371 47.222 165.413 47.572 165.497 47.922C165.189 47.726 164.881 47.572 164.377 47.404L163.523 47.11L163.285 47.726L164.167 48.034ZM169.813 48.034C170.219 48.188 170.569 48.272 170.989 48.328C170.737 48.566 170.485 48.818 170.191 49.252L169.673 50.008L170.219 50.386L170.765 49.644C171.073 49.21 171.227 48.902 171.325 48.58C171.451 48.888 171.619 49.224 171.913 49.644L172.445 50.386L172.991 50.008L172.473 49.252C172.165 48.818 171.969 48.58 171.689 48.328C172.011 48.286 172.389 48.202 172.865 48.034L173.761 47.726L173.495 47.096L172.641 47.404C172.151 47.572 171.857 47.74 171.549 47.922C171.619 47.586 171.675 47.222 171.675 46.718V45.78H171.017V46.718C171.017 47.222 171.059 47.572 171.143 47.922C170.835 47.726 170.527 47.572 170.023 47.404L169.169 47.11L168.931 47.726L169.813 48.034ZM175.46 48.034C175.866 48.188 176.216 48.272 176.636 48.328C176.384 48.566 176.132 48.818 175.838 49.252L175.32 50.008L175.866 50.386L176.412 49.644C176.72 49.21 176.874 48.902 176.972 48.58C177.098 48.888 177.266 49.224 177.56 49.644L178.092 50.386L178.638 50.008L178.12 49.252C177.812 48.818 177.616 48.58 177.336 48.328C177.658 48.286 178.036 48.202 178.512 48.034L179.408 47.726L179.142 47.096L178.288 47.404C177.798 47.572 177.504 47.74 177.196 47.922C177.266 47.586 177.322 47.222 177.322 46.718V45.78H176.664V46.718C176.664 47.222 176.706 47.572 176.79 47.922C176.482 47.726 176.174 47.572 175.67 47.404L174.816 47.11L174.578 47.726L175.46 48.034ZM181.106 48.034C181.512 48.188 181.862 48.272 182.282 48.328C182.03 48.566 181.778 48.818 181.484 49.252L180.966 50.008L181.512 50.386L182.058 49.644C182.366 49.21 182.52 48.902 182.618 48.58C182.744 48.888 182.912 49.224 183.206 49.644L183.738 50.386L184.284 50.008L183.766 49.252C183.458 48.818 183.262 48.58 182.982 48.328C183.304 48.286 183.682 48.202 184.158 48.034L185.054 47.726L184.788 47.096L183.934 47.404C183.444 47.572 183.15 47.74 182.842 47.922C182.912 47.586 182.968 47.222 182.968 46.718V45.78H182.31V46.718C182.31 47.222 182.352 47.572 182.436 47.922C182.128 47.726 181.82 47.572 181.316 47.404L180.462 47.11L180.224 47.726L181.106 48.034ZM186.753 48.034C187.159 48.188 187.509 48.272 187.929 48.328C187.677 48.566 187.425 48.818 187.131 49.252L186.613 50.008L187.159 50.386L187.705 49.644C188.013 49.21 188.167 48.902 188.265 48.58C188.391 48.888 188.559 49.224 188.853 49.644L189.385 50.386L189.931 50.008L189.413 49.252C189.105 48.818 188.909 48.58 188.629 48.328C188.951 48.286 189.329 48.202 189.805 48.034L190.701 47.726L190.435 47.096L189.581 47.404C189.091 47.572 188.797 47.74 188.489 47.922C188.559 47.586 188.615 47.222 188.615 46.718V45.78H187.957V46.718C187.957 47.222 187.999 47.572 188.083 47.922C187.775 47.726 187.467 47.572 186.963 47.404L186.109 47.11L185.871 47.726L186.753 48.034ZM192.399 48.034C192.805 48.188 193.155 48.272 193.575 48.328C193.323 48.566 193.071 48.818 192.777 49.252L192.259 50.008L192.805 50.386L193.351 49.644C193.659 49.21 193.813 48.902 193.911 48.58C194.037 48.888 194.205 49.224 194.499 49.644L195.031 50.386L195.577 50.008L195.059 49.252C194.751 48.818 194.555 48.58 194.275 48.328C194.597 48.286 194.975 48.202 195.451 48.034L196.347 47.726L196.081 47.096L195.227 47.404C194.737 47.572 194.443 47.74 194.135 47.922C194.205 47.586 194.261 47.222 194.261 46.718V45.78H193.603V46.718C193.603 47.222 193.645 47.572 193.729 47.922C193.421 47.726 193.113 47.572 192.609 47.404L191.755 47.11L191.517 47.726L192.399 48.034ZM198.046 48.034C198.452 48.188 198.802 48.272 199.222 48.328C198.97 48.566 198.718 48.818 198.424 49.252L197.906 50.008L198.452 50.386L198.998 49.644C199.306 49.21 199.46 48.902 199.558 48.58C199.684 48.888 199.852 49.224 200.146 49.644L200.678 50.386L201.224 50.008L200.706 49.252C200.398 48.818 200.202 48.58 199.922 48.328C200.244 48.286 200.622 48.202 201.098 48.034L201.994 47.726L201.728 47.096L200.874 47.404C200.384 47.572 200.09 47.74 199.782 47.922C199.852 47.586 199.908 47.222 199.908 46.718V45.78H199.25V46.718C199.25 47.222 199.292 47.572 199.376 47.922C199.068 47.726 198.76 47.572 198.256 47.404L197.402 47.11L197.164 47.726L198.046 48.034ZM203.692 48.034C204.098 48.188 204.448 48.272 204.868 48.328C204.616 48.566 204.364 48.818 204.07 49.252L203.552 50.008L204.098 50.386L204.644 49.644C204.952 49.21 205.106 48.902 205.204 48.58C205.33 48.888 205.498 49.224 205.792 49.644L206.324 50.386L206.87 50.008L206.352 49.252C206.044 48.818 205.848 48.58 205.568 48.328C205.89 48.286 206.268 48.202 206.744 48.034L207.64 47.726L207.374 47.096L206.52 47.404C206.03 47.572 205.736 47.74 205.428 47.922C205.498 47.586 205.554 47.222 205.554 46.718V45.78H204.896V46.718C204.896 47.222 204.938 47.572 205.022 47.922C204.714 47.726 204.406 47.572 203.902 47.404L203.048 47.11L202.81 47.726L203.692 48.034ZM209.339 48.034C209.745 48.188 210.095 48.272 210.515 48.328C210.263 48.566 210.011 48.818 209.717 49.252L209.199 50.008L209.745 50.386L210.291 49.644C210.599 49.21 210.753 48.902 210.851 48.58C210.977 48.888 211.145 49.224 211.439 49.644L211.971 50.386L212.517 50.008L211.999 49.252C211.691 48.818 211.495 48.58 211.215 48.328C211.537 48.286 211.915 48.202 212.391 48.034L213.287 47.726L213.021 47.096L212.167 47.404C211.677 47.572 211.383 47.74 211.075 47.922C211.145 47.586 211.201 47.222 211.201 46.718V45.78H210.543V46.718C210.543 47.222 210.585 47.572 210.669 47.922C210.361 47.726 210.053 47.572 209.549 47.404L208.695 47.11L208.457 47.726L209.339 48.034ZM214.985 48.034C215.391 48.188 215.741 48.272 216.161 48.328C215.909 48.566 215.657 48.818 215.363 49.252L214.845 50.008L215.391 50.386L215.937 49.644C216.245 49.21 216.399 48.902 216.497 48.58C216.623 48.888 216.791 49.224 217.085 49.644L217.617 50.386L218.163 50.008L217.645 49.252C217.337 48.818 217.141 48.58 216.861 48.328C217.183 48.286 217.561 48.202 218.037 48.034L218.933 47.726L218.667 47.096L217.813 47.404C217.323 47.572 217.029 47.74 216.721 47.922C216.791 47.586 216.847 47.222 216.847 46.718V45.78H216.189V46.718C216.189 47.222 216.231 47.572 216.315 47.922C216.007 47.726 215.699 47.572 215.195 47.404L214.341 47.11L214.103 47.726L214.985 48.034ZM220.632 48.034C221.038 48.188 221.388 48.272 221.808 48.328C221.556 48.566 221.304 48.818 221.01 49.252L220.492 50.008L221.038 50.386L221.584 49.644C221.892 49.21 222.046 48.902 222.144 48.58C222.27 48.888 222.438 49.224 222.732 49.644L223.264 50.386L223.81 50.008L223.292 49.252C222.984 48.818 222.788 48.58 222.508 48.328C222.83 48.286 223.208 48.202 223.684 48.034L224.58 47.726L224.314 47.096L223.46 47.404C222.97 47.572 222.676 47.74 222.368 47.922C222.438 47.586 222.494 47.222 222.494 46.718V45.78H221.836V46.718C221.836 47.222 221.878 47.572 221.962 47.922C221.654 47.726 221.346 47.572 220.842 47.404L219.988 47.11L219.75 47.726L220.632 48.034ZM226.278 48.034C226.684 48.188 227.034 48.272 227.454 48.328C227.202 48.566 226.95 48.818 226.656 49.252L226.138 50.008L226.684 50.386L227.23 49.644C227.538 49.21 227.692 48.902 227.79 48.58C227.916 48.888 228.084 49.224 228.378 49.644L228.91 50.386L229.456 50.008L228.938 49.252C228.63 48.818 228.434 48.58 228.154 48.328C228.476 48.286 228.854 48.202 229.33 48.034L230.226 47.726L229.96 47.096L229.106 47.404C228.616 47.572 228.322 47.74 228.014 47.922C228.084 47.586 228.14 47.222 228.14 46.718V45.78H227.482V46.718C227.482 47.222 227.524 47.572 227.608 47.922C227.3 47.726 226.992 47.572 226.488 47.404L225.634 47.11L225.396 47.726L226.278 48.034ZM231.925 48.034C232.331 48.188 232.681 48.272 233.101 48.328C232.849 48.566 232.597 48.818 232.303 49.252L231.785 50.008L232.331 50.386L232.877 49.644C233.185 49.21 233.339 48.902 233.437 48.58C233.563 48.888 233.731 49.224 234.025 49.644L234.557 50.386L235.103 50.008L234.585 49.252C234.277 48.818 234.081 48.58 233.801 48.328C234.123 48.286 234.501 48.202 234.977 48.034L235.873 47.726L235.607 47.096L234.753 47.404C234.263 47.572 233.969 47.74 233.661 47.922C233.731 47.586 233.787 47.222 233.787 46.718V45.78H233.129V46.718C233.129 47.222 233.171 47.572 233.255 47.922C232.947 47.726 232.639 47.572 232.135 47.404L231.281 47.11L231.043 47.726L231.925 48.034ZM237.571 48.034C237.977 48.188 238.327 48.272 238.747 48.328C238.495 48.566 238.243 48.818 237.949 49.252L237.431 50.008L237.977 50.386L238.523 49.644C238.831 49.21 238.985 48.902 239.083 48.58C239.209 48.888 239.377 49.224 239.671 49.644L240.203 50.386L240.749 50.008L240.231 49.252C239.923 48.818 239.727 48.58 239.447 48.328C239.769 48.286 240.147 48.202 240.623 48.034L241.519 47.726L241.253 47.096L240.399 47.404C239.909 47.572 239.615 47.74 239.307 47.922C239.377 47.586 239.433 47.222 239.433 46.718V45.78H238.775V46.718C238.775 47.222 238.817 47.572 238.901 47.922C238.593 47.726 238.285 47.572 237.781 47.404L236.927 47.11L236.689 47.726L237.571 48.034ZM243.218 48.034C243.624 48.188 243.974 48.272 244.394 48.328C244.142 48.566 243.89 48.818 243.596 49.252L243.078 50.008L243.624 50.386L244.17 49.644C244.478 49.21 244.632 48.902 244.73 48.58C244.856 48.888 245.024 49.224 245.318 49.644L245.85 50.386L246.396 50.008L245.878 49.252C245.57 48.818 245.374 48.58 245.094 48.328C245.416 48.286 245.794 48.202 246.27 48.034L247.166 47.726L246.9 47.096L246.046 47.404C245.556 47.572 245.262 47.74 244.954 47.922C245.024 47.586 245.08 47.222 245.08 46.718V45.78H244.422V46.718C244.422 47.222 244.464 47.572 244.548 47.922C244.24 47.726 243.932 47.572 243.428 47.404L242.574 47.11L242.336 47.726L243.218 48.034Z" fill="#111111"/>
<rect x="84.5" y="31.5" width="173" height="39" rx="7.5" stroke="black" stroke-opacity="0.1"/>
</g>
<defs>
<clipPath id="clip0_32_11020">
<rect width="342" height="102" rx="8" fill="white"/>
</clipPath>
<clipPath id="clip1_32_11020">
<rect width="117.253" height="117.253" fill="white" transform="translate(112 -8)"/>
</clipPath>
</defs>
</svg>
