<svg width="221" height="32" viewBox="0 0 221 32" fill="none" xmlns="http://www.w3.org/2000/svg">
<g clip-path="url(#clip0_231_13355)">
<path d="M38.52 23.5804H41.8451V18.2863H49.8929V15.4105H41.8451V11.3034H50.3949V8.4248H38.52V23.5804Z" fill="#111111"/>
<path d="M56.3378 8.4248H53.0127V23.5831H56.3378V8.4248Z" fill="#111111"/>
<path d="M70.2398 20.699L69.8405 20.7794L64.4799 8.4248H58.9917V23.5804H62.3168V11.7526L62.7161 11.6722L67.7023 23.5804H73.5649V8.4248H70.2398V20.699Z" fill="#111111"/>
<path d="M75.6445 11.3034H80.7556V23.5804H84.0806V11.3034H89.1695V8.4248H75.6445V11.3034Z" fill="#111111"/>
<path d="M94.5775 17.507H102.207V14.6534H94.5775V11.3034H102.978V8.4248H91.2524V23.5804H103.208V20.7046H94.5775V17.507Z" fill="#111111"/>
<path d="M134.603 14.5869H126.602V8.4248H123.274V23.5804H126.602V17.4405H134.603V23.5804H137.928V8.4248H134.603V14.5869Z" fill="#111111"/>
<path d="M153.253 8.4248H145.458V23.5831H148.785V18.7744H153.256C154.992 18.7744 156.359 18.3612 157.332 17.5459C157.382 17.5071 157.432 17.4627 157.485 17.4155C158.308 16.6237 158.812 15.5567 158.899 14.4177C158.931 14.1416 158.946 13.8637 158.944 13.5857C158.944 11.9385 158.453 10.6489 157.485 9.75872C156.517 8.86852 155.083 8.4248 153.253 8.4248ZM155.494 14.5037C155.216 15.4299 154.487 15.8903 153.314 15.8903H148.783V11.3034H153.314C154.82 11.3034 155.616 12.0965 155.616 13.5996C155.621 13.9054 155.58 14.2101 155.494 14.5037Z" fill="#111111"/>
<path d="M164.071 8.4248H160.746V23.5804H172.072V20.7046H164.071V8.4248Z" fill="#111111"/>
<path d="M179.41 8.4248L173.287 23.5831H176.681L177.912 20.2886H185.475L186.706 23.5831H190.356L184.255 8.4248H179.41ZM178.969 17.4349L181.695 10.1581L184.391 17.4349H178.969Z" fill="#111111"/>
<path d="M212.311 20.7046V17.507H219.943V14.6534H212.311V11.3034H220.716V8.4248H208.986V23.5804H220.944V20.7046H212.311Z" fill="#111111"/>
<path d="M117.772 17.7677C117.24 19.8642 115.607 20.9291 112.925 20.9291C110.243 20.9291 108.613 19.8642 108.08 17.7677C107.946 17.2111 107.882 16.6401 107.889 16.0677C107.884 15.5083 107.943 14.9501 108.063 14.4038C108.582 12.2019 110.215 11.076 112.93 11.076C115.645 11.076 117.282 12.1852 117.797 14.4038C117.814 14.4648 117.825 14.5286 117.836 14.5924H121.164C121.164 14.5563 121.164 14.5203 121.15 14.4842C120.953 12.8906 120.217 11.4121 119.065 10.2939C117.609 8.90731 115.548 8.21401 112.942 8.20569C111.757 8.19319 110.578 8.37204 109.45 8.73537C108.194 9.13775 107.081 9.89435 106.245 10.9142C105.408 11.934 104.884 13.1737 104.736 14.4842C104.653 15.0182 104.613 15.5579 104.616 16.0982C104.614 16.6304 104.654 17.1618 104.738 17.6873C104.94 19.2463 105.676 20.6871 106.821 21.7639C108.28 23.1172 110.337 23.805 112.942 23.8133C114.126 23.8283 115.305 23.6523 116.433 23.2919C117.409 22.9756 118.306 22.4547 119.065 21.7639C120.21 20.6871 120.946 19.2463 121.147 17.6873C121.147 17.6068 121.17 17.5292 121.181 17.446H117.845C117.822 17.5542 117.797 17.6651 117.772 17.7677Z" fill="#111111"/>
<path d="M203.484 17.7684C202.951 19.8649 201.321 20.9298 198.639 20.9298C195.957 20.9298 194.327 19.8649 193.794 17.7684C193.661 17.2118 193.596 16.6408 193.603 16.0684C193.598 15.5088 193.658 14.9505 193.78 14.4045C194.296 12.2026 195.932 11.0766 198.647 11.0766C201.362 11.0766 202.996 12.1859 203.512 14.4045C203.528 14.4655 203.539 14.5293 203.553 14.5931H206.881L206.864 14.4849C206.663 12.8868 205.92 11.4059 204.76 10.289C203.304 8.90245 201.243 8.20915 198.639 8.20083C197.453 8.18812 196.274 8.36698 195.145 8.73051C193.889 9.1329 192.776 9.88949 191.939 10.9093C191.103 11.9292 190.579 13.1689 190.43 14.4794C190.348 15.0134 190.308 15.5531 190.311 16.0934C190.308 16.6255 190.349 17.1569 190.433 17.6824C190.635 19.2414 191.371 20.6823 192.516 21.759C193.975 23.1123 196.032 23.8001 198.639 23.8084C199.823 23.8237 201.001 23.6476 202.128 23.2871C203.104 22.9707 204.001 22.4498 204.76 21.759C205.905 20.6823 206.641 19.2414 206.842 17.6824C206.842 17.602 206.867 17.5243 206.876 17.4411H203.548C203.537 17.5548 203.512 17.6658 203.484 17.7684Z" fill="#111111"/>
<path d="M17.6292 10.668H10.8321C4.94177 10.668 1.00659 15.4434 2.04654 21.3337L2.07428 21.4973C2.59374 24.4402 4.13315 27.1061 6.42232 29.0271C8.71149 30.9481 11.6041 32.0015 14.5925 32.0022L12.7123 21.3337H19.5094C22.4546 21.3337 24.4235 18.946 23.9022 16.0008C23.3808 13.0557 20.5743 10.668 17.6292 10.668Z" fill="#9FE320"/>
<path d="M8.95168 0C3.06139 0 -0.873781 4.77546 0.166171 10.6685C1.20335 16.5588 6.82186 21.3343 12.7121 21.3343L10.8319 10.6685H22.7983C24.1255 10.6685 25.4367 10.3778 26.6395 9.81674C27.8424 9.25572 28.9077 8.43804 29.7607 7.42117C30.6137 6.40431 31.2336 5.21295 31.5768 3.93084C31.92 2.64874 31.9783 1.30702 31.7474 0H8.95168Z" fill="#0B6DFF"/>
</g>
<defs>
<clipPath id="clip0_231_13355">
<rect width="220.944" height="32" fill="white"/>
</clipPath>
</defs>
</svg>
