<svg width="221" height="32" viewBox="0 0 221 32" fill="none" xmlns="http://www.w3.org/2000/svg">
<g clip-path="url(#clip0_194_1199)">
<path d="M38.5198 23.5806H41.8449V18.2865H49.8927V15.4107H41.8449V11.3036H50.3947V8.425H38.5198V23.5806Z" fill="#FCFCFC"/>
<path d="M56.3376 8.425H53.0126V23.5833H56.3376V8.425Z" fill="#FCFCFC"/>
<path d="M70.2397 20.6992L69.8404 20.7796L64.4798 8.425H58.9916V23.5806H62.3167V11.7528L62.716 11.6724L67.7022 23.5806H73.5648V8.425H70.2397V20.6992Z" fill="#FCFCFC"/>
<path d="M75.6447 11.3036H80.7557V23.5806H84.0808V11.3036H89.1696V8.425H75.6447V11.3036Z" fill="#FCFCFC"/>
<path d="M94.5774 17.5072H102.206V14.6536H94.5774V11.3036H102.977V8.425H91.2523V23.5806H103.208V20.7047H94.5774V17.5072Z" fill="#FCFCFC"/>
<path d="M134.603 14.5871H126.602V8.425H123.274V23.5806H126.602V17.4407H134.603V23.5806H137.928V8.425H134.603V14.5871Z" fill="#FCFCFC"/>
<path d="M153.253 8.425H145.457V23.5833H148.785V18.7746H153.256C154.992 18.7746 156.359 18.3614 157.332 17.5461C157.382 17.5072 157.432 17.4629 157.485 17.4157C158.308 16.6239 158.812 15.5569 158.899 14.4179C158.931 14.1418 158.946 13.8639 158.943 13.5859C158.943 11.9386 158.453 10.6491 157.485 9.75891C156.517 8.86871 155.083 8.425 153.253 8.425ZM155.494 14.5039C155.216 15.4301 154.487 15.8905 153.314 15.8905H148.782V11.3036H153.314C154.82 11.3036 155.616 12.0967 155.616 13.5998C155.62 13.9056 155.579 14.2103 155.494 14.5039Z" fill="#FCFCFC"/>
<path d="M164.071 8.425H160.746V23.5806H172.072V20.7047H164.071V8.425Z" fill="#FCFCFC"/>
<path d="M179.41 8.425L173.286 23.5833H176.681L177.912 20.2888H185.475L186.706 23.5833H190.355L184.254 8.425H179.41ZM178.969 17.4351L181.695 10.1582L184.39 17.4351H178.969Z" fill="#FCFCFC"/>
<path d="M212.311 20.7047V17.5072H219.943V14.6536H212.311V11.3036H220.717V8.425H208.986V23.5806H220.944V20.7047H212.311Z" fill="#FCFCFC"/>
<path d="M117.772 17.7679C117.24 19.8645 115.607 20.9294 112.925 20.9294C110.243 20.9294 108.613 19.8645 108.08 17.7679C107.946 17.2113 107.882 16.6403 107.889 16.0679C107.884 15.5085 107.943 14.9504 108.063 14.404C108.582 12.2021 110.215 11.0762 112.93 11.0762C115.645 11.0762 117.282 12.1855 117.797 14.404C117.814 14.465 117.825 14.5288 117.836 14.5926H121.164C121.164 14.5566 121.164 14.5205 121.15 14.4844C120.953 12.8908 120.217 11.4124 119.065 10.2941C117.609 8.90754 115.548 8.21424 112.941 8.20592C111.757 8.19341 110.578 8.37227 109.45 8.73559C108.194 9.13798 107.081 9.89457 106.245 10.9144C105.408 11.9343 104.884 13.1739 104.736 14.4844C104.653 15.0185 104.613 15.5581 104.616 16.0985C104.614 16.6306 104.654 17.162 104.738 17.6875C104.94 19.2465 105.676 20.6873 106.821 21.7641C108.28 23.1174 110.337 23.8052 112.941 23.8135C114.126 23.8286 115.305 23.6525 116.433 23.2921C117.409 22.9758 118.306 22.4549 119.065 21.7641C120.21 20.6873 120.946 19.2465 121.147 17.6875C121.147 17.6071 121.17 17.5294 121.181 17.4462H117.845C117.822 17.5544 117.797 17.6653 117.772 17.7679Z" fill="#FCFCFC"/>
<path d="M203.484 17.7679C202.951 19.8645 201.321 20.9294 198.639 20.9294C195.957 20.9294 194.327 19.8645 193.794 17.7679C193.661 17.2113 193.596 16.6403 193.603 16.0679C193.598 15.5083 193.658 14.95 193.78 14.404C194.296 12.2021 195.932 11.0762 198.647 11.0762C201.362 11.0762 202.996 12.1855 203.512 14.404C203.528 14.465 203.539 14.5288 203.553 14.5926H206.881L206.864 14.4844C206.663 12.8863 205.92 11.4054 204.76 10.2886C203.304 8.90198 201.243 8.20868 198.639 8.20036C197.453 8.18765 196.273 8.36652 195.145 8.73005C193.889 9.13243 192.776 9.88903 191.939 10.9089C191.103 11.9287 190.579 13.1684 190.43 14.4789C190.348 15.0129 190.308 15.5526 190.311 16.0929C190.308 16.625 190.349 17.1565 190.433 17.6819C190.634 19.241 191.371 20.6818 192.516 21.7586C193.975 23.1119 196.032 23.7996 198.639 23.808C199.822 23.8232 201.001 23.6472 202.128 23.2866C203.104 22.9703 204.001 22.4493 204.76 21.7586C205.905 20.6818 206.641 19.241 206.842 17.6819C206.842 17.6015 206.867 17.5239 206.875 17.4407H203.548C203.537 17.5544 203.512 17.6653 203.484 17.7679Z" fill="#FCFCFC"/>
<path d="M17.6293 10.6685H10.8321C4.94186 10.6685 1.00668 15.444 2.04663 21.3343L2.07437 21.4979C2.59383 24.4408 4.13324 27.1067 6.42241 29.0277C8.71158 30.9487 11.6042 32.002 14.5926 32.0028L12.7124 21.3343H19.5095C22.4546 21.3343 24.4236 18.9465 23.9023 16.0014C23.3809 13.0562 20.5744 10.6685 17.6293 10.6685Z" fill="#9FE320"/>
<path d="M8.95182 0C3.06153 0 -0.873643 4.77546 0.166308 10.6685C1.20349 16.5588 6.822 21.3343 12.7123 21.3343L10.832 10.6685H22.7984C24.1257 10.6685 25.4368 10.3778 26.6397 9.81674C27.8425 9.25572 28.9079 8.43804 29.7608 7.42117C30.6138 6.40431 31.2337 5.21295 31.577 3.93084C31.9202 2.64874 31.9784 1.30702 31.7476 0H8.95182Z" fill="#0B6DFF"/>
</g>
<defs>
<clipPath id="clip0_194_1199">
<rect width="220.944" height="32" fill="white"/>
</clipPath>
</defs>
</svg>
