<svg width="461" height="506" viewBox="0 0 461 506" fill="none" xmlns="http://www.w3.org/2000/svg">
<g filter="url(#filter0_d_138_20986)">
<rect x="33.5957" y="28.7802" width="111.199" height="111.199" rx="21.3502" fill="#9FE320"/>
<rect x="33.5957" y="28.7802" width="111.199" height="111.199" rx="21.3502" fill="url(#paint0_linear_138_20986)"/>
<g filter="url(#filter1_d_138_20986)">
<path d="M96.5381 86.8958V80.8466H80.5413C79.3987 78.6958 78.1888 76.4105 78.1888 73.7892C78.1888 69.2187 80.8101 66.2613 89.7495 66.2613C98.7561 66.2613 101.512 69.1515 101.512 75.3351V76.6794H108.637V75.2679C108.637 66.6646 103.461 59.6744 89.8167 59.6744C77.0462 59.6744 70.997 65.6564 70.997 72.9154C70.997 75.8056 71.8707 78.4269 73.0806 80.8466H68.7117V86.8958H76.5085L76.979 87.6352C78.3232 89.9204 79.197 91.7352 79.197 93.4827C79.197 96.7762 76.1052 98.8598 71.7363 98.8598H68.7117V105.38H109.04V98.8598H80.6085V98.3893C83.0282 97.4483 85.3134 95.3647 85.3134 92.004C85.3134 90.4581 84.7757 88.7778 83.902 86.8958H96.5381Z" fill="#9FE320"/>
</g>
<rect x="28.703" y="23.8874" width="120.984" height="120.984" rx="26.2429" stroke="#F8FAFB" stroke-width="9.78549"/>
</g>
<g filter="url(#filter2_d_138_20986)">
<rect x="33.5957" y="171.979" width="111.199" height="111.199" rx="21.3502" fill="#9FE320"/>
<rect x="33.5957" y="171.979" width="111.199" height="111.199" rx="21.3502" fill="url(#paint1_linear_138_20986)"/>
<g filter="url(#filter3_d_138_20986)">
<path d="M96.5381 230.095V224.045H80.5413C79.3987 221.895 78.1888 219.609 78.1888 216.988C78.1888 212.417 80.8101 209.46 89.7495 209.46C98.7561 209.46 101.512 212.35 101.512 218.534V219.878H108.637V218.467C108.637 209.863 103.461 202.873 89.8167 202.873C77.0462 202.873 70.997 208.855 70.997 216.114C70.997 219.004 71.8707 221.626 73.0806 224.045H68.7117V230.095H76.5085L76.979 230.834C78.3232 233.119 79.197 234.934 79.197 236.681C79.197 239.975 76.1052 242.059 71.7363 242.059H68.7117V248.578H109.04V242.059H80.6085V241.588C83.0282 240.647 85.3134 238.563 85.3134 235.203C85.3134 233.657 84.7757 231.977 83.902 230.095H96.5381Z" fill="#9FE320"/>
</g>
<rect x="28.703" y="167.086" width="120.984" height="120.984" rx="26.2429" stroke="#F8FAFB" stroke-width="9.78549"/>
</g>
<g filter="url(#filter4_d_138_20986)">
<rect x="33.5957" y="315.178" width="111.199" height="111.199" rx="21.3502" fill="#9FE320"/>
<rect x="33.5957" y="315.178" width="111.199" height="111.199" rx="21.3502" fill="url(#paint2_linear_138_20986)"/>
<g filter="url(#filter5_d_138_20986)">
<path d="M92.0692 391.777H86.02V359.515H71.8379V354.272H106.251V359.515H92.0692V391.777ZM71.8379 343.787H106.251V349.029H71.8379V343.787Z" fill="#9FE320"/>
</g>
<rect x="28.703" y="310.285" width="120.984" height="120.984" rx="26.2429" stroke="#F8FAFB" stroke-width="9.78549"/>
</g>
<g filter="url(#filter6_d_138_20986)">
<rect x="176.596" y="80.7802" width="111.199" height="111.199" rx="21.3502" fill="#9FE320"/>
<rect x="176.596" y="80.7802" width="111.199" height="111.199" rx="21.3502" fill="url(#paint3_linear_138_20986)"/>
<g filter="url(#filter7_d_138_20986)">
<path d="M235.484 157.38V145.483H254.304V139.434H237.097L240.794 133.989H254.304V127.94H244.894L255.446 112.346H246.305L237.702 125.722L232.258 135.401H231.72L226.209 125.722L217.605 112.346H208.263L218.815 127.94H209.405V133.989H222.915L226.612 139.434H209.405V145.483H228.292V157.38H235.484Z" fill="#9FE320"/>
</g>
<rect x="171.703" y="75.8874" width="120.984" height="120.984" rx="26.2429" stroke="#F8FAFB" stroke-width="9.78549"/>
</g>
<g filter="url(#filter8_d_138_20986)">
<rect x="176.596" y="220.446" width="111.199" height="111.199" rx="21.3502" fill="#9FE320"/>
<rect x="176.596" y="220.446" width="111.199" height="111.199" rx="21.3502" fill="url(#paint4_linear_138_20986)"/>
<g filter="url(#filter9_d_138_20986)">
<path d="M235.766 303.767V297.583C247.058 296.776 251.83 290.862 251.83 284.543C251.83 277.957 247.394 273.857 238.387 272.243L227.431 270.361C222.122 269.219 219.836 267.942 219.836 264.043C219.836 260.011 223.063 257.994 231.263 257.994C240.605 257.994 243.899 260.75 243.899 266.261V267.135H251.091V266.732C251.091 258.801 246.251 252.684 235.766 251.542V245.291H229.045V251.474C217.215 252.281 212.577 258.397 212.577 264.447C212.577 271.84 217.954 275.335 225.549 276.679L236.572 278.494C242.286 279.57 244.571 281.048 244.571 284.947C244.571 289.181 241.546 291.063 232.943 291.063C223.063 291.063 219.904 288.375 219.904 282.998V281.922H212.645V282.325C212.645 290.862 218.156 296.507 229.045 297.516V303.767H235.766Z" fill="#9FE320"/>
</g>
<rect x="171.703" y="215.553" width="120.984" height="120.984" rx="26.2429" stroke="#F8FAFB" stroke-width="9.78549"/>
</g>
<g filter="url(#filter10_d_138_20986)">
<rect x="176.596" y="360.111" width="111.199" height="111.199" rx="21.3502" fill="#9FE320"/>
<rect x="176.596" y="360.111" width="111.199" height="111.199" rx="21.3502" fill="url(#paint5_linear_138_20986)"/>
<g filter="url(#filter11_d_138_20986)">
<path d="M235.484 436.711V424.814H254.304V418.765H237.097L240.794 413.321H254.304V407.271H244.894L255.446 391.678H246.305L237.702 405.053L232.258 414.732H231.72L226.209 405.053L217.605 391.678H208.263L218.815 407.271H209.405V413.321H222.915L226.612 418.765H209.405V424.814H228.292V436.711H235.484Z" fill="#9FE320"/>
</g>
<rect x="171.703" y="355.219" width="120.984" height="120.984" rx="26.2429" stroke="#F8FAFB" stroke-width="9.78549"/>
</g>
<g filter="url(#filter12_d_138_20986)">
<rect x="319.596" y="24.7802" width="111.199" height="111.199" rx="21.3502" fill="#9FE320"/>
<rect x="319.596" y="24.7802" width="111.199" height="111.199" rx="21.3502" fill="url(#paint6_linear_138_20986)"/>
<g filter="url(#filter13_d_138_20986)">
<path d="M376.187 102.052C372.692 102.052 369.735 101.581 367.315 100.64C364.895 99.6992 363.036 98.3101 361.736 96.4729C360.482 94.591 359.854 92.2161 359.854 89.3483C359.854 88.4969 359.922 87.6904 360.056 86.9286C360.19 86.1221 360.37 85.3827 360.594 84.7106H357.435V80.4089H363.081C363.977 79.5127 365.164 78.7062 366.643 77.9892C368.166 77.2275 369.735 76.5553 371.348 75.9728C373.006 75.3903 374.462 74.8974 375.717 74.4941C376.971 74.046 377.778 73.7324 378.136 73.5531H357.435V69.2515H383.11C383.469 68.6242 383.715 67.9744 383.85 67.3023C384.029 66.6302 384.118 65.7788 384.118 64.7482C384.118 63.3591 383.805 62.1717 383.177 61.1859C382.55 60.1553 381.587 59.3711 380.287 58.8334C378.988 58.2957 377.307 58.0268 375.246 58.0268C373.768 58.0268 372.334 58.1613 370.945 58.4301C369.6 58.699 368.323 59.0574 367.113 59.5055C365.948 59.9088 364.851 60.3569 363.82 60.8498L362.14 55.5399C363.842 54.7334 365.926 54.0612 368.39 53.5235C370.855 52.9858 373.252 52.717 375.582 52.717C378.629 52.717 381.228 53.1427 383.379 53.994C385.575 54.8006 387.255 56.0328 388.42 57.6908C389.63 59.3487 390.235 61.4547 390.235 64.0088C390.235 64.9498 390.168 65.8908 390.033 66.8318C389.899 67.728 389.652 68.5345 389.294 69.2515H392.991V73.5531H387.143C386.426 74.2701 385.306 75.0094 383.782 75.7712C382.259 76.4881 380.668 77.1603 379.01 77.7876C377.352 78.4149 375.851 78.9526 374.507 79.4007C373.163 79.8488 372.289 80.1849 371.886 80.4089H392.991V84.7106H366.845C366.486 85.3827 366.24 86.01 366.105 86.5926C365.971 87.1751 365.904 87.9816 365.904 89.0122C365.904 90.7598 366.307 92.2161 367.113 93.3811C367.92 94.5013 369.13 95.3527 370.743 95.9352C372.356 96.5177 374.35 96.809 376.725 96.809C379.279 96.809 381.744 96.4953 384.118 95.868C386.538 95.1959 388.554 94.5013 390.168 93.7844V99.2287C388.644 99.9456 386.605 100.595 384.051 101.178C381.497 101.76 378.876 102.052 376.187 102.052Z" fill="#9FE320"/>
</g>
<rect x="314.703" y="19.8874" width="120.984" height="120.984" rx="26.2429" stroke="#F8FAFB" stroke-width="9.78549"/>
</g>
<g filter="url(#filter14_d_138_20986)">
<rect x="319.596" y="164.446" width="111.199" height="111.199" rx="21.3502" fill="#9FE320"/>
<rect x="319.596" y="164.446" width="111.199" height="111.199" rx="21.3502" fill="url(#paint7_linear_138_20986)"/>
<g filter="url(#filter15_d_138_20986)">
<path d="M376.187 241.717C372.692 241.717 369.735 241.247 367.315 240.306C364.895 239.365 363.036 237.976 361.736 236.139C360.482 234.257 359.854 231.882 359.854 229.014C359.854 228.163 359.922 227.356 360.056 226.594C360.19 225.788 360.37 225.048 360.594 224.376H357.435V220.075H363.081C363.977 219.178 365.164 218.372 366.643 217.655C368.166 216.893 369.735 216.221 371.348 215.638C373.006 215.056 374.462 214.563 375.717 214.16C376.971 213.712 377.778 213.398 378.136 213.219H357.435V208.917H383.11C383.469 208.29 383.715 207.64 383.85 206.968C384.029 206.296 384.118 205.444 384.118 204.414C384.118 203.025 383.805 201.837 383.177 200.852C382.55 199.821 381.587 199.037 380.287 198.499C378.988 197.961 377.307 197.692 375.246 197.692C373.768 197.692 372.334 197.827 370.945 198.096C369.6 198.365 368.323 198.723 367.113 199.171C365.948 199.574 364.851 200.023 363.82 200.515L362.14 195.206C363.842 194.399 365.926 193.727 368.39 193.189C370.855 192.651 373.252 192.383 375.582 192.383C378.629 192.383 381.228 192.808 383.379 193.66C385.575 194.466 387.255 195.698 388.42 197.356C389.63 199.014 390.235 201.12 390.235 203.674C390.235 204.615 390.168 205.556 390.033 206.497C389.899 207.394 389.652 208.2 389.294 208.917H392.991V213.219H387.143C386.426 213.936 385.306 214.675 383.782 215.437C382.259 216.154 380.668 216.826 379.01 217.453C377.352 218.081 375.851 218.618 374.507 219.066C373.163 219.514 372.289 219.851 371.886 220.075H392.991V224.376H366.845C366.486 225.048 366.24 225.676 366.105 226.258C365.971 226.841 365.904 227.647 365.904 228.678C365.904 230.425 366.307 231.882 367.113 233.047C367.92 234.167 369.13 235.018 370.743 235.601C372.356 236.183 374.35 236.475 376.725 236.475C379.279 236.475 381.744 236.161 384.118 235.534C386.538 234.862 388.554 234.167 390.168 233.45V238.894C388.644 239.611 386.605 240.261 384.051 240.844C381.497 241.426 378.876 241.717 376.187 241.717Z" fill="#9FE320"/>
</g>
<rect x="314.703" y="159.553" width="120.984" height="120.984" rx="26.2429" stroke="#F8FAFB" stroke-width="9.78549"/>
</g>
<g filter="url(#filter16_d_138_20986)">
<rect x="319.596" y="304.111" width="111.199" height="111.199" rx="21.3502" fill="#9FE320"/>
<rect x="319.596" y="304.111" width="111.199" height="111.199" rx="21.3502" fill="url(#paint8_linear_138_20986)"/>
<g filter="url(#filter17_d_138_20986)">
<path d="M386.907 365.185V360.48H367.213C367.146 359.74 367.146 359.001 367.146 358.194C367.146 357.388 367.146 356.648 367.213 355.976H386.907V351.271H367.886C369.633 344.819 374.271 342.198 382.269 342.198H394.838V335.678H382.269C370.776 335.678 362.777 341.458 360.29 351.271H353.367V355.976H359.551C359.484 356.716 359.484 357.455 359.484 358.194C359.484 359.001 359.484 359.74 359.551 360.48H353.367V365.185H360.29C362.845 374.93 370.843 380.711 382.269 380.711H394.838V374.191H382.269C374.271 374.191 369.7 371.57 367.953 365.185H386.907Z" fill="#9FE320"/>
</g>
<rect x="314.703" y="299.219" width="120.984" height="120.984" rx="26.2429" stroke="#F8FAFB" stroke-width="9.78549"/>
</g>
<defs>
<filter id="filter0_d_138_20986" x="4.27694" y="4.34479" width="169.836" height="169.836" filterUnits="userSpaceOnUse" color-interpolation-filters="sRGB">
<feFlood flood-opacity="0" result="BackgroundImageFix"/>
<feColorMatrix in="SourceAlpha" type="matrix" values="0 0 0 0 0 0 0 0 0 0 0 0 0 0 0 0 0 0 127 0" result="hardAlpha"/>
<feOffset dy="4.88328"/>
<feGaussianBlur stdDeviation="9.76656"/>
<feComposite in2="hardAlpha" operator="out"/>
<feColorMatrix type="matrix" values="0 0 0 0 0 0 0 0 0 0 0 0 0 0 0 0 0 0 0.08 0"/>
<feBlend mode="normal" in2="BackgroundImageFix" result="effect1_dropShadow_138_20986"/>
<feBlend mode="normal" in="SourceGraphic" in2="effect1_dropShadow_138_20986" result="shape"/>
</filter>
<filter id="filter1_d_138_20986" x="47.3618" y="38.3242" width="84.8076" height="90.1847" filterUnits="userSpaceOnUse" color-interpolation-filters="sRGB">
<feFlood flood-opacity="0" result="BackgroundImageFix"/>
<feColorMatrix in="SourceAlpha" type="matrix" values="0 0 0 0 0 0 0 0 0 0 0 0 0 0 0 0 0 0 127 0" result="hardAlpha"/>
<feOffset dx="0.88959" dy="0.88959"/>
<feGaussianBlur stdDeviation="11.1199"/>
<feComposite in2="hardAlpha" operator="out"/>
<feColorMatrix type="matrix" values="0 0 0 0 1 0 0 0 0 1 0 0 0 0 1 0 0 0 0.15 0"/>
<feBlend mode="normal" in2="BackgroundImageFix" result="effect1_dropShadow_138_20986"/>
<feBlend mode="normal" in="SourceGraphic" in2="effect1_dropShadow_138_20986" result="shape"/>
</filter>
<filter id="filter2_d_138_20986" x="4.27694" y="147.544" width="169.836" height="169.836" filterUnits="userSpaceOnUse" color-interpolation-filters="sRGB">
<feFlood flood-opacity="0" result="BackgroundImageFix"/>
<feColorMatrix in="SourceAlpha" type="matrix" values="0 0 0 0 0 0 0 0 0 0 0 0 0 0 0 0 0 0 127 0" result="hardAlpha"/>
<feOffset dy="4.88328"/>
<feGaussianBlur stdDeviation="9.76656"/>
<feComposite in2="hardAlpha" operator="out"/>
<feColorMatrix type="matrix" values="0 0 0 0 0 0 0 0 0 0 0 0 0 0 0 0 0 0 0.08 0"/>
<feBlend mode="normal" in2="BackgroundImageFix" result="effect1_dropShadow_138_20986"/>
<feBlend mode="normal" in="SourceGraphic" in2="effect1_dropShadow_138_20986" result="shape"/>
</filter>
<filter id="filter3_d_138_20986" x="47.3618" y="181.523" width="84.8076" height="90.1847" filterUnits="userSpaceOnUse" color-interpolation-filters="sRGB">
<feFlood flood-opacity="0" result="BackgroundImageFix"/>
<feColorMatrix in="SourceAlpha" type="matrix" values="0 0 0 0 0 0 0 0 0 0 0 0 0 0 0 0 0 0 127 0" result="hardAlpha"/>
<feOffset dx="0.88959" dy="0.88959"/>
<feGaussianBlur stdDeviation="11.1199"/>
<feComposite in2="hardAlpha" operator="out"/>
<feColorMatrix type="matrix" values="0 0 0 0 1 0 0 0 0 1 0 0 0 0 1 0 0 0 0.15 0"/>
<feBlend mode="normal" in2="BackgroundImageFix" result="effect1_dropShadow_138_20986"/>
<feBlend mode="normal" in="SourceGraphic" in2="effect1_dropShadow_138_20986" result="shape"/>
</filter>
<filter id="filter4_d_138_20986" x="4.27694" y="290.742" width="169.836" height="169.836" filterUnits="userSpaceOnUse" color-interpolation-filters="sRGB">
<feFlood flood-opacity="0" result="BackgroundImageFix"/>
<feColorMatrix in="SourceAlpha" type="matrix" values="0 0 0 0 0 0 0 0 0 0 0 0 0 0 0 0 0 0 127 0" result="hardAlpha"/>
<feOffset dy="4.88328"/>
<feGaussianBlur stdDeviation="9.76656"/>
<feComposite in2="hardAlpha" operator="out"/>
<feColorMatrix type="matrix" values="0 0 0 0 0 0 0 0 0 0 0 0 0 0 0 0 0 0 0.08 0"/>
<feBlend mode="normal" in2="BackgroundImageFix" result="effect1_dropShadow_138_20986"/>
<feBlend mode="normal" in="SourceGraphic" in2="effect1_dropShadow_138_20986" result="shape"/>
</filter>
<filter id="filter5_d_138_20986" x="50.4877" y="322.436" width="78.8931" height="92.4699" filterUnits="userSpaceOnUse" color-interpolation-filters="sRGB">
<feFlood flood-opacity="0" result="BackgroundImageFix"/>
<feColorMatrix in="SourceAlpha" type="matrix" values="0 0 0 0 0 0 0 0 0 0 0 0 0 0 0 0 0 0 127 0" result="hardAlpha"/>
<feOffset dx="0.88959" dy="0.88959"/>
<feGaussianBlur stdDeviation="11.1199"/>
<feComposite in2="hardAlpha" operator="out"/>
<feColorMatrix type="matrix" values="0 0 0 0 1 0 0 0 0 1 0 0 0 0 1 0 0 0 0.15 0"/>
<feBlend mode="normal" in2="BackgroundImageFix" result="effect1_dropShadow_138_20986"/>
<feBlend mode="normal" in="SourceGraphic" in2="effect1_dropShadow_138_20986" result="shape"/>
</filter>
<filter id="filter6_d_138_20986" x="147.277" y="56.3448" width="169.836" height="169.836" filterUnits="userSpaceOnUse" color-interpolation-filters="sRGB">
<feFlood flood-opacity="0" result="BackgroundImageFix"/>
<feColorMatrix in="SourceAlpha" type="matrix" values="0 0 0 0 0 0 0 0 0 0 0 0 0 0 0 0 0 0 127 0" result="hardAlpha"/>
<feOffset dy="4.88328"/>
<feGaussianBlur stdDeviation="9.76656"/>
<feComposite in2="hardAlpha" operator="out"/>
<feColorMatrix type="matrix" values="0 0 0 0 0 0 0 0 0 0 0 0 0 0 0 0 0 0 0.08 0"/>
<feBlend mode="normal" in2="BackgroundImageFix" result="effect1_dropShadow_138_20986"/>
<feBlend mode="normal" in="SourceGraphic" in2="effect1_dropShadow_138_20986" result="shape"/>
</filter>
<filter id="filter7_d_138_20986" x="186.913" y="90.9963" width="91.6631" height="89.5126" filterUnits="userSpaceOnUse" color-interpolation-filters="sRGB">
<feFlood flood-opacity="0" result="BackgroundImageFix"/>
<feColorMatrix in="SourceAlpha" type="matrix" values="0 0 0 0 0 0 0 0 0 0 0 0 0 0 0 0 0 0 127 0" result="hardAlpha"/>
<feOffset dx="0.88959" dy="0.88959"/>
<feGaussianBlur stdDeviation="11.1199"/>
<feComposite in2="hardAlpha" operator="out"/>
<feColorMatrix type="matrix" values="0 0 0 0 1 0 0 0 0 1 0 0 0 0 1 0 0 0 0.15 0"/>
<feBlend mode="normal" in2="BackgroundImageFix" result="effect1_dropShadow_138_20986"/>
<feBlend mode="normal" in="SourceGraphic" in2="effect1_dropShadow_138_20986" result="shape"/>
</filter>
<filter id="filter8_d_138_20986" x="147.277" y="196.01" width="169.836" height="169.836" filterUnits="userSpaceOnUse" color-interpolation-filters="sRGB">
<feFlood flood-opacity="0" result="BackgroundImageFix"/>
<feColorMatrix in="SourceAlpha" type="matrix" values="0 0 0 0 0 0 0 0 0 0 0 0 0 0 0 0 0 0 127 0" result="hardAlpha"/>
<feOffset dy="4.88328"/>
<feGaussianBlur stdDeviation="9.76656"/>
<feComposite in2="hardAlpha" operator="out"/>
<feColorMatrix type="matrix" values="0 0 0 0 0 0 0 0 0 0 0 0 0 0 0 0 0 0 0.08 0"/>
<feBlend mode="normal" in2="BackgroundImageFix" result="effect1_dropShadow_138_20986"/>
<feBlend mode="normal" in="SourceGraphic" in2="effect1_dropShadow_138_20986" result="shape"/>
</filter>
<filter id="filter9_d_138_20986" x="191.227" y="223.941" width="83.7324" height="102.955" filterUnits="userSpaceOnUse" color-interpolation-filters="sRGB">
<feFlood flood-opacity="0" result="BackgroundImageFix"/>
<feColorMatrix in="SourceAlpha" type="matrix" values="0 0 0 0 0 0 0 0 0 0 0 0 0 0 0 0 0 0 127 0" result="hardAlpha"/>
<feOffset dx="0.88959" dy="0.88959"/>
<feGaussianBlur stdDeviation="11.1199"/>
<feComposite in2="hardAlpha" operator="out"/>
<feColorMatrix type="matrix" values="0 0 0 0 1 0 0 0 0 1 0 0 0 0 1 0 0 0 0.15 0"/>
<feBlend mode="normal" in2="BackgroundImageFix" result="effect1_dropShadow_138_20986"/>
<feBlend mode="normal" in="SourceGraphic" in2="effect1_dropShadow_138_20986" result="shape"/>
</filter>
<filter id="filter10_d_138_20986" x="147.277" y="335.676" width="169.836" height="169.836" filterUnits="userSpaceOnUse" color-interpolation-filters="sRGB">
<feFlood flood-opacity="0" result="BackgroundImageFix"/>
<feColorMatrix in="SourceAlpha" type="matrix" values="0 0 0 0 0 0 0 0 0 0 0 0 0 0 0 0 0 0 127 0" result="hardAlpha"/>
<feOffset dy="4.88328"/>
<feGaussianBlur stdDeviation="9.76656"/>
<feComposite in2="hardAlpha" operator="out"/>
<feColorMatrix type="matrix" values="0 0 0 0 0 0 0 0 0 0 0 0 0 0 0 0 0 0 0.08 0"/>
<feBlend mode="normal" in2="BackgroundImageFix" result="effect1_dropShadow_138_20986"/>
<feBlend mode="normal" in="SourceGraphic" in2="effect1_dropShadow_138_20986" result="shape"/>
</filter>
<filter id="filter11_d_138_20986" x="186.913" y="370.328" width="91.6631" height="89.5126" filterUnits="userSpaceOnUse" color-interpolation-filters="sRGB">
<feFlood flood-opacity="0" result="BackgroundImageFix"/>
<feColorMatrix in="SourceAlpha" type="matrix" values="0 0 0 0 0 0 0 0 0 0 0 0 0 0 0 0 0 0 127 0" result="hardAlpha"/>
<feOffset dx="0.88959" dy="0.88959"/>
<feGaussianBlur stdDeviation="11.1199"/>
<feComposite in2="hardAlpha" operator="out"/>
<feColorMatrix type="matrix" values="0 0 0 0 1 0 0 0 0 1 0 0 0 0 1 0 0 0 0.15 0"/>
<feBlend mode="normal" in2="BackgroundImageFix" result="effect1_dropShadow_138_20986"/>
<feBlend mode="normal" in="SourceGraphic" in2="effect1_dropShadow_138_20986" result="shape"/>
</filter>
<filter id="filter12_d_138_20986" x="290.277" y="0.344787" width="169.836" height="169.836" filterUnits="userSpaceOnUse" color-interpolation-filters="sRGB">
<feFlood flood-opacity="0" result="BackgroundImageFix"/>
<feColorMatrix in="SourceAlpha" type="matrix" values="0 0 0 0 0 0 0 0 0 0 0 0 0 0 0 0 0 0 127 0" result="hardAlpha"/>
<feOffset dy="4.88328"/>
<feGaussianBlur stdDeviation="9.76656"/>
<feComposite in2="hardAlpha" operator="out"/>
<feColorMatrix type="matrix" values="0 0 0 0 0 0 0 0 0 0 0 0 0 0 0 0 0 0 0.08 0"/>
<feBlend mode="normal" in2="BackgroundImageFix" result="effect1_dropShadow_138_20986"/>
<feBlend mode="normal" in="SourceGraphic" in2="effect1_dropShadow_138_20986" result="shape"/>
</filter>
<filter id="filter13_d_138_20986" x="336.084" y="31.3668" width="80.0356" height="93.8142" filterUnits="userSpaceOnUse" color-interpolation-filters="sRGB">
<feFlood flood-opacity="0" result="BackgroundImageFix"/>
<feColorMatrix in="SourceAlpha" type="matrix" values="0 0 0 0 0 0 0 0 0 0 0 0 0 0 0 0 0 0 127 0" result="hardAlpha"/>
<feOffset dx="0.88959" dy="0.88959"/>
<feGaussianBlur stdDeviation="11.1199"/>
<feComposite in2="hardAlpha" operator="out"/>
<feColorMatrix type="matrix" values="0 0 0 0 1 0 0 0 0 1 0 0 0 0 1 0 0 0 0.15 0"/>
<feBlend mode="normal" in2="BackgroundImageFix" result="effect1_dropShadow_138_20986"/>
<feBlend mode="normal" in="SourceGraphic" in2="effect1_dropShadow_138_20986" result="shape"/>
</filter>
<filter id="filter14_d_138_20986" x="290.277" y="140.01" width="169.836" height="169.836" filterUnits="userSpaceOnUse" color-interpolation-filters="sRGB">
<feFlood flood-opacity="0" result="BackgroundImageFix"/>
<feColorMatrix in="SourceAlpha" type="matrix" values="0 0 0 0 0 0 0 0 0 0 0 0 0 0 0 0 0 0 127 0" result="hardAlpha"/>
<feOffset dy="4.88328"/>
<feGaussianBlur stdDeviation="9.76656"/>
<feComposite in2="hardAlpha" operator="out"/>
<feColorMatrix type="matrix" values="0 0 0 0 0 0 0 0 0 0 0 0 0 0 0 0 0 0 0.08 0"/>
<feBlend mode="normal" in2="BackgroundImageFix" result="effect1_dropShadow_138_20986"/>
<feBlend mode="normal" in="SourceGraphic" in2="effect1_dropShadow_138_20986" result="shape"/>
</filter>
<filter id="filter15_d_138_20986" x="336.084" y="171.032" width="80.0356" height="93.8142" filterUnits="userSpaceOnUse" color-interpolation-filters="sRGB">
<feFlood flood-opacity="0" result="BackgroundImageFix"/>
<feColorMatrix in="SourceAlpha" type="matrix" values="0 0 0 0 0 0 0 0 0 0 0 0 0 0 0 0 0 0 127 0" result="hardAlpha"/>
<feOffset dx="0.88959" dy="0.88959"/>
<feGaussianBlur stdDeviation="11.1199"/>
<feComposite in2="hardAlpha" operator="out"/>
<feColorMatrix type="matrix" values="0 0 0 0 1 0 0 0 0 1 0 0 0 0 1 0 0 0 0.15 0"/>
<feBlend mode="normal" in2="BackgroundImageFix" result="effect1_dropShadow_138_20986"/>
<feBlend mode="normal" in="SourceGraphic" in2="effect1_dropShadow_138_20986" result="shape"/>
</filter>
<filter id="filter16_d_138_20986" x="290.277" y="279.676" width="169.836" height="169.836" filterUnits="userSpaceOnUse" color-interpolation-filters="sRGB">
<feFlood flood-opacity="0" result="BackgroundImageFix"/>
<feColorMatrix in="SourceAlpha" type="matrix" values="0 0 0 0 0 0 0 0 0 0 0 0 0 0 0 0 0 0 127 0" result="hardAlpha"/>
<feOffset dy="4.88328"/>
<feGaussianBlur stdDeviation="9.76656"/>
<feComposite in2="hardAlpha" operator="out"/>
<feColorMatrix type="matrix" values="0 0 0 0 0 0 0 0 0 0 0 0 0 0 0 0 0 0 0.08 0"/>
<feBlend mode="normal" in2="BackgroundImageFix" result="effect1_dropShadow_138_20986"/>
<feBlend mode="normal" in="SourceGraphic" in2="effect1_dropShadow_138_20986" result="shape"/>
</filter>
<filter id="filter17_d_138_20986" x="332.018" y="314.328" width="85.9502" height="89.5126" filterUnits="userSpaceOnUse" color-interpolation-filters="sRGB">
<feFlood flood-opacity="0" result="BackgroundImageFix"/>
<feColorMatrix in="SourceAlpha" type="matrix" values="0 0 0 0 0 0 0 0 0 0 0 0 0 0 0 0 0 0 127 0" result="hardAlpha"/>
<feOffset dx="0.88959" dy="0.88959"/>
<feGaussianBlur stdDeviation="11.1199"/>
<feComposite in2="hardAlpha" operator="out"/>
<feColorMatrix type="matrix" values="0 0 0 0 1 0 0 0 0 1 0 0 0 0 1 0 0 0 0.15 0"/>
<feBlend mode="normal" in2="BackgroundImageFix" result="effect1_dropShadow_138_20986"/>
<feBlend mode="normal" in="SourceGraphic" in2="effect1_dropShadow_138_20986" result="shape"/>
</filter>
<linearGradient id="paint0_linear_138_20986" x1="79.346" y1="27.2781" x2="91.3062" y2="122.029" gradientUnits="userSpaceOnUse">
<stop stop-color="#F7F4FF"/>
<stop offset="1" stop-color="#DFEAF1"/>
</linearGradient>
<linearGradient id="paint1_linear_138_20986" x1="79.346" y1="170.477" x2="91.3062" y2="265.227" gradientUnits="userSpaceOnUse">
<stop stop-color="#F7F4FF"/>
<stop offset="1" stop-color="#DFEAF1"/>
</linearGradient>
<linearGradient id="paint2_linear_138_20986" x1="79.346" y1="313.676" x2="91.3062" y2="408.426" gradientUnits="userSpaceOnUse">
<stop stop-color="#F7F4FF"/>
<stop offset="1" stop-color="#DFEAF1"/>
</linearGradient>
<linearGradient id="paint3_linear_138_20986" x1="222.346" y1="79.2781" x2="234.306" y2="174.029" gradientUnits="userSpaceOnUse">
<stop stop-color="#F7F4FF"/>
<stop offset="1" stop-color="#DFEAF1"/>
</linearGradient>
<linearGradient id="paint4_linear_138_20986" x1="222.346" y1="218.944" x2="234.306" y2="313.694" gradientUnits="userSpaceOnUse">
<stop stop-color="#F7F4FF"/>
<stop offset="1" stop-color="#DFEAF1"/>
</linearGradient>
<linearGradient id="paint5_linear_138_20986" x1="222.346" y1="358.609" x2="234.306" y2="453.36" gradientUnits="userSpaceOnUse">
<stop stop-color="#F7F4FF"/>
<stop offset="1" stop-color="#DFEAF1"/>
</linearGradient>
<linearGradient id="paint6_linear_138_20986" x1="365.346" y1="23.2781" x2="377.306" y2="118.029" gradientUnits="userSpaceOnUse">
<stop stop-color="#F7F4FF"/>
<stop offset="1" stop-color="#DFEAF1"/>
</linearGradient>
<linearGradient id="paint7_linear_138_20986" x1="365.346" y1="162.944" x2="377.306" y2="257.694" gradientUnits="userSpaceOnUse">
<stop stop-color="#F7F4FF"/>
<stop offset="1" stop-color="#DFEAF1"/>
</linearGradient>
<linearGradient id="paint8_linear_138_20986" x1="365.346" y1="302.609" x2="377.306" y2="397.36" gradientUnits="userSpaceOnUse">
<stop stop-color="#F7F4FF"/>
<stop offset="1" stop-color="#DFEAF1"/>
</linearGradient>
</defs>
</svg>
