<svg width="81" height="24" viewBox="0 0 81 24" fill="none" xmlns="http://www.w3.org/2000/svg">
<path d="M4.32 19V13.82H9.92C14.26 13.82 17.06 11.328 17.06 7.016C17.06 2.704 14.26 0.24 9.92 0.24H0.12V19H4.32ZM9.472 4.02C11.796 4.02 12.888 4.72 12.888 7.016C12.888 9.368 11.796 10.04 9.472 10.04H4.32V4.02H9.472ZM22.8617 19.28C25.9697 19.28 27.9297 17.964 28.5737 15.78H28.7977V19H32.7177V10.768C32.7177 7.1 30.5057 4.692 25.8297 4.692C21.2097 4.692 18.2977 7.1 18.2977 10.572V10.656H22.5257V10.544C22.5257 8.948 23.3937 8.388 25.5217 8.388C27.7617 8.388 28.5737 8.892 28.5737 10.712V11.244L22.5537 11.86C19.5577 12.168 18.0177 13.456 18.0177 15.528C18.0177 17.88 19.8377 19.28 22.8617 19.28ZM22.2457 15.248C22.2457 14.576 22.6937 14.296 23.7017 14.212L28.5737 13.652C28.4617 15.64 26.9217 16.312 24.0657 16.312C22.8337 16.312 22.2457 16.004 22.2457 15.248ZM37.5346 23.76C41.0626 23.76 42.9386 22.948 44.2826 20.008L51.2266 4.972H46.5506L43.8906 11.356L42.7706 14.688H42.4906L41.3146 11.384L38.3466 4.972H33.5866L40.4466 19.056C40.1666 19.672 39.7186 19.952 38.6826 19.952H35.2386V23.76H37.5346ZM73.6364 19V0.24H69.4364V19H73.6364ZM80.0348 3.544V0.24H75.8348V3.544H80.0348ZM80.0348 19V4.972H75.8348V19H80.0348Z" fill="#F1F1F1"/>
<path d="M59.7132 19.28C64.5012 19.28 67.7212 16.424 67.7212 12C67.7212 7.52 64.5012 4.692 59.7132 4.692C54.9252 4.692 51.7052 7.52 51.7052 12C51.7052 16.424 54.9252 19.28 59.7132 19.28ZM59.7132 15.556C56.8572 15.556 55.8772 14.464 55.8772 12C55.8772 9.536 56.8572 8.388 59.7132 8.388C62.5412 8.388 63.5492 9.536 63.5492 12C63.5492 14.464 62.5412 15.556 59.7132 15.556Z" fill="#0B6DFF"/>
</svg>
