<svg width="699" height="84" viewBox="0 0 699 84" fill="none" xmlns="http://www.w3.org/2000/svg">
<rect width="698.426" height="83.6487" fill="#122B4F"/>
<path d="M313.961 47.1932V43.477H314.143C314.689 46.0498 316.586 47.4531 319.523 47.4531C323.629 47.4531 325.838 44.7244 325.838 40.7482C325.838 36.7201 323.655 34.0174 319.679 34.0174C316.586 34.0174 314.871 35.6026 314.351 37.7856H314.195V29.7813L311.388 29.7813V47.1932H313.961ZM314.195 40.8782V40.6703C314.195 37.9155 315.78 36.5642 318.691 36.5642C321.446 36.5642 323.031 37.6297 323.031 40.7482C323.031 43.8408 321.472 44.8803 318.639 44.8803C315.858 44.8803 314.195 43.5809 314.195 40.8782ZM334.28 47.4531C338.126 47.4531 340.829 45.556 340.829 42.8013V42.5674H338.022V42.7753C338.022 44.3086 336.905 45.1922 334.202 45.1922C331.214 45.1922 329.992 43.8668 329.888 41.3719H340.855C340.933 40.9821 340.959 40.6183 340.959 40.1505C340.959 36.2263 338.23 34.0174 334.228 34.0174C330.018 34.0174 327.263 36.7201 327.263 40.7482C327.263 45.0622 330.044 47.4531 334.28 47.4531ZM334.176 36.2263C336.931 36.2263 338.308 37.3698 338.308 39.7607V39.8127L329.914 39.8127C330.07 37.4997 331.317 36.2263 334.176 36.2263ZM349.168 47.4531C352.807 47.4531 355.198 46.0238 355.198 43.6069C355.198 41.4759 353.794 40.4364 350.728 40.0466L347.739 39.6307C345.79 39.3709 345.27 39.007 345.27 37.9935C345.27 36.7721 346.102 36.2523 348.467 36.2523C351.325 36.2523 352.105 37.0579 352.105 38.5912V38.7472H354.886V38.6692C354.886 35.6026 352.495 34.0174 348.545 34.0174C344.568 34.0174 342.515 35.6286 342.515 37.8896C342.515 40.0466 343.997 41.0861 346.44 41.3979L349.974 41.8657C351.819 42.1256 352.443 42.4634 352.443 43.5289C352.443 44.6724 351.689 45.1922 349.168 45.1922C346.466 45.1922 345.452 44.6464 345.452 42.9572V42.7493H342.645V42.8273C342.645 45.8159 345.01 47.4531 349.168 47.4531ZM365.695 47.1932V44.6724H363.356C361.744 44.6724 361.017 44.2566 361.017 42.6713V36.6161H365.695V34.2772H361.017V31.4445H358.236V34.2772H356.053V36.6161H358.236V42.8273C358.236 45.9718 359.951 47.1932 362.732 47.1932H365.695ZM378.415 47.4531C382.287 47.4531 385.119 45.2701 385.119 42.0476V41.7618H382.339V41.9437C382.339 43.9447 380.883 44.9323 378.363 44.9323C375.452 44.9323 374.152 43.5289 374.152 40.7482C374.152 37.9155 375.452 36.5382 378.363 36.5382C380.883 36.5382 382.339 37.5257 382.339 39.5268V39.6827H385.119V39.4228C385.119 36.2003 382.287 34.0174 378.415 34.0174C374.152 34.0174 371.372 36.7201 371.372 40.7482C371.372 44.7244 374.152 47.4531 378.415 47.4531ZM390.002 47.1932V40.9301C390.002 38.2014 391.093 36.5382 394.16 36.5382C396.837 36.5382 398.006 37.5777 398.006 40.1765V47.1932H400.787V39.5008C400.787 36.3563 399.045 34.0174 395.485 34.0174C392.185 34.0174 390.599 36.0444 390.158 38.2274H390.002V29.7813H387.195V47.1932H390.002ZM409.911 47.4531C414.225 47.4531 417.11 44.7244 417.11 40.7482C417.11 36.7201 414.225 34.0174 409.911 34.0174C405.623 34.0174 402.739 36.7201 402.739 40.7482C402.739 44.7244 405.623 47.4531 409.911 47.4531ZM409.911 44.9583C406.793 44.9583 405.494 43.477 405.494 40.7482C405.494 37.9935 406.793 36.4862 409.911 36.4862C413.056 36.4862 414.355 37.9935 414.355 40.7482C414.355 43.477 413.056 44.9583 409.911 44.9583ZM421.954 32.7699V29.7813H419.147V32.7699H421.954ZM421.954 47.1932V34.2772H419.147V47.1932H421.954ZM431.076 47.4531C434.948 47.4531 437.78 45.2701 437.78 42.0476V41.7618H435V41.9437C435 43.9447 433.544 44.9323 431.024 44.9323C428.113 44.9323 426.814 43.5289 426.814 40.7482C426.814 37.9155 428.113 36.5382 431.024 36.5382C433.544 36.5382 435 37.5257 435 39.5268V39.6827H437.78V39.4228C437.78 36.2003 434.948 34.0174 431.076 34.0174C426.814 34.0174 424.033 36.7201 424.033 40.7482C424.033 44.7244 426.814 47.4531 431.076 47.4531ZM446.353 47.4531C450.199 47.4531 452.902 45.556 452.902 42.8013V42.5674H450.095V42.7753C450.095 44.3086 448.978 45.1922 446.275 45.1922C443.286 45.1922 442.065 43.8668 441.961 41.3719H452.928C453.006 40.9821 453.032 40.6183 453.032 40.1505C453.032 36.2263 450.303 34.0174 446.301 34.0174C442.091 34.0174 439.336 36.7201 439.336 40.7482C439.336 45.0622 442.117 47.4531 446.353 47.4531ZM446.249 36.2263C449.004 36.2263 450.381 37.3698 450.381 39.7607V39.8127H441.987C442.143 37.4997 443.39 36.2263 446.249 36.2263Z" fill="#F1F1F1"/>
<path d="M466.289 19.6284C466.719 22.5894 467.097 29.0525 465.173 31.2167" stroke="url(#paint0_linear_64_2268)" stroke-width="2" stroke-linecap="round"/>
<path d="M488.228 41.6356C483.236 39.1576 472.012 34.7289 467.058 36.8377" stroke="url(#paint1_linear_64_2268)" stroke-width="3.7102" stroke-linecap="round"/>
<path d="M271.705 58.4531C274.088 56.0137 279.711 51.0809 283.142 50.8657" stroke="url(#paint2_linear_64_2268)" stroke-width="2.40477" stroke-linecap="round"/>
<path d="M275.788 25.8069C277.451 31.652 282.344 43.8804 288.61 46.0328" stroke="url(#paint3_linear_64_2268)" stroke-width="4.93151" stroke-linecap="round"/>
<defs>
<linearGradient id="paint0_linear_64_2268" x1="468.151" y1="20.5203" x2="463.427" y2="30.3803" gradientUnits="userSpaceOnUse">
<stop stop-color="#0B6DFF"/>
<stop offset="1" stop-color="#122B4F"/>
</linearGradient>
<linearGradient id="paint1_linear_64_2268" x1="487.734" y1="37.8549" x2="467.537" y2="40.4955" gradientUnits="userSpaceOnUse">
<stop stop-color="#0B6DFF"/>
<stop offset="1" stop-color="#122B4F"/>
</linearGradient>
<linearGradient id="paint2_linear_64_2268" x1="271.115" y1="56.5048" x2="283.696" y2="52.6928" gradientUnits="userSpaceOnUse">
<stop stop-color="#98F576"/>
<stop offset="1" stop-color="#122B4F"/>
</linearGradient>
<linearGradient id="paint3_linear_64_2268" x1="272.38" y1="29.2083" x2="288.891" y2="45.7528" gradientUnits="userSpaceOnUse">
<stop stop-color="#98F576"/>
<stop offset="1" stop-color="#122B4F"/>
</linearGradient>
</defs>
</svg>
