<svg width="358" height="102" viewBox="0 0 358 102" fill="none" xmlns="http://www.w3.org/2000/svg">
<g clip-path="url(#clip0_55_41046)">
<rect width="358" height="102" rx="8" fill="white"/>
<g clip-path="url(#clip1_55_41046)">
<path d="M107.52 58.5806H110.845V53.2866H118.893V50.4107H110.845V46.3036H119.395V43.425H107.52V58.5806Z" fill="#111111"/>
<path d="M125.338 43.425H122.013V58.5834H125.338V43.425Z" fill="#111111"/>
<path d="M139.24 55.6992L138.84 55.7797L133.48 43.425H127.992V58.5806H131.317V46.7529L131.716 46.6725L136.702 58.5806H142.565V43.425H139.24V55.6992Z" fill="#111111"/>
<path d="M144.645 46.3036H149.756V58.5806H153.081V46.3036H158.169V43.425H144.645V46.3036Z" fill="#111111"/>
<path d="M163.578 52.5073H171.207V49.6537H163.578V46.3036H171.978V43.425H160.252V58.5806H172.208V55.7048H163.578V52.5073Z" fill="#111111"/>
<path d="M203.603 49.5871H195.602V43.425H192.274V58.5806H195.602V52.4407H203.603V58.5806H206.928V43.425H203.603V49.5871Z" fill="#111111"/>
<path d="M222.253 43.425H214.458V58.5834H217.785V53.7746H222.256C223.992 53.7746 225.359 53.3614 226.332 52.5461C226.382 52.5073 226.432 52.4629 226.485 52.4158C227.308 51.624 227.812 50.557 227.899 49.4179C227.931 49.1418 227.946 48.864 227.944 48.586C227.944 46.9387 227.453 45.6492 226.485 44.759C225.517 43.8688 224.083 43.425 222.253 43.425ZM224.494 49.5039C224.216 50.4302 223.487 50.8905 222.314 50.8905H217.783V46.3036H222.314C223.82 46.3036 224.616 47.0968 224.616 48.5998C224.621 48.9056 224.58 49.2104 224.494 49.5039Z" fill="#111111"/>
<path d="M233.071 43.425H229.746V58.5806H241.072V55.7048H233.071V43.425Z" fill="#111111"/>
<path d="M248.41 43.425L242.287 58.5834H245.681L246.912 55.2888H254.475L255.706 58.5834H259.356L253.255 43.425H248.41ZM247.969 52.4352L250.695 45.1583L253.391 52.4352H247.969Z" fill="#111111"/>
<path d="M281.311 55.7048V52.5073H288.943V49.6537H281.311V46.3036H289.716V43.425H277.986V58.5806H289.944V55.7048H281.311Z" fill="#111111"/>
<path d="M186.772 52.7679C186.24 54.8645 184.607 55.9294 181.925 55.9294C179.243 55.9294 177.613 54.8645 177.08 52.7679C176.946 52.2114 176.882 51.6403 176.889 51.068C176.884 50.5085 176.943 49.9504 177.063 49.404C177.582 47.2021 179.215 46.0762 181.93 46.0762C184.645 46.0762 186.282 47.1855 186.797 49.404C186.814 49.465 186.825 49.5288 186.836 49.5926H190.164C190.164 49.5566 190.164 49.5205 190.15 49.4845C189.953 47.8908 189.217 46.4124 188.065 45.2942C186.609 43.9076 184.548 43.2143 181.942 43.2059C180.757 43.1934 179.578 43.3723 178.45 43.7356C177.194 44.138 176.081 44.8946 175.245 45.9144C174.408 46.9343 173.884 48.174 173.736 49.4845C173.653 50.0185 173.613 50.5582 173.616 51.0985C173.614 51.6306 173.654 52.162 173.738 52.6875C173.94 54.2465 174.676 55.6874 175.821 56.7641C177.28 58.1174 179.337 58.8052 181.942 58.8135C183.126 58.8286 184.305 58.6525 185.433 58.2922C186.409 57.9759 187.306 57.4549 188.065 56.7641C189.21 55.6874 189.946 54.2465 190.147 52.6875C190.147 52.6071 190.17 52.5294 190.181 52.4462H186.845C186.822 52.5544 186.797 52.6653 186.772 52.7679Z" fill="#111111"/>
<path d="M272.484 52.7679C271.951 54.8644 270.321 55.9293 267.639 55.9293C264.957 55.9293 263.327 54.8644 262.794 52.7679C262.661 52.2113 262.596 51.6403 262.603 51.0679C262.598 50.5083 262.658 49.95 262.78 49.404C263.296 47.2021 264.932 46.0762 267.647 46.0762C270.362 46.0762 271.996 47.1854 272.512 49.404C272.528 49.465 272.539 49.5288 272.553 49.5926H275.881L275.864 49.4844C275.663 47.8863 274.92 46.4054 273.76 45.2886C272.304 43.902 270.243 43.2087 267.639 43.2003C266.453 43.1876 265.274 43.3665 264.145 43.73C262.889 44.1324 261.776 44.889 260.939 45.9088C260.103 46.9287 259.579 48.1684 259.43 49.4789C259.348 50.0129 259.308 50.5526 259.311 51.0929C259.308 51.625 259.349 52.1565 259.433 52.6819C259.635 54.2409 260.371 55.6818 261.516 56.7585C262.975 58.1119 265.032 58.7996 267.639 58.8079C268.823 58.8232 270.001 58.6472 271.128 58.2866C272.104 57.9703 273.001 57.4493 273.76 56.7585C274.905 55.6818 275.641 54.2409 275.842 52.6819C275.842 52.6015 275.867 52.5239 275.876 52.4407H272.548C272.537 52.5544 272.512 52.6653 272.484 52.7679Z" fill="#111111"/>
<path d="M86.6292 45.6685H79.8321C73.9418 45.6685 70.0066 50.4439 71.0465 56.3342L71.0743 56.4978C71.5937 59.4407 73.1332 62.1066 75.4223 64.0276C77.7115 65.9486 80.6041 67.0019 83.5925 67.0027L81.7123 56.3342H88.5094C91.4546 56.3342 93.4235 53.9465 92.9022 51.0013C92.3808 48.0562 89.5743 45.6685 86.6292 45.6685Z" fill="#9FE320"/>
<path d="M77.9517 35C72.0614 35 68.1262 39.7755 69.1662 45.6685C70.2033 51.5588 75.8219 56.3343 81.7121 56.3343L79.8319 45.6685H91.7983C93.1255 45.6685 94.4367 45.3778 95.6395 44.8167C96.8424 44.2557 97.9077 43.438 98.7607 42.4212C99.6137 41.4043 100.234 40.2129 100.577 38.9308C100.92 37.6487 100.978 36.307 100.747 35H77.9517Z" fill="#0B6DFF"/>
</g>
</g>
<defs>
<clipPath id="clip0_55_41046">
<rect width="358" height="102" rx="8" fill="white"/>
</clipPath>
<clipPath id="clip1_55_41046">
<rect width="220.944" height="32" fill="white" transform="translate(69 35)"/>
</clipPath>
</defs>
</svg>
