<svg width="358" height="102" viewBox="0 0 358 102" fill="none" xmlns="http://www.w3.org/2000/svg">
<g clip-path="url(#clip0_55_41091)">
<rect width="358" height="102" rx="8" fill="white"/>
<g clip-path="url(#clip1_55_41091)">
<path d="M59.291 121.588C50.494 121.588 41.697 118.764 36.049 113.117C30.502 107.57 28.658 100.015 30.717 91.268C32.641 83.096 37.864 74.056 46.279 64.31C25.723 82.091 12.202 82.39 4.216 79.082C-5.028 75.254 -11 64.346 -11 51.294C-11 38.242 -5.028 27.335 4.215 23.506C12.199 20.2 25.715 20.494 46.266 38.268C21.744 9.87901 30.653 -5.13299 36.049 -10.529C47.344 -21.824 71.237 -21.824 82.533 -10.529C87.929 -5.13299 96.838 9.87901 72.315 38.268C92.866 20.493 106.382 20.198 114.366 23.506C123.609 27.335 129.581 38.242 129.581 51.294C129.581 64.346 123.609 75.254 114.366 79.083C106.382 82.39 92.866 82.095 72.315 64.321C96.837 92.71 87.928 107.722 82.533 113.117C76.885 118.765 68.088 121.588 59.291 121.588ZM54.233 56.882C21.128 89.987 30.858 106.867 36.579 112.587C47.617 123.624 70.964 123.624 82.002 112.587C87.356 107.233 89.13 99.921 87.134 91.441C84.728 81.224 77.062 69.596 64.348 56.882L64.878 56.352C84.219 75.693 101.692 83.521 114.079 78.39C123.041 74.678 128.831 64.042 128.831 51.294C128.831 38.547 123.04 27.911 114.079 24.199C101.693 19.067 84.22 26.896 64.878 46.237L64.348 45.707C97.453 12.601 87.723 -4.27799 82.002 -9.99899C70.965 -21.036 47.617 -21.036 36.58 -9.99899C30.859 -4.27799 21.128 12.601 54.234 45.707L53.704 46.237C34.362 26.895 16.89 19.067 4.503 24.199C-4.459 27.911 -10.25 38.547 -10.25 51.294C-10.25 64.042 -4.459 74.677 4.502 78.39C16.887 83.519 34.361 75.693 53.703 56.352L54.233 56.882Z" fill="white"/>
</g>
<path d="M186.031 38.4356H171.97V63.7029H186.031V38.4356Z" fill="#FF5F00"/>
<path d="M172.863 51.0693C172.86 48.6359 173.412 46.2338 174.475 44.045C175.539 41.8562 177.086 39.938 179 38.4356C176.63 36.5723 173.783 35.4136 170.785 35.0918C167.787 34.77 164.758 35.2982 162.046 36.616C159.334 37.9338 157.048 39.988 155.448 42.5439C153.848 45.0997 153 48.0541 153 51.0693C153 54.0845 153.848 57.0388 155.448 59.5947C157.048 62.1506 159.334 64.2048 162.046 65.5226C164.758 66.8404 167.787 67.3686 170.785 67.0468C173.783 66.725 176.63 65.5662 179 63.7029C177.086 62.2005 175.539 60.2823 174.475 58.0935C173.412 55.9047 172.86 53.5027 172.863 51.0693Z" fill="#EB001B"/>
<path d="M205 51.0693C205 54.0844 204.152 57.0388 202.552 59.5946C200.953 62.1505 198.666 64.2047 195.954 65.5225C193.242 66.8403 190.214 67.3686 187.216 67.0468C184.218 66.725 181.371 65.5662 179 63.7029C180.913 62.199 182.459 60.2805 183.522 58.0921C184.586 55.9036 185.138 53.5023 185.138 51.0693C185.138 48.6362 184.586 46.2349 183.522 44.0465C182.459 41.858 180.913 39.9395 179 38.4356C181.371 36.5723 184.218 35.4135 187.216 35.0918C190.214 34.77 193.242 35.2982 195.954 36.616C198.666 37.9338 200.953 39.9881 202.552 42.5439C204.152 45.0998 205 48.0541 205 51.0693Z" fill="#F79E1B"/>
<path d="M203.467 61.0267V60.5094H203.675V60.4041H203.144V60.5094H203.353V61.0267H203.467ZM204.498 61.0267V60.403H204.335L204.148 60.832L203.961 60.403H203.798V61.0267H203.913V60.5563L204.088 60.9619H204.208L204.383 60.5552V61.0267H204.498Z" fill="#F79E1B"/>
</g>
<defs>
<clipPath id="clip0_55_41091">
<rect width="358" height="102" rx="8" fill="white"/>
</clipPath>
<clipPath id="clip1_55_41091">
<rect width="140.582" height="140.588" fill="white" transform="translate(-11 -19)"/>
</clipPath>
</defs>
</svg>
