<svg width="358" height="102" viewBox="0 0 358 102" fill="none" xmlns="http://www.w3.org/2000/svg">
<g clip-path="url(#clip0_55_41001)">
<rect width="358" height="102" rx="8" fill="white"/>
<g clip-path="url(#clip1_55_41001)">
<path d="M59.291 121.588C50.494 121.588 41.697 118.764 36.049 113.117C30.502 107.57 28.658 100.015 30.717 91.268C32.641 83.096 37.864 74.056 46.279 64.31C25.723 82.091 12.202 82.39 4.216 79.082C-5.028 75.254 -11 64.346 -11 51.294C-11 38.242 -5.028 27.335 4.215 23.506C12.199 20.2 25.715 20.494 46.266 38.268C21.744 9.87901 30.653 -5.13299 36.049 -10.529C47.344 -21.824 71.237 -21.824 82.533 -10.529C87.929 -5.13299 96.838 9.87901 72.315 38.268C92.866 20.493 106.382 20.198 114.366 23.506C123.609 27.335 129.581 38.242 129.581 51.294C129.581 64.346 123.609 75.254 114.366 79.083C106.382 82.39 92.866 82.095 72.315 64.321C96.837 92.71 87.928 107.722 82.533 113.117C76.885 118.765 68.088 121.588 59.291 121.588ZM54.233 56.882C21.128 89.987 30.858 106.867 36.579 112.587C47.617 123.624 70.964 123.624 82.002 112.587C87.356 107.233 89.13 99.921 87.134 91.441C84.728 81.224 77.062 69.596 64.348 56.882L64.878 56.352C84.219 75.693 101.692 83.521 114.079 78.39C123.041 74.678 128.831 64.042 128.831 51.294C128.831 38.547 123.04 27.911 114.079 24.199C101.693 19.067 84.22 26.896 64.878 46.237L64.348 45.707C97.453 12.601 87.723 -4.27799 82.002 -9.99899C70.965 -21.036 47.617 -21.036 36.58 -9.99899C30.859 -4.27799 21.128 12.601 54.234 45.707L53.704 46.237C34.362 26.895 16.89 19.067 4.503 24.199C-4.459 27.911 -10.25 38.547 -10.25 51.294C-10.25 64.042 -4.459 74.677 4.502 78.39C16.887 83.519 34.361 75.693 53.703 56.352L54.233 56.882Z" fill="white"/>
</g>
<path fill-rule="evenodd" clip-rule="evenodd" d="M161.001 60.7249H155.462L151.308 44.4134C151.111 43.6631 150.693 42.9997 150.077 42.6871C148.54 41.9014 146.847 41.2761 145 40.9608V40.3328H153.923C155.154 40.3328 156.078 41.2761 156.231 42.3717L158.387 54.1378L163.923 40.3328H169.307L161.001 60.7249ZM172.385 60.7249H167.154L171.462 40.3328H176.692L172.385 60.7249ZM183.462 45.9789C183.616 44.8806 184.54 44.2526 185.617 44.2526C187.311 44.0949 189.155 44.4103 190.694 45.1933L191.618 40.8027C190.079 40.1747 188.385 39.8594 186.849 39.8594C181.772 39.8594 178.077 42.684 178.077 46.6042C178.077 49.5865 180.694 51.1524 182.541 52.0958C184.54 53.0364 185.309 53.6644 185.156 54.605C185.156 56.016 183.616 56.644 182.08 56.644C180.232 56.644 178.385 56.1736 176.695 55.388L175.771 59.7812C177.618 60.5642 179.617 60.8795 181.464 60.8795C187.157 61.0345 190.694 58.2126 190.694 53.977C190.694 48.6431 183.462 48.3305 183.462 45.9789ZM208.998 60.7249L204.845 40.3328H200.383C199.46 40.3328 198.536 40.9608 198.228 41.9014L190.537 60.7249H195.922L196.997 57.7454H203.613L204.229 60.7249H208.998ZM201.154 45.8221L202.69 53.5076H198.383L201.154 45.8221Z" fill="#172B85"/>
</g>
<defs>
<clipPath id="clip0_55_41001">
<rect width="358" height="102" rx="8" fill="white"/>
</clipPath>
<clipPath id="clip1_55_41001">
<rect width="140.582" height="140.588" fill="white" transform="translate(-11 -19)"/>
</clipPath>
</defs>
</svg>
