<svg width="358" height="102" viewBox="0 0 358 102" fill="none" xmlns="http://www.w3.org/2000/svg">
<rect width="358" height="102" rx="8" fill="white"/>
<path opacity="0.8" d="M180.948 30.4603L180.883 30.6119L174.6 45.1936H168.425C166.952 45.1936 165.565 45.4753 164.265 46.0386L168.057 36.9819L168.143 36.7869L168.273 36.4403C168.338 36.2886 168.382 36.1586 168.447 36.0503C171.285 29.4853 174.492 27.9903 180.948 30.4603Z" fill="#668E1B"/>
<path d="M192.63 45.6266C191.655 45.345 190.637 45.1933 189.575 45.1933H174.603L180.887 30.6116L180.952 30.46C181.255 30.5683 181.58 30.72 181.905 30.8283L186.693 32.8433C189.358 33.9483 191.222 35.0966 192.37 36.4833C192.565 36.7433 192.738 36.9816 192.912 37.2633C193.107 37.5666 193.258 37.87 193.345 38.195C193.432 38.39 193.497 38.5633 193.54 38.7583C194.103 40.6 193.757 42.8316 192.63 45.6266Z" fill="#9FE320"/>
<path d="M200.147 55.7662V59.9912C200.147 60.4245 200.125 60.8578 200.104 61.2695C199.692 68.8528 195.467 72.6662 187.45 72.6662H170.55C170.009 72.6662 169.51 72.6228 169.012 72.5578C162.122 72.1028 158.439 68.4195 157.962 61.5295C157.897 61.0095 157.854 60.5112 157.854 59.9912V55.7662C157.854 51.4112 160.497 47.6628 164.267 46.0379C165.567 45.4745 166.954 45.1929 168.427 45.1929H189.574C190.635 45.1929 191.654 45.3445 192.629 45.6262C196.962 46.9478 200.147 50.9778 200.147 55.7662Z" fill="#2D5083"/>
<path d="M168.059 36.9812L164.267 46.0378C160.497 47.6629 157.854 51.4112 157.854 55.7662V49.4179C157.854 43.2645 162.23 38.1295 168.059 36.9812Z" fill="#122B4F"/>
<path d="M200.145 49.4178V55.7662C200.145 50.9778 196.96 46.9478 192.626 45.6262C193.753 42.8312 194.1 40.5996 193.536 38.7579C193.493 38.5629 193.428 38.3896 193.341 38.1946C197.393 40.2962 200.145 44.5646 200.145 49.4178Z" fill="#122B4F"/>
<path d="M184.417 61.2917H173.583C172.695 61.2917 171.958 60.5551 171.958 59.6667C171.958 58.7784 172.695 58.0417 173.583 58.0417H184.417C185.305 58.0417 186.042 58.7784 186.042 59.6667C186.042 60.5551 185.305 61.2917 184.417 61.2917Z" fill="#F1F1F1"/>
</svg>
