<svg width="342" height="102" viewBox="0 0 342 102" fill="none" xmlns="http://www.w3.org/2000/svg">
<g clip-path="url(#clip0_302_109)">
<rect width="342" height="102" rx="8" fill="#F8FAFB"/>
<g clip-path="url(#clip1_302_109)">
<path d="M59.291 121.588C50.494 121.588 41.697 118.764 36.049 113.117C30.502 107.57 28.658 100.015 30.717 91.268C32.641 83.096 37.864 74.056 46.279 64.31C25.723 82.091 12.202 82.39 4.216 79.082C-5.028 75.254 -11 64.346 -11 51.294C-11 38.242 -5.028 27.335 4.215 23.506C12.199 20.2 25.715 20.494 46.266 38.268C21.744 9.87901 30.653 -5.13299 36.049 -10.529C47.344 -21.824 71.237 -21.824 82.533 -10.529C87.929 -5.13299 96.838 9.87901 72.315 38.268C92.866 20.493 106.382 20.198 114.366 23.506C123.609 27.335 129.581 38.242 129.581 51.294C129.581 64.346 123.609 75.254 114.366 79.083C106.382 82.39 92.866 82.095 72.315 64.321C96.837 92.71 87.928 107.722 82.533 113.117C76.885 118.765 68.088 121.588 59.291 121.588ZM54.233 56.882C21.128 89.987 30.858 106.867 36.579 112.587C47.617 123.624 70.964 123.624 82.002 112.587C87.356 107.233 89.13 99.921 87.134 91.441C84.728 81.224 77.062 69.596 64.348 56.882L64.878 56.352C84.219 75.693 101.692 83.521 114.079 78.39C123.041 74.678 128.831 64.042 128.831 51.294C128.831 38.547 123.04 27.911 114.079 24.199C101.693 19.067 84.22 26.896 64.878 46.237L64.348 45.707C97.453 12.601 87.723 -4.27799 82.002 -9.99899C70.965 -21.036 47.617 -21.036 36.58 -9.99899C30.859 -4.27799 21.128 12.601 54.234 45.707L53.704 46.237C34.362 26.895 16.89 19.067 4.503 24.199C-4.459 27.911 -10.25 38.547 -10.25 51.294C-10.25 64.042 -4.459 74.677 4.502 78.39C16.887 83.519 34.361 75.693 53.703 56.352L54.233 56.882Z" fill="white"/>
</g>
<g clip-path="url(#clip2_302_109)">
<rect x="40" y="27" width="48" height="48" rx="5.01458" fill="white"/>
<path d="M64 45V57M61 54.182L61.879 54.841C63.05 55.72 64.949 55.72 66.121 54.841C67.293 53.962 67.293 52.538 66.121 51.659C65.536 51.219 64.768 51 64 51C63.275 51 62.55 50.78 61.997 50.341C60.891 49.462 60.891 48.038 61.997 47.159C63.103 46.28 64.897 46.28 66.003 47.159L66.418 47.489M73 51C73 52.1819 72.7672 53.3522 72.3149 54.4442C71.8626 55.5361 71.1997 56.5282 70.364 57.364C69.5282 58.1997 68.5361 58.8626 67.4442 59.3149C66.3522 59.7672 65.1819 60 64 60C62.8181 60 61.6478 59.7672 60.5558 59.3149C59.4639 58.8626 58.4718 58.1997 57.636 57.364C56.8003 56.5282 56.1374 55.5361 55.6851 54.4442C55.2328 53.3522 55 52.1819 55 51C55 48.6131 55.9482 46.3239 57.636 44.636C59.3239 42.9482 61.6131 42 64 42C66.3869 42 68.6761 42.9482 70.364 44.636C72.0518 46.3239 73 48.6131 73 51Z" stroke="#9FE320" stroke-width="1.5" stroke-linecap="round" stroke-linejoin="round"/>
</g>
<g clip-path="url(#clip3_302_109)">
<path d="M213.095 51.4604C213.068 28.0601 204.287 9.03327 193.523 9.046C182.758 9.05873 174.023 28.1063 174.05 51.5065C174.078 74.9068 182.858 93.9342 193.623 93.9215C204.388 93.9087 213.123 74.8607 213.095 51.4604ZM174.462 51.5061C174.435 28.3331 182.985 9.47029 193.523 9.45782C204.061 9.44536 212.657 28.2879 212.684 51.4609C212.711 74.6344 204.161 93.4972 193.622 93.5096C183.085 93.5221 174.489 74.6796 174.462 51.5061Z" fill="black" fill-opacity="0.15"/>
<path d="M226.648 51.4552C226.625 31.9359 219.293 16.0647 210.303 16.0753C201.313 16.086 194.019 31.9745 194.042 51.4937C194.065 71.013 201.397 86.8842 210.387 86.8736C219.377 86.863 226.671 70.9745 226.648 51.4552ZM194.453 51.4933C194.43 32.2013 201.541 16.4975 210.303 16.4871C219.066 16.4768 226.213 32.1632 226.236 51.4557C226.259 70.7482 219.148 86.4514 210.386 86.4618C201.623 86.4721 194.476 70.7852 194.453 51.4933Z" fill="black" fill-opacity="0.15"/>
<path d="M240.201 51.4501C240.183 35.8123 234.298 23.0967 227.084 23.1053C219.869 23.1138 214.015 35.8433 214.034 51.481C214.052 67.1187 219.936 79.8349 227.151 79.8263C234.366 79.8178 240.22 67.0883 240.201 51.4501ZM214.445 51.4805C214.427 36.0696 220.097 23.5253 227.084 23.5171C234.072 23.5088 239.771 36.0396 239.789 51.4505C239.808 66.8615 234.138 79.4063 227.15 79.4145C220.163 79.4228 214.464 66.8914 214.445 51.4805Z" fill="black" fill-opacity="0.15"/>
<path d="M251.754 51.445C251.74 39.6883 247.304 30.1283 241.864 30.1347C236.425 30.1411 232.011 39.7111 232.025 51.4683C232.039 63.2256 236.476 72.785 241.915 72.7786C247.354 72.7722 251.768 63.2022 251.754 51.445ZM232.437 51.4678C232.423 39.9379 236.653 30.5527 241.865 30.5465C247.077 30.5404 251.329 39.9156 251.342 51.4455C251.356 62.9754 247.126 72.3606 241.914 72.3668C236.702 72.373 232.451 62.9978 232.437 51.4678Z" fill="black" fill-opacity="0.15"/>
<path d="M258.358 51.4399C258.349 43.5642 255.36 37.1603 251.697 37.1646C248.033 37.169 245.059 43.5799 245.069 51.4556C245.078 59.3313 248.067 65.7351 251.731 65.7308C255.394 65.7265 258.368 59.3156 258.358 51.4399ZM245.481 51.4551C245.472 43.8062 248.261 37.5805 251.698 37.5764C255.135 37.5724 257.938 43.792 257.947 51.4403C257.956 59.0887 255.167 65.3149 251.731 65.319C248.294 65.3231 245.49 59.104 245.481 51.4551Z" fill="black" fill-opacity="0.15"/>
<path d="M260.488 51.4374C260.483 47.3752 258.975 44.195 257.054 44.1972C255.133 44.1995 253.632 47.3833 253.637 51.4455C253.642 55.5077 255.15 58.6885 257.071 58.6862C258.992 58.684 260.493 55.5002 260.488 51.4374ZM254.049 51.445C254.044 47.7414 255.421 44.611 257.054 44.6091C258.687 44.6071 260.071 47.7343 260.075 51.4379C260.08 55.1416 258.703 58.2725 257.07 58.2744C255.437 58.2764 254.053 55.1487 254.049 51.445Z" fill="black" fill-opacity="0.15"/>
</g>
<rect x="254" y="27" width="48" height="48" rx="8" fill="#9FE320"/>
<path d="M280.25 46.756C279.571 46.5168 278.845 46.4437 278.133 46.5431C277.42 46.6424 276.741 46.9112 276.154 47.3269C275.567 47.7427 275.088 48.2931 274.757 48.9323C274.426 49.5714 274.254 50.2804 274.254 51C274.254 51.7196 274.426 52.4286 274.757 53.0677C275.088 53.7069 275.567 54.2573 276.154 54.6731C276.741 55.0888 277.42 55.3576 278.133 55.4569C278.845 55.5563 279.571 55.4832 280.25 55.244M273.5 49.5H278.75M273.5 52.5H278.75M287 51C287 52.1819 286.767 53.3522 286.315 54.4442C285.863 55.5361 285.2 56.5282 284.364 57.364C283.528 58.1997 282.536 58.8626 281.444 59.3149C280.352 59.7672 279.182 60 278 60C276.818 60 275.648 59.7672 274.556 59.3149C273.464 58.8626 272.472 58.1997 271.636 57.364C270.8 56.5282 270.137 55.5361 269.685 54.4442C269.233 53.3522 269 52.1819 269 51C269 48.6131 269.948 46.3239 271.636 44.636C273.324 42.9482 275.613 42 278 42C280.387 42 282.676 42.9482 284.364 44.636C286.052 46.3239 287 48.6131 287 51Z" stroke="white" stroke-width="1.5" stroke-linecap="round" stroke-linejoin="round"/>
<path d="M90 56.2279C100.833 43.5613 130.9 22.4279 164.5 39.2279C198.1 56.0279 246.5 52.5 253.5 52" stroke="#D3D5D6" stroke-width="0.5" stroke-dasharray="4 4"/>
<path d="M137 30.5C136.403 30.5 135.831 30.7371 135.409 31.159C134.987 31.581 134.75 32.1533 134.75 32.75C134.75 33.3467 134.987 33.919 135.409 34.341C135.831 34.7629 136.403 35 137 35C137.597 35 138.169 34.7629 138.591 34.341C139.013 33.919 139.25 33.3467 139.25 32.75C139.25 32.1533 139.013 31.581 138.591 31.159C138.169 30.7371 137.597 30.5 137 30.5Z" fill="#9FE320"/>
<rect x="127" y="27" width="18" height="10" fill="white"/>
<path fill-rule="evenodd" clip-rule="evenodd" d="M126.5 27.875C126.5 26.839 127.34 26 128.375 26H145.625C146.66 26 147.5 26.84 147.5 27.875V37.625C147.5 38.661 146.66 39.5 145.625 39.5H128.375C128.129 39.5 127.885 39.4515 127.657 39.3573C127.43 39.263 127.223 39.1249 127.049 38.9508C126.875 38.7767 126.737 38.57 126.643 38.3425C126.548 38.115 126.5 37.8712 126.5 37.625V27.875ZM133.25 32.75C133.25 31.7554 133.645 30.8016 134.348 30.0983C135.052 29.3951 136.005 29 137 29C137.995 29 138.948 29.3951 139.652 30.0983C140.355 30.8016 140.75 31.7554 140.75 32.75C140.75 33.7446 140.355 34.6984 139.652 35.4017C138.948 36.1049 137.995 36.5 137 36.5C136.005 36.5 135.052 36.1049 134.348 35.4017C133.645 34.6984 133.25 33.7446 133.25 32.75ZM143.75 32C143.551 32 143.36 32.079 143.22 32.2197C143.079 32.3603 143 32.5511 143 32.75V32.758C143 33.172 143.336 33.508 143.75 33.508H143.758C143.957 33.508 144.148 33.429 144.288 33.2883C144.429 33.1477 144.508 32.9569 144.508 32.758V32.75C144.508 32.5511 144.429 32.3603 144.288 32.2197C144.148 32.079 143.957 32 143.758 32H143.75ZM129.5 32.75C129.5 32.5511 129.579 32.3603 129.72 32.2197C129.86 32.079 130.051 32 130.25 32H130.258C130.457 32 130.648 32.079 130.788 32.2197C130.929 32.3603 131.008 32.5511 131.008 32.75V32.758C131.008 32.9569 130.929 33.1477 130.788 33.2883C130.648 33.429 130.457 33.508 130.258 33.508H130.25C130.051 33.508 129.86 33.429 129.72 33.2883C129.579 33.1477 129.5 32.9569 129.5 32.758V32.75Z" fill="#9FE320"/>
<path d="M127.25 41C127.051 41 126.86 41.079 126.72 41.2197C126.579 41.3603 126.5 41.5511 126.5 41.75C126.5 41.9489 126.579 42.1397 126.72 42.2803C126.86 42.421 127.051 42.5 127.25 42.5C132.65 42.5 137.88 43.222 142.85 44.575C144.04 44.899 145.25 44.017 145.25 42.755V41.75C145.25 41.5511 145.171 41.3603 145.03 41.2197C144.89 41.079 144.699 41 144.5 41H127.25Z" fill="#9FE320"/>
</g>
<defs>
<clipPath id="clip0_302_109">
<rect width="342" height="102" rx="8" fill="white"/>
</clipPath>
<clipPath id="clip1_302_109">
<rect width="140.582" height="140.588" fill="white" transform="translate(-11 -19)"/>
</clipPath>
<clipPath id="clip2_302_109">
<rect x="40" y="27" width="48" height="48" rx="8" fill="white"/>
</clipPath>
<clipPath id="clip3_302_109">
<rect width="84.8755" height="93.1308" fill="white" transform="matrix(0.00118278 0.999999 0.999999 -0.00118278 167.307 9.11011)"/>
</clipPath>
</defs>
</svg>
