<svg width="201" height="224" viewBox="0 0 201 224" fill="none" xmlns="http://www.w3.org/2000/svg">
<path d="M200.354 223.628C200.307 223.585 200.266 223.533 200.236 223.472C152.434 126.003 110.66 70.6866 34.6948 4.22233C34.5789 4.0926 34.4773 3.86836 34.5409 3.66978C34.6044 3.4712 34.7784 3.32955 34.9857 3.30874C102.527 -3.6731 154.566 -19.9344 232.718 -49.447C232.884 -49.5093 233.07 -49.4836 233.214 -49.3789C233.357 -49.2762 233.436 -49.1042 233.427 -48.926C232.615 -35.518 234.629 -27.3403 239.787 -23.224C245.82 -18.3883 256.539 -18.5412 274.54 -23.7205C274.761 -23.7834 274.996 -23.694 275.122 -23.5045C275.248 -23.3131 275.234 -23.0616 275.088 -22.8847C223.718 39.5127 203.702 106.223 201.231 223.253C201.227 223.494 201.057 223.701 200.82 223.752C200.649 223.789 200.476 223.739 200.354 223.628ZM49.2385 15.7775C116.243 76.6459 155.733 130.726 200.23 221.087C202.886 105.916 222.776 39.5896 273.223 -22.2629C255.821 -17.4334 245.271 -17.489 239.132 -22.4095C233.796 -26.69 231.632 -34.8863 232.335 -48.1853C154.978 -18.9933 103.147 -2.8121 36.2867 4.22296C40.7144 8.10572 45.035 11.959 49.2385 15.7775Z" fill="white" fill-opacity="0.05"/>
<path d="M209.859 187.15C209.839 187.131 209.818 187.11 209.801 187.087L54.8218 -7.92819C54.6421 -8.15361 54.6797 -8.48327 54.906 -8.66398C55.1314 -8.84366 55.4598 -8.81301 55.6418 -8.57981L210.62 186.435C210.8 186.66 210.762 186.99 210.536 187.171C210.331 187.333 210.045 187.319 209.859 187.15Z" fill="white" fill-opacity="0.05"/>
<path d="M213.277 159.596C213.26 159.58 213.243 159.563 213.227 159.545L69.1684 -12.2506C68.983 -12.4718 69.0116 -12.802 69.2328 -12.9874C69.4549 -13.1738 69.786 -13.1463 69.9696 -12.923L214.028 158.872C214.213 159.093 214.184 159.423 213.963 159.609C213.761 159.779 213.467 159.769 213.277 159.596Z" fill="white" fill-opacity="0.05"/>
<path d="M217.547 133.287C217.532 133.274 217.519 133.262 217.506 133.247L84.6569 -16.4837C84.4649 -16.6996 84.4855 -17.0314 84.7005 -17.2225C84.9174 -17.4156 85.2493 -17.393 85.4393 -17.1789L218.289 132.551C218.481 132.767 218.46 133.099 218.245 133.29C218.043 133.469 217.741 133.464 217.547 133.287Z" fill="white" fill-opacity="0.05"/>
<path d="M222.602 108.254C222.592 108.245 222.582 108.235 222.572 108.225L101.273 -20.5744C101.074 -20.7851 101.085 -21.1164 101.295 -21.3141C101.505 -21.5118 101.823 -21.5182 102.034 -21.2923L223.334 107.507C223.533 107.718 223.522 108.049 223.312 108.247C223.113 108.435 222.803 108.436 222.602 108.254Z" fill="white" fill-opacity="0.05"/>
<path d="M228.378 84.5292C228.372 84.5236 228.366 84.5179 228.36 84.5123L119.006 -24.467C118.8 -24.6704 118.8 -25.0022 119.005 -25.2066C119.21 -25.4119 119.537 -25.4148 119.744 -25.2075L229.099 83.7708C229.305 83.9742 229.305 84.306 229.1 84.5104C228.902 84.7085 228.583 84.7149 228.378 84.5292Z" fill="white" fill-opacity="0.05"/>
<path d="M234.804 62.145L234.8 62.1413L137.842 -28.1032C137.63 -28.2994 137.618 -28.6307 137.814 -28.8425C138.011 -29.0554 138.326 -29.1011 138.553 -28.8701L235.512 61.3744C235.724 61.5706 235.736 61.9018 235.539 62.1137C235.344 62.3245 235.016 62.3373 234.804 62.145Z" fill="white" fill-opacity="0.05"/>
<path d="M157.761 -31.442C157.551 -31.6324 157.531 -31.9564 157.717 -32.1717C157.906 -32.3901 158.237 -32.4139 158.455 -32.2249L242.511 40.3529C242.706 40.5786 242.753 40.8726 242.564 41.091C242.375 41.3094 242.045 41.3332 241.826 41.1442L157.77 -31.4336C157.767 -31.4364 157.764 -31.4392 157.761 -31.442Z" fill="white" fill-opacity="0.05"/>
<path d="M178.752 -34.4214C178.55 -34.6043 178.523 -34.916 178.694 -35.1336C178.874 -35.3604 179.203 -35.3989 179.428 -35.2182L250.025 20.7339C250.251 20.9146 250.29 21.2425 250.11 21.4685C249.93 21.6953 249.601 21.7338 249.375 21.5531L178.778 -34.399C178.77 -34.4065 178.761 -34.4129 178.752 -34.4214Z" fill="white" fill-opacity="0.05"/>
<path d="M200.81 -36.9829C200.616 -37.1592 200.58 -37.4557 200.737 -37.6736C200.905 -37.9088 201.231 -37.9629 201.467 -37.7955L257.99 2.55175C258.221 2.72431 258.279 3.04643 258.112 3.28258C257.943 3.51779 257.617 3.57196 257.381 3.40455L200.859 -36.9427C200.84 -36.9557 200.826 -36.9688 200.81 -36.9829Z" fill="white" fill-opacity="0.05"/>
<path d="M55.2156 32.6903C55.1774 32.6556 55.1438 32.6158 55.1169 32.5687C54.9706 32.3189 55.052 31.999 55.3007 31.8518C104.986 2.50739 153.369 -19.8086 240.922 -40.3584C241.203 -40.4252 241.485 -40.2502 241.551 -39.9699C241.617 -39.6877 241.443 -39.4068 241.162 -39.341C153.737 -18.82 105.433 3.45861 55.8328 32.7535C55.6312 32.8738 55.3808 32.8404 55.2156 32.6903Z" fill="white" fill-opacity="0.05"/>
<path d="M70.59 53.2226C70.5704 53.2048 70.5528 53.1869 70.5359 53.166C70.3524 52.9427 70.3869 52.6122 70.6103 52.4306C122.981 9.70684 169.939 -15.1231 243.865 -39.1833C244.14 -39.2726 244.438 -39.1249 244.525 -38.8477C244.614 -38.5725 244.463 -38.2779 244.189 -38.1877C170.398 -14.1725 123.533 10.6076 71.2722 53.2393C71.0688 53.405 70.7779 53.3933 70.59 53.2226Z" fill="white" fill-opacity="0.05"/>
<path d="M86.0181 73.8037L86.016 73.8018C85.8032 73.6066 85.7893 73.2755 85.9845 73.0627C132.681 22.3012 176.283 -7.78818 246.861 -37.9505C247.126 -38.064 247.434 -37.9405 247.548 -37.6754C247.661 -37.4103 247.538 -37.1022 247.273 -36.9887C176.846 -6.89086 133.34 23.1277 86.7551 73.7703C86.5598 73.9811 86.2308 73.9969 86.0181 73.8037Z" fill="white" fill-opacity="0.05"/>
<path d="M101.634 94.5554C101.442 94.381 101.405 94.0874 101.557 93.8688C142.628 34.863 182.874 -0.483858 250.047 -36.5472C250.301 -36.6838 250.617 -36.5874 250.755 -36.3333C250.892 -36.0792 250.796 -35.7615 250.541 -35.6249C183.529 0.352718 143.383 35.6108 102.416 94.4665C102.249 94.7036 101.924 94.7627 101.687 94.5963C101.668 94.5844 101.651 94.5704 101.634 94.5554Z" fill="white" fill-opacity="0.05"/>
<path d="M117.422 115.462C117.25 115.305 117.198 115.047 117.311 114.831C152.753 47.3591 189.639 6.75503 253.407 -34.9851C253.649 -35.1448 253.973 -35.0744 254.132 -34.8342C254.29 -34.5939 254.223 -34.2687 253.981 -34.11C190.378 7.52242 153.588 48.0212 118.238 115.317C118.103 115.574 117.788 115.672 117.532 115.537C117.49 115.518 117.454 115.491 117.422 115.462Z" fill="white" fill-opacity="0.05"/>
<path d="M132.42 135.652C132.26 135.507 132.201 135.27 132.29 135.061C163.866 60.7369 197.386 14.8837 255.966 -34.1273C256.187 -34.3127 256.518 -34.2891 256.703 -34.0609C256.888 -33.8397 256.86 -33.5095 256.636 -33.324C198.197 15.5677 164.757 61.3144 133.252 135.469C133.139 135.734 132.832 135.858 132.566 135.747C132.51 135.723 132.462 135.69 132.42 135.652Z" fill="white" fill-opacity="0.05"/>
<path d="M147.559 155.97C147.409 155.834 147.347 155.619 147.416 155.414C174.936 74.2591 205.091 23.1568 258.674 -33.1354C258.873 -33.3444 259.203 -33.3089 259.414 -33.1531C259.623 -32.9538 259.631 -32.6223 259.431 -32.4133C205.964 23.7578 175.873 74.7553 148.406 155.752C148.314 156.025 148.016 156.173 147.743 156.079C147.673 156.055 147.611 156.017 147.559 155.97Z" fill="white" fill-opacity="0.05"/>
<path d="M162.834 176.413C162.694 176.285 162.628 176.086 162.68 175.892C185.995 87.9328 212.785 31.5843 261.523 -32.0171C261.699 -32.2477 262.027 -32.2901 262.256 -32.1144C262.485 -31.9438 262.529 -31.6101 262.353 -31.3814C213.708 32.0989 186.968 88.3472 163.691 176.158C163.616 176.437 163.329 176.604 163.051 176.531C162.968 176.508 162.894 176.467 162.834 176.413Z" fill="white" fill-opacity="0.05"/>
<path d="M178.203 196.94C178.071 196.82 178.004 196.637 178.043 196.449C197.088 101.826 220.512 40.2304 264.475 -30.8147C264.627 -31.061 264.95 -31.1357 265.195 -30.9845C265.438 -30.8353 265.517 -30.5092 265.365 -30.2649C221.475 40.6642 198.085 102.165 179.068 196.655C179.01 196.938 178.734 197.121 178.452 197.065C178.356 197.047 178.272 197.002 178.203 196.94Z" fill="white" fill-opacity="0.05"/>
</svg>
