<svg width="24" height="24" viewBox="0 0 24 24" fill="none" xmlns="http://www.w3.org/2000/svg">
<path fill-rule="evenodd" clip-rule="evenodd" d="M4 0H20C22.2091 0 24 1.79086 24 4V20C24 22.2091 22.2091 24 20 24H4C1.79086 24 0 22.2091 0 20V4C0 1.79086 1.79086 0 4 0ZM11.64 16.8133L17.7333 8.81333V8.77333C18.0239 8.39225 18.0891 7.88509 17.9044 7.44291C17.7196 7.00072 17.313 6.69068 16.8377 6.62957C16.3624 6.56847 15.8906 6.76558 15.6 7.14667L10.56 13.8133L8.38667 11.04C8.09371 10.6637 7.62224 10.4722 7.14986 10.5378C6.67748 10.6033 6.27595 10.9159 6.09653 11.3578C5.9171 11.7997 5.98704 12.3037 6.28 12.68L9.53333 16.8267C9.78776 17.1487 10.1763 17.3355 10.5867 17.3333C10.9993 17.3323 11.3883 17.1403 11.64 16.8133Z" fill="#9FE320"/>
</svg>
