<svg width="135" height="40" viewBox="0 0 135 40" fill="none" xmlns="http://www.w3.org/2000/svg">
<g clip-path="url(#clip0_32_8827)">
<mask id="mask0_32_8827" style="mask-type:luminance" maskUnits="userSpaceOnUse" x="0" y="0" width="44" height="40">
<path d="M0 0H43.4699V39.5592H0V0Z" fill="white"/>
</mask>
<g mask="url(#mask0_32_8827)">
<path d="M43.4465 0H7.57804L0.00201416 39.5525H22.645C31.6271 39.492 37.212 32.1822 38.6689 25.0299L43.4465 0Z" fill="white"/>
</g>
<mask id="mask1_32_8827" style="mask-type:luminance" maskUnits="userSpaceOnUse" x="43" y="0" width="93" height="40">
<path d="M43.6945 0H135V39.5592H43.6945V0Z" fill="white"/>
</mask>
<g mask="url(#mask1_32_8827)">
<path d="M116.393 37.7039C117.594 38.6307 120.104 39.504 122.941 39.5574C128.507 39.5574 133.035 36.3934 133.035 30.8273C133.035 27.8824 131.017 25.5911 128.071 23.9001C125.725 22.5881 124.469 21.3881 124.469 19.479C124.469 17.1862 126.433 15.4937 129.163 15.4937C131.126 15.4937 132.818 16.1504 133.746 16.6952L135 13.2579C134.019 12.6027 131.89 11.9474 129.49 11.9474C123.924 11.9474 119.94 15.4937 119.94 20.1328C119.94 22.8076 121.631 25.1524 124.687 26.8449C127.416 28.372 128.343 29.6272 128.343 31.7005C128.343 34.0468 126.379 36.0126 123.323 36.0126C121.194 36.0126 118.903 35.1381 117.648 34.3753L116.393 37.7039ZM113.112 34.3204C111.748 34.9768 109.675 35.7948 107.001 35.7948C102.692 35.7948 100.454 33.0099 100.454 28.7542C100.454 22.5346 104.765 15.7684 111.638 15.7684C113.605 15.7684 115.076 16.258 116.113 16.7504L117.423 13.1489C116.606 12.7128 114.366 12.0026 111.912 12.0026C102.418 12.0026 95.761 20.2968 95.761 29.3002C95.761 34.923 99.0898 39.5592 105.911 39.5592C109.458 39.5592 112.186 38.5766 113.55 37.9216L113.112 34.3204ZM89.9835 15.9324C89.3297 15.7684 88.3471 15.5489 86.8195 15.5489C79.9981 15.5489 74.4319 22.6986 74.377 30.0095C74.377 32.9561 75.4148 35.8501 78.9074 35.8501C82.6729 35.8501 87.1465 30.9377 88.4564 23.9001L89.9835 15.9324ZM87.0372 38.9589C87.0372 37.3769 87.3116 34.8666 87.6372 32.1378H87.5279C84.6363 37.5949 81.0344 39.5592 77.2695 39.5592C72.6319 39.5592 69.6856 35.8501 69.6856 30.8273C69.6856 21.6613 76.4503 11.9474 87.9657 11.9474C90.4766 11.9474 93.2569 12.3846 95.0587 12.9849L92.3853 26.7359C91.512 31.3197 91.1283 36.014 91.2391 38.9589H87.0372ZM48.7321 28.7542C48.5129 29.6272 48.3498 30.7185 48.4039 32.0843C48.4039 34.5934 49.8234 36.0126 52.6607 36.0126C59.4821 36.0126 63.6285 27.8824 63.6285 22.0433C63.6285 18.7685 62.2089 15.7132 58.6088 15.7132C54.6788 15.7132 50.6412 19.7505 49.3321 25.9731L48.7321 28.7542ZM54.5148 0L50.9682 17.3493H51.0772C53.4235 13.8041 56.8073 11.9474 60.3539 11.9474C66.1387 11.9474 68.3216 16.7504 68.3216 21.4433C68.3216 29.5182 62.4822 39.5592 51.8967 39.5592C47.2577 39.5592 43.7663 37.6501 43.7663 32.7395C43.7663 31.484 43.984 29.9005 44.2035 28.6449L49.9848 0H54.5148Z" fill="#D9D9D9"/>
</g>
<mask id="mask2_32_8827" style="mask-type:luminance" maskUnits="userSpaceOnUse" x="0" y="0" width="44" height="40">
<path d="M0 0H43.4699V39.5592H0V0Z" fill="white"/>
</mask>
<g mask="url(#mask2_32_8827)">
<path d="M35.2726 12.9092C34.9295 6.40815 27.6831 1.28625 18.0367 0H16.9655C26.4036 1.78426 33.3086 7.44539 33.3086 14.1592C33.3086 19.249 29.3437 23.7384 23.3091 26.389C30.6861 23.6028 35.5672 18.4941 35.2726 12.9092ZM20.5969 0C30.0282 2.02216 36.8873 7.65962 37.2544 14.6424C37.7428 23.8878 26.6634 31.9902 12.5068 32.7354C8.59982 32.9424 4.86763 32.5656 1.50135 31.7195L0 39.5525H22.6445C31.6254 39.492 37.2114 32.1796 38.6698 25.0259L43.4448 0H20.5969ZM15.8585 28.2454C24.6506 26.3878 31.0412 20.788 31.0412 14.1592C31.0412 7.44159 24.4755 1.78017 15.4978 0H13.3128C22.3432 1.43822 29.1012 7.24373 29.1012 14.1943C29.1012 21.4676 21.7017 27.4937 12.043 28.5657C12.2864 28.5564 12.531 28.5511 12.7774 28.5388C13.824 28.4839 14.8507 28.3816 15.8585 28.2454ZM6.79569 26.9054C5.31304 26.9054 3.87365 26.7724 2.49563 26.5272L7.40242 0.909521C17.0532 1.14245 24.7786 6.86846 24.7786 13.9006C24.7786 21.0826 16.7273 26.9054 6.79569 26.9054Z" fill="#D9D9D9"/>
</g>
</g>
<defs>
<clipPath id="clip0_32_8827">
<rect width="135" height="39.5592" fill="white"/>
</clipPath>
</defs>
</svg>
