<svg width="91" height="66" viewBox="0 0 91 66" fill="none" xmlns="http://www.w3.org/2000/svg">
<g clip-path="url(#clip0_32_8846)">
<path d="M6.25809 47.9776H5.43518L4.62115 52.565H5.41918C7.31383 52.565 8.16162 51.5928 8.16162 49.7479C8.16162 48.5748 7.53778 47.9705 6.26697 47.9705M5.22012 54.975H4.18926L3.19928 60.7176H6.10352e-05L2.69274 45.5089H6.90682C9.3951 45.5089 11.5439 46.4562 11.5439 49.4191C11.519 53.283 8.97565 54.9786 5.21123 54.9786" fill="#D9D9D9"/>
<path d="M16.6786 52.6644C15.5073 52.6644 14.3361 54.6337 14.3361 56.7772C14.3361 57.8987 14.6098 58.5546 15.1341 58.5546C16.0814 58.5546 17.402 56.4111 17.9014 53.6189L18.0009 53.1443C17.8232 52.995 17.5015 52.6715 16.6786 52.6715M19.597 60.7496H16.6537L16.9292 59.2282C16.4298 60.0262 15.6851 60.9735 14.0108 60.9735C12.6156 60.9735 11.2684 59.8769 11.2684 57.1345C11.2684 53.1941 13.6127 50.2775 16.3054 50.2775C17.8268 50.2775 18.3991 50.9013 18.5981 51.1004L18.6994 50.5014H21.417L19.597 60.7496Z" fill="#D9D9D9"/>
<path d="M27.8244 60.0938C26.3279 63.1152 24.8029 64.8553 21.3158 65.3049L20.9923 63.1597C22.3147 62.7367 23.685 62.0631 24.4084 60.5665L24.707 59.9693L22.9118 50.4943H26.0542L26.8256 56.0787L29.3938 50.4943H32.6357L27.8244 60.0938Z" fill="#D9D9D9"/>
<path d="M46.9219 60.7425H43.9787L45.1766 53.9886C45.2512 53.5655 45.2512 53.1159 44.7518 53.1159C43.8294 53.1159 42.2084 55.286 41.7303 57.9023L41.2309 60.746H38.2947L39.4909 53.9921C39.5655 53.5691 39.5655 53.1194 39.043 53.1194C38.1205 53.1194 36.4996 55.2896 36.0215 57.9058L35.522 60.7496H32.5859L34.4059 50.5014H37.3474L36.9244 52.8955C37.5713 51.8291 38.5933 50.2775 40.3635 50.2775C41.9631 50.2775 42.6581 51.2994 42.5337 52.9435C43.106 51.9962 44.1795 50.2775 46.0493 50.2775C47.8693 50.2775 48.5162 51.5998 48.143 53.6935L46.9219 60.7425Z" fill="#D9D9D9"/>
<path d="M55.4975 52.3641C54.5751 52.3641 53.7024 53.5122 53.3541 55.1829C55.2985 54.9323 56.4697 54.4596 56.4697 53.3363C56.4697 52.6645 56.0716 52.3641 55.4975 52.3641ZM53.203 56.8519C53.2545 57.9752 53.7362 58.5475 54.6995 58.5475C55.821 58.5475 56.9194 57.9503 57.7405 57.4508L58.5386 59.3704C57.8667 59.8698 56.3951 60.9415 54.3014 60.9415C52.0068 60.9415 50.1868 59.82 50.1868 56.7275C50.1868 53.1372 52.181 50.2455 55.6717 50.2455C58.2897 50.2455 59.4041 51.3919 59.4041 53.1123C59.3793 55.9792 57.0616 56.6528 53.1959 56.8448" fill="#D9D9D9"/>
<path d="M69.1601 60.7425H66.2186L67.4147 53.9886C67.5142 53.5656 67.4894 53.1159 66.9917 53.1159C66.0693 53.1159 64.4483 55.2861 63.9702 57.9023L63.4726 60.7461H60.5346L62.3546 50.4979H65.2961L64.8731 52.8884C65.5218 51.822 66.5438 50.2704 68.314 50.2704C70.134 50.2704 70.7828 51.5927 70.4078 53.6864L69.1601 60.7425Z" fill="#D9D9D9"/>
<path d="M78.3098 52.6645H76.7813L75.8926 57.7246C75.7931 58.1743 75.9424 58.3733 76.2925 58.3733C76.5818 58.3724 76.8657 58.2952 77.1155 58.1494L77.414 60.1684C76.6912 60.6568 75.8424 60.9253 74.9702 60.9416C73.4506 60.9416 72.553 59.9694 72.9263 57.8988L73.8487 52.6396H72.7521L73.1502 50.4695H74.2486L74.8458 48.2513L77.6895 47.6275L77.1919 50.4713H78.7115L78.3098 52.6645Z" fill="#D9D9D9"/>
<path d="M86.5372 53.6189C85.9133 53.1692 84.8913 52.6965 84.1182 52.6965C83.4961 52.6965 83.0962 52.9204 83.0962 53.4198C83.0962 53.8677 83.5459 54.0668 84.1626 54.3423L84.7367 54.5911C85.7836 55.0141 86.9317 55.7126 86.9317 57.5575C86.9317 59.7259 85.7836 60.9735 83.1655 60.9735C81.0221 60.9735 79.7761 60.0262 79.003 59.477L80.1583 57.4509C80.9314 58.0249 82.1276 58.5475 82.9007 58.5475C83.5743 58.5475 83.848 58.2986 83.848 57.7992C83.848 57.2998 83.3753 57.0776 82.7514 56.827L82.1524 56.5782C81.1056 56.1552 79.9841 55.4567 79.9841 53.6616C79.9841 51.3172 81.8041 50.2704 84.072 50.2704C85.892 50.2704 87.0401 51.1928 87.5627 51.5678L86.5372 53.6189Z" fill="#D9D9D9"/>
<path d="M46.9468 32.9928H40.5892L39.9902 36.5084H44.901L44.4532 39.1264H39.5157L38.3942 45.5586H35.2039L37.8965 30.3517H47.4195L46.9468 32.9928Z" fill="#D9D9D9"/>
<path d="M50.9601 37.4806C49.7888 37.4806 48.6157 39.4499 48.6157 41.5952C48.6157 42.7167 48.8663 43.3725 49.4138 43.3725C50.3611 43.3725 51.6834 41.2272 52.1811 38.435L52.2806 37.9623C51.9205 37.6356 51.4457 37.465 50.9601 37.4877M53.9016 45.5657H50.9601L51.2338 44.0443C50.7361 44.8424 49.9896 45.7897 48.3171 45.7897C46.9219 45.7897 45.5747 44.6931 45.5747 41.9506C45.5747 38.012 47.919 35.0936 50.6117 35.0936C52.1313 35.0936 52.7054 35.7175 52.9045 35.9165L53.004 35.3194H55.7216L53.9016 45.5657Z" fill="#D9D9D9"/>
<path d="M63.8494 38.428C63.2255 37.9801 62.2035 37.5055 61.4322 37.5055C60.8332 37.5055 60.4084 37.7295 60.4084 38.2289C60.4084 38.6768 60.8581 38.8776 61.4748 39.1514L62.0471 39.4002C63.094 39.825 64.2421 40.5217 64.2421 42.3666C64.2421 44.5616 63.094 45.7826 60.476 45.7826C58.3325 45.7826 57.1114 44.8353 56.3134 44.2879L57.4598 42.267C58.2081 42.8411 59.4291 43.3903 60.2022 43.3903C60.8759 43.3903 61.1496 43.1397 61.1496 42.6421C61.1496 42.1444 60.6768 41.9187 60.0529 41.6698L59.454 41.4192C58.4071 40.9962 57.2856 40.2977 57.2856 38.5026C57.2856 36.1601 59.1056 35.1115 61.3735 35.1115C63.1935 35.1115 64.3417 36.0339 64.8642 36.4089L63.8494 38.428Z" fill="#D9D9D9"/>
<path d="M72.0269 37.4807H70.5055L69.608 42.5425C69.5333 42.9655 69.6844 43.1895 70.0079 43.1895C70.2954 43.1768 70.5765 43.1003 70.8308 42.9655L71.1294 44.9846C70.4089 45.4778 69.5586 45.7468 68.6855 45.7577C67.1659 45.7577 66.2683 44.8104 66.6416 42.7167L67.564 37.4558H66.4727L66.8708 35.2874H67.9692L68.5664 33.0675L71.4102 32.4454L70.9125 35.2892H72.4339L72.0269 37.4807Z" fill="#D9D9D9"/>
<path d="M78.2033 37.182C77.2808 37.182 76.4082 38.3284 76.0598 39.9991C78.0042 39.7503 79.1755 39.2757 79.1755 38.1542C79.1755 37.4806 78.7774 37.182 78.2033 37.182ZM75.9087 41.6698C75.9585 42.7913 76.433 43.3654 77.4053 43.3654C78.5516 43.3654 79.6252 42.7664 80.4463 42.267L81.2443 44.1865C80.5725 44.686 79.1008 45.7577 76.9787 45.7577C74.6841 45.7577 72.8641 44.6362 72.8641 41.5454C72.8641 37.9552 74.8583 35.0616 78.349 35.0616C80.967 35.0616 82.0814 36.1849 82.0814 37.9303C82.0814 40.7971 79.7709 41.485 75.8981 41.6627" fill="#D9D9D9"/>
<path d="M90.4259 38.2787C88.956 38.2787 87.2356 39.5495 86.6935 42.722L86.1958 45.5658H83.2454L85.0654 35.3123H87.9341L87.559 37.4807C88.2327 35.9592 89.0307 35.1115 91 35.1115L90.4259 38.2787Z" fill="#D9D9D9"/>
<path d="M45.9995 21.0935V21.1433C45.9995 21.8667 45.4254 22.6149 44.279 23.1623L5.90793 41.7694C3.59738 42.8909 2.74248 41.9684 4.01328 39.7503L11.0444 27.284C12.0994 25.4033 12.6504 23.2819 12.6441 21.1255C12.6502 18.9692 12.0992 16.8478 11.0444 14.967L4.01328 2.50251C2.76914 0.257722 3.61515 -0.639837 5.90793 0.481666L44.2559 19.0318C45.4023 19.5792 45.9764 20.3275 45.9764 21.0509V21.0935H45.9995Z" fill="#D9D9D9"/>
</g>
<defs>
<clipPath id="clip0_32_8846">
<rect width="91" height="65.3049" fill="white"/>
</clipPath>
</defs>
</svg>
