<svg width="105" height="56" viewBox="0 0 105 56" fill="none" xmlns="http://www.w3.org/2000/svg">
<g clip-path="url(#clip0_32_8822)">
<path d="M22.9327 0C16.6174 0 11.2263 4.56285 10.182 10.7917L8.56079 20.4688H98.9551L102.327 0H22.9327Z" fill="#D5D2D2"/>
<path d="M8.56083 20.4689L2.67282 55.6081H82.0857C88.4771 55.6081 93.929 50.9812 94.9677 44.6747L98.9551 20.4697H8.56083V20.4689Z" fill="#D9D9D9"/>
<path d="M24.3243 31.9048C23.3176 31.9048 22.411 32.2136 21.6068 32.8322C20.8017 33.45 20.1552 34.3598 19.667 35.5617C19.1789 36.7629 18.9348 38.0544 18.9348 39.4348C18.9348 40.7088 19.1957 41.6546 19.719 42.2732C20.2416 42.891 21.0754 43.2006 22.2197 43.2006C23.3336 43.2006 24.6228 42.907 26.0872 42.3196V45.2948C24.5692 45.8822 23.0431 46.1758 21.5099 46.1758C19.5718 46.1758 18.065 45.6061 16.9895 44.465C15.914 43.3247 15.3763 41.709 15.3763 39.6181C15.3763 37.6191 15.7732 35.7786 16.5662 34.0965C17.3592 32.4145 18.4203 31.1365 19.7478 30.2627C21.0754 29.3897 22.6014 28.9527 24.3251 28.9527C25.279 28.9527 26.1256 29.0384 26.8658 29.2104C27.606 29.3825 28.399 29.6969 29.2464 30.1547L27.8957 33.0155C27.0874 32.5649 26.4193 32.268 25.8935 32.1232C25.3662 31.9768 24.8436 31.9048 24.3243 31.9048ZM41.2953 45.9462H37.7936L39.3268 38.725H33.9373L32.4041 45.9462H28.9136L32.4497 29.2152H35.9515L34.5663 35.7722H39.9566L41.3409 29.2152H44.8315L41.2953 45.9462ZM54.3533 41.9635H48.9406L46.9721 45.9462H43.3103L52.0759 29.1464H56.3442L58.0263 45.9462H54.6278L54.3533 41.9635ZM54.1813 38.9883L53.8844 34.9832C53.8076 33.9837 53.7699 33.0187 53.7699 32.088V31.6759C53.4338 32.5913 53.0185 33.5604 52.5224 34.5823L50.3706 38.9883H54.1813ZM73.0528 34.0901C73.0528 35.9291 72.4062 37.3726 71.1131 38.4217C69.8199 39.4708 68.0362 39.995 65.7628 39.995H64.7785L63.531 45.9462H60.0405L63.5766 29.2152H67.4449C69.291 29.2152 70.6874 29.6217 71.6332 30.434C72.5791 31.2462 73.0528 32.4657 73.0528 34.0901ZM65.4083 37.0886H66.0493C67.1328 37.0886 67.985 36.8253 68.6068 36.2988C69.2286 35.7722 69.5391 35.0672 69.5391 34.1822C69.5391 32.809 68.7957 32.1224 67.308 32.1224H66.4614L65.4083 37.0886ZM83.8558 41.0024C83.8558 42.5973 83.2908 43.8576 82.1617 44.7851C81.0326 45.7117 79.5026 46.175 77.5732 46.175C75.8864 46.175 74.5292 45.8318 73.4993 45.1452V42.0099C74.9709 42.8341 76.3377 43.2454 77.5957 43.2454C78.4503 43.2454 79.1177 43.0838 79.5986 42.7589C80.0795 42.4348 80.3196 41.9899 80.3196 41.4258C80.3196 41.0977 80.2684 40.8096 80.1652 40.5615C80.0627 40.3143 79.9155 40.083 79.725 39.8693C79.5338 39.6557 79.0609 39.2668 78.3062 38.7018C77.2532 37.9464 76.513 37.199 76.0856 36.4588C75.6583 35.7186 75.4447 34.9216 75.4447 34.0669C75.4447 33.0827 75.6807 32.2032 76.1545 31.4286C76.6274 30.6548 77.3004 30.0514 78.1742 29.6201C79.048 29.1896 80.0523 28.9735 81.1902 28.9735C82.8451 28.9735 84.3599 29.3513 85.7331 30.1067L84.4855 32.773C83.2956 32.2088 82.1969 31.9264 81.1894 31.9264C80.5557 31.9264 80.0371 32.0984 79.633 32.4417C79.2281 32.785 79.0264 33.2387 79.0264 33.8037C79.0264 34.2694 79.1521 34.6751 79.4042 35.0224C79.6554 35.3697 80.2204 35.829 81.0982 36.4012C82.0209 37.0117 82.7115 37.6847 83.1692 38.4209C83.6269 39.1579 83.8558 40.0182 83.8558 41.0024ZM79.2417 12.4826C79.7571 11.7974 80.0854 10.99 80.1946 10.1395C80.3037 9.28908 80.1899 8.42488 79.8643 7.63172L77.9918 3.06807C77.8293 2.47991 78.4559 1.98697 78.9896 2.28305L92.2805 9.66187C92.7758 9.93634 92.7414 10.6589 92.2237 10.887L76.0256 17.9985C75.6671 18.1562 75.3206 17.7569 75.5263 17.424L79.2417 12.4826Z" fill="white"/>
</g>
<defs>
<clipPath id="clip0_32_8822">
<rect width="105" height="55.608" fill="white"/>
</clipPath>
</defs>
</svg>
