<?xml version="1.0" encoding="utf-8"?><svg viewBox="0 0 24 24" xmlns="http://www.w3.org/2000/svg" xmlns:xlink="http://www.w3.org/1999/xlink"><style>:root>svg{display:none}:root>svg:target{display:block}</style><svg viewBox="0 0 20 14" id="btn-card" xmlns="http://www.w3.org/2000/svg"><path d="M16.667 1.167H3.333c-.92 0-1.666.746-1.666 1.666v8.334c0 .92.746 1.666 1.666 1.666h13.334c.92 0 1.666-.746 1.666-1.666V2.833c0-.92-.746-1.666-1.666-1.666zm-15 4.166h16.666"/></svg><svg viewBox="0 0 24 24" id="business" xmlns="http://www.w3.org/2000/svg"><path d="M19.874 11.842l3.36-6.34H.688l3.362 6.34h15.825zM15.16 1.541H8.763v2.49h6.397V1.54z"/><path d="M20.965 12.923a.735.735 0 01-.65.39h-4.897a3.54 3.54 0 01-3.457 2.801 3.542 3.542 0 01-3.457-2.8H3.607a.735.735 0 01-.65-.391L.2 7.722V23.09h21.91c.89 0 1.612-.724 1.612-1.612V7.724l-2.756 5.199z"/><path d="M11.961 14.644a2.07 2.07 0 001.93-1.33h-3.86a2.07 2.07 0 001.93 1.33z"/></svg><svg viewBox="0 0 24 24" id="email" xmlns="http://www.w3.org/2000/svg"><path d="M21.75 6.75v10.5a2.25 2.25 0 01-2.25 2.25h-15a2.25 2.25 0 01-2.25-2.25V6.75m19.5 0A2.25 2.25 0 0019.5 4.5h-15a2.25 2.25 0 00-2.25 2.25m19.5 0v.243a2.25 2.25 0 01-1.07 1.916l-7.5 4.615a2.25 2.25 0 01-2.36 0L3.32 8.91a2.25 2.25 0 01-1.07-1.916V6.75"/></svg><svg viewBox="0 0 24 24" id="office" xmlns="http://www.w3.org/2000/svg"><path d="M2.25 21h19.5m-18-18v18m10.5-18v18m6-13.5V21M6.75 6.75h.75m-.75 3h.75m-.75 3h.75m3-6h.75m-.75 3h.75m-.75 3h.75M6.75 21v-3.375c0-.621.504-1.125 1.125-1.125h2.25c.621 0 1.125.504 1.125 1.125V21M3 3h12m-.75 4.5H21m-3.75 3.75h.008v.008h-.008v-.008zm0 3h.008v.008h-.008v-.008zm0 3h.008v.008h-.008v-.008z"/></svg><svg viewBox="0 0 24 24" id="private" xmlns="http://www.w3.org/2000/svg"><path d="M10.125 14.77a8.058 8.058 0 01-3.907-2.133c-1.727.847-2.58 2.098-2.58 3.822v5.854c.83.386 2.97 1.256 5.944 1.573l-.695-.556a.746.746 0 01-.266-.734l1.504-7.826zm1.745-1.299c3.636 0 6.594-2.979 6.594-6.639S15.506.193 11.871.193c-3.633 0-6.589 2.979-6.589 6.64 0 3.66 2.956 6.638 6.589 6.638zM11.598 15.027l-1.42 7.422 1.754 1.402 1.75-1.401-1.44-7.423h-.644zM17.532 12.632a8.062 8.062 0 01-3.822 2.114l1.53 7.848a.748.748 0 01-.264.736l-.658.527a21.972 21.972 0 005.907-1.572V16.46c0-1.726-.89-2.978-2.693-3.827z"/></svg><svg viewBox="0 0 19 17" id="tg" xmlns="http://www.w3.org/2000/svg"><path d="M7.455 11.293l-.314 4.42c.45 0 .645-.192.878-.424l2.108-2.015 4.369 3.199c.801.447 1.366.211 1.582-.737l2.867-13.437h.001C19.2 1.114 18.518.65 17.737.942L.882 7.395C-.268 7.84-.25 8.482.687 8.773l4.309 1.34L15.005 3.85c.471-.312.9-.139.547.173l-8.097 7.27z"/></svg><svg viewBox="0 0 24 24" id="time" xmlns="http://www.w3.org/2000/svg"><path d="M12 6v6h4.5m4.5 0a9 9 0 11-18 0 9 9 0 0118 0z"/></svg><svg viewBox="0 0 17 18" id="viber" xmlns="http://www.w3.org/2000/svg"><path d="M8.502.857h-.004C3.81.857 0 4.67 0 9.357c0 1.86.6 3.583 1.618 4.982l-1.06 3.158 3.268-1.044a8.426 8.426 0 004.676 1.404c4.687 0 8.498-3.813 8.498-8.5 0-4.686-3.811-8.5-8.498-8.5zm4.946 12.004c-.205.579-1.019 1.059-1.668 1.199-.444.095-1.024.17-2.977-.64-2.498-1.034-4.107-3.573-4.232-3.737-.12-.165-1.01-1.345-1.01-2.564 0-1.22.62-1.814.87-2.069.205-.21.544-.305.869-.305.105 0 .2.005.285.01.25.01.375.025.54.42.204.493.704 1.713.763 1.839.06.125.121.295.036.46-.08.17-.15.245-.275.39-.125.144-.244.255-.37.41-.114.135-.244.28-.1.529.145.244.644 1.06 1.38 1.714.948.844 1.718 1.114 1.993 1.229.205.085.45.065.6-.095.19-.205.424-.545.663-.88.17-.24.385-.27.61-.184.23.08 1.444.68 1.694.804.25.125.414.185.475.29.06.105.06.6-.146 1.18z"/></svg></svg>